XYZ_Retorica-Regular.ufo
<glyph name="exclam" format="2">
  <advance width="336"/>
  <unicode hex="0021"/>
  <outline>
    <contour>
      <point x="118" y="0" type="line"/>
      <point x="218" y="0" type="line"/>
      <point x="218" y="218" type="line"/>
      <point x="118" y="218" type="line"/>
    </contour>
    <contour>
      <point x="118" y="336" type="line"/>
      <point x="218" y="336" type="line"/>
      <point x="218" y="672" type="line"/>
      <point x="118" y="672" type="line"/>
    </contour>
    <contour>
      <point x="118" y="672" type="line"/>
      <point x="218" y="672" type="line"/>
      <point x="218" y="1008" type="line"/>
      <point x="118" y="1008" type="line"/>
    </contour>
  </outline>
</glyph>
<glyph name="numbersign" format="2">
  <advance width="1344"/>
  <unicode hex="0023"/>
  <outline>
    <contour>
      <point x="336" y="143" type="line"/>
      <point x="672" y="143" type="line"/>
      <point x="672" y="193" type="line"/>
      <point x="336" y="193" type="line"/>
    </contour>
    <contour>
      <point x="479" y="0" type="line"/>
      <point x="529" y="0" type="line"/>
      <point x="529" y="193" type="line"/>
      <point x="479" y="193" type="line"/>
    </contour>
    <contour>
      <point x="672" y="143" type="line"/>
      <point x="1008" y="143" type="line"/>
      <point x="1008" y="193" type="line"/>
      <point x="672" y="193" type="line"/>
    </contour>
    <contour>
      <point x="815" y="0" type="line"/>
      <point x="865" y="0" type="line"/>
      <point x="865" y="193" type="line"/>
      <point x="815" y="193" type="line"/>
    </contour>
    <contour>
      <point x="479" y="336" type="line"/>
      <point x="529" y="336" type="line"/>
      <point x="529" y="672" type="line"/>
      <point x="479" y="672" type="line"/>
    </contour>
    <contour>
      <point x="815" y="336" type="line"/>
      <point x="865" y="336" type="line"/>
      <point x="865" y="672" type="line"/>
      <point x="815" y="672" type="line"/>
    </contour>
    <contour>
      <point x="336" y="815" type="line"/>
      <point x="672" y="815" type="line"/>
      <point x="672" y="865" type="line"/>
      <point x="336" y="865" type="line"/>
    </contour>
    <contour>
      <point x="479" y="815" type="line"/>
      <point x="529" y="815" type="line"/>
      <point x="529" y="1008" type="line"/>
      <point x="479" y="1008" type="line"/>
    </contour>
    <contour>
      <point x="672" y="815" type="line"/>
      <point x="1008" y="815" type="line"/>
      <point x="1008" y="865" type="line"/>
      <point x="672" y="865" type="line"/>
    </contour>
    <contour>
      <point x="815" y="815" type="line"/>
      <point x="865" y="815" type="line"/>
      <point x="865" y="1008" type="line"/>
      <point x="815" y="1008" type="line"/>
    </contour>
  </outline>
</glyph>
<glyph name="asterisk" format="2">
  <advance width="1680"/>
  <unicode hex="002A"/>
  <outline>
    <contour>
      <point x="479" y="336" type="line"/>
      <point x="336" y="193" type="line"/>
      <point x="336" y="143" type="line"/>
      <point x="357" y="143" type="line"/>
      <point x="529" y="315" type="line"/>
      <point x="529" y="336" type="line"/>
    </contour>
    <contour>
      <point x="815" y="143" type="line"/>
      <point x="865" y="143" type="line"/>
      <point x="865" y="336" type="line"/>
      <point x="815" y="336" type="line"/>
    </contour>
    <contour>
      <point x="1201" y="336" type="line"/>
      <point x="1151" y="336" type="line"/>
      <point x="1151" y="315" type="line"/>
      <point x="1323" y="143" type="line"/>
      <point x="1344" y="143" type="line"/>
      <point x="1344" y="193" type="line"/>
    </contour>
    <contour>
      <point x="529" y="672" type="line"/>
      <point x="479" y="672" type="line"/>
      <point x="479" y="651" type="line"/>
      <point x="651" y="479" type="line"/>
      <point x="672" y="479" type="line"/>
      <point x="672" y="529" type="line"/>
    </contour>
    <contour>
      <point x="529" y="336" type="line"/>
      <point x="672" y="479" type="line"/>
      <point x="672" y="529" type="line"/>
      <point x="651" y="529" type="line"/>
      <point x="479" y="357" type="line"/>
      <point x="479" y="336" type="line"/>
    </contour>
    <contour>
      <point x="672" y="479" type="line"/>
      <point x="1008" y="479" type="line"/>
      <point x="1008" y="529" type="line"/>
      <point x="672" y="529" type="line"/>
    </contour>
    <contour>
      <point x="815" y="479" type="line"/>
      <point x="865" y="479" type="line"/>
      <point x="865" y="672" type="line"/>
      <point x="815" y="672" type="line"/>
    </contour>
    <contour>
      <point x="1151" y="672" type="line"/>
      <point x="1008" y="529" type="line"/>
      <point x="1008" y="479" type="line"/>
      <point x="1029" y="479" type="line"/>
      <point x="1201" y="651" type="line"/>
      <point x="1201" y="672" type="line"/>
    </contour>
    <contour>
      <point x="1201" y="672" type="line"/>
      <point x="1151" y="672" type="line"/>
      <point x="1151" y="651" type="line"/>
      <point x="1323" y="479" type="line"/>
      <point x="1344" y="479" type="line"/>
      <point x="1344" y="529" type="line"/>
    </contour>
    <contour>
      <point x="479" y="672" type="line"/>
      <point x="529" y="672" type="line"/>
      <point x="529" y="693" type="line"/>
      <point x="357" y="865" type="line"/>
      <point x="336" y="865" type="line"/>
      <point x="336" y="815" type="line"/>
    </contour>
    <contour>
      <point x="815" y="672" type="line"/>
      <point x="865" y="672" type="line"/>
      <point x="865" y="865" type="line"/>
      <point x="815" y="865" type="line"/>
    </contour>
    <contour>
      <point x="1201" y="672" type="line"/>
      <point x="1344" y="815" type="line"/>
      <point x="1344" y="865" type="line"/>
      <point x="1323" y="865" type="line"/>
      <point x="1151" y="693" type="line"/>
      <point x="1151" y="672" type="line"/>
    </contour>
  </outline>
</glyph>
<glyph name="comma" format="2">
  <advance width="336"/>
  <unicode hex="002C"/>
  <outline>
    <contour>
      <point x="143" y="0" type="line"/>
      <point x="193" y="0" type="line"/>
      <point x="193" y="336" type="line"/>
      <point x="143" y="336" type="line"/>
    </contour>
  </outline>
</glyph>
<glyph name="hyphen" format="2">
  <advance width="672.0"/>
  <unicode hex="002D"/>
  <outline>
    <contour>
      <point x="168.0" y="454" type="line"/>
      <point x="504.0" y="454" type="line"/>
      <point x="504.0" y="554" type="line"/>
      <point x="168.0" y="554" type="line"/>
    </contour>
  </outline>
</glyph>
<glyph name="period" format="2">
  <advance width="336"/>
  <unicode hex="002E"/>
  <outline>
    <contour>
      <point x="118" y="118" type="line"/>
      <point x="218" y="118" type="line"/>
      <point x="218" y="336" type="line"/>
      <point x="118" y="336" type="line"/>
    </contour>
  </outline>
</glyph>
<glyph name="zero" format="2">
  <advance width="672"/>
  <unicode hex="0030"/>
  <outline>
    <contour>
      <point x="143" y="336" type="line"/>
      <point x="143" y="211"/>
      <point x="211" y="143"/>
      <point x="336" y="143" type="curve"/>
      <point x="336" y="193" type="line"/>
      <point x="243" y="193"/>
      <point x="193" y="243"/>
      <point x="193" y="336" type="curve"/>
    </contour>
    <contour>
      <point x="336" y="143" type="line"/>
      <point x="529" y="143" type="line"/>
      <point x="529" y="193" type="line"/>
      <point x="336" y="193" type="line"/>
    </contour>
    <contour>
      <point x="479" y="143" type="line"/>
      <point x="529" y="143" type="line"/>
      <point x="529" y="336" type="line"/>
      <point x="479" y="336" type="line"/>
    </contour>
    <contour>
      <point x="143" y="336" type="line"/>
      <point x="193" y="336" type="line"/>
      <point x="193" y="672" type="line"/>
      <point x="143" y="672" type="line"/>
    </contour>
    <contour>
      <point x="479" y="336" type="line"/>
      <point x="529" y="336" type="line"/>
      <point x="529" y="672" type="line"/>
      <point x="479" y="672" type="line"/>
    </contour>
    <contour>
      <point x="143" y="672" type="curve"/>
      <point x="193" y="672" type="line"/>
      <point x="193" y="765"/>
      <point x="243" y="815"/>
      <point x="336" y="815" type="curve"/>
      <point x="336" y="865" type="line"/>
      <point x="211" y="865"/>
      <point x="143" y="797"/>
    </contour>
    <contour>
      <point x="529" y="672" type="line"/>
      <point x="529" y="797"/>
      <point x="461" y="865"/>
      <point x="336" y="865" type="curve"/>
      <point x="336" y="815" type="line"/>
      <point x="429" y="815"/>
      <point x="479" y="765"/>
      <point x="479" y="672" type="curve"/>
    </contour>
  </outline>
</glyph>
<glyph name="six" format="2">
  <advance width="672"/>
  <unicode hex="0036"/>
  <outline>
    <contour>
      <point x="143" y="143" type="line"/>
      <point x="336" y="143" type="line"/>
      <point x="336" y="193" type="line"/>
      <point x="143" y="193" type="line"/>
    </contour>
    <contour>
      <point x="143" y="143" type="line"/>
      <point x="193" y="143" type="line"/>
      <point x="193" y="336" type="line"/>
      <point x="143" y="336" type="line"/>
    </contour>
    <contour>
      <point x="336" y="143" type="line"/>
      <point x="529" y="143" type="line"/>
      <point x="529" y="193" type="line"/>
      <point x="336" y="193" type="line"/>
    </contour>
    <contour>
      <point x="479" y="143" type="line"/>
      <point x="529" y="143" type="line"/>
      <point x="529" y="336" type="line"/>
      <point x="479" y="336" type="line"/>
    </contour>
    <contour>
      <point x="143" y="336" type="line"/>
      <point x="193" y="336" type="line"/>
      <point x="193" y="672" type="line"/>
      <point x="143" y="672" type="line"/>
    </contour>
    <contour>
      <point x="143" y="479" type="line"/>
      <point x="336" y="479" type="line"/>
      <point x="336" y="529" type="line"/>
      <point x="143" y="529" type="line"/>
    </contour>
    <contour>
      <point x="336" y="479" type="line"/>
      <point x="529" y="479" type="line"/>
      <point x="529" y="529" type="line"/>
      <point x="336" y="529" type="line"/>
    </contour>
    <contour>
      <point x="479" y="336" type="line"/>
      <point x="529" y="336" type="line"/>
      <point x="529" y="529" type="line"/>
      <point x="479" y="529" type="line"/>
    </contour>
    <contour>
      <point x="143" y="815" type="line"/>
      <point x="336" y="815" type="line"/>
      <point x="336" y="865" type="line"/>
      <point x="143" y="865" type="line"/>
    </contour>
    <contour>
      <point x="143" y="672" type="line"/>
      <point x="193" y="672" type="line"/>
      <point x="193" y="865" type="line"/>
      <point x="143" y="865" type="line"/>
    </contour>
    <contour>
      <point x="336" y="815" type="line"/>
      <point x="529" y="815" type="line"/>
      <point x="529" y="865" type="line"/>
      <point x="336" y="865" type="line"/>
    </contour>
  </outline>
</glyph>
<glyph name="colon" format="2">
  <advance width="336"/>
  <unicode hex="003A"/>
  <outline>
    <contour>
      <point x="118" y="118" type="line"/>
      <point x="218" y="118" type="line"/>
      <point x="218" y="336" type="line"/>
      <point x="118" y="336" type="line"/>
    </contour>
    <contour>
      <point x="118" y="454" type="line"/>
      <point x="218" y="454" type="line"/>
      <point x="218" y="672" type="line"/>
      <point x="118" y="672" type="line"/>
    </contour>
  </outline>
</glyph>
<glyph name="semicolon" format="2">
  <advance width="336"/>
  <unicode hex="003B"/>
  <outline>
    <contour>
      <point x="143" y="0" type="line"/>
      <point x="193" y="0" type="line"/>
      <point x="193" y="336" type="line"/>
      <point x="143" y="336" type="line"/>
    </contour>
    <contour>
      <point x="143" y="479" type="line"/>
      <point x="193" y="479" type="line"/>
      <point x="193" y="672" type="line"/>
      <point x="143" y="672" type="line"/>
    </contour>
  </outline>
</glyph>
<glyph name="backslash" format="2">
  <advance width="1344"/>
  <unicode hex="005C"/>
  <outline>
    <contour>
      <point x="865" y="336" type="line"/>
      <point x="815" y="336" type="line"/>
      <point x="815" y="315" type="line"/>
      <point x="987" y="143" type="line"/>
      <point x="1008" y="143" type="line"/>
      <point x="1008" y="193" type="line"/>
    </contour>
    <contour>
      <point x="529" y="672" type="line"/>
      <point x="479" y="672" type="line"/>
      <point x="479" y="651" type="line"/>
      <point x="651" y="479" type="line"/>
      <point x="672" y="479" type="line"/>
      <point x="672" y="529" type="line"/>
    </contour>
    <contour>
      <point x="815" y="336" type="line"/>
      <point x="865" y="336" type="line"/>
      <point x="865" y="357" type="line"/>
      <point x="693" y="529" type="line"/>
      <point x="672" y="529" type="line"/>
      <point x="672" y="479" type="line"/>
    </contour>
    <contour>
      <point x="479" y="672" type="line"/>
      <point x="529" y="672" type="line"/>
      <point x="529" y="693" type="line"/>
      <point x="357" y="865" type="line"/>
      <point x="336" y="865" type="line"/>
      <point x="336" y="815" type="line"/>
    </contour>
    <contour>
      <point x="865" y="672" type="line"/>
      <point x="1008" y="815" type="line"/>
      <point x="1008" y="865" type="line"/>
      <point x="987" y="865" type="line"/>
      <point x="815" y="693" type="line"/>
      <point x="815" y="672" type="line"/>
    </contour>
  </outline>
</glyph>
<glyph name="asciicircum" format="2">
  <advance width="1008"/>
  <unicode hex="005E"/>
  <outline>
    <contour>
      <point x="479" y="1008" type="line"/>
      <point x="336" y="865" type="line"/>
      <point x="336" y="815" type="line"/>
      <point x="357" y="815" type="line"/>
      <point x="529" y="987" type="line"/>
      <point x="529" y="1008" type="line"/>
    </contour>
    <contour>
      <point x="479" y="672" type="line"/>
      <point x="529" y="672" type="line"/>
      <point x="529" y="693" type="line"/>
      <point x="357" y="865" type="line"/>
      <point x="336" y="865" type="line"/>
      <point x="336" y="815" type="line"/>
    </contour>
  </outline>
</glyph>
<glyph name="underscore" format="2">
  <advance width="1008"/>
  <unicode hex="005F"/>
  <outline>
    <contour>
      <point x="336" y="143" type="line"/>
      <point x="672" y="143" type="line"/>
      <point x="672" y="193" type="line"/>
      <point x="336" y="193" type="line"/>
    </contour>
  </outline>
</glyph>
<glyph name="a" format="2">
  <advance width="1344.0"/>
  <unicode hex="0061"/>
  <outline>
    <contour>
      <point x="311.0" y="336" type="line"/>
      <point x="168.0" y="193" type="line"/>
      <point x="168.0" y="143" type="line"/>
      <point x="189.0" y="143" type="line"/>
      <point x="361.0" y="315" type="line"/>
      <point x="361.0" y="336" type="line"/>
    </contour>
    <contour>
      <point x="1033.0" y="336" type="line"/>
      <point x="983.0" y="336" type="line"/>
      <point x="983.0" y="315" type="line"/>
      <point x="1155.0" y="143" type="line"/>
      <point x="1176.0" y="143" type="line"/>
      <point x="1176.0" y="193" type="line"/>
    </contour>
    <contour>
      <point x="311.0" y="336" type="line"/>
      <point x="361.0" y="336" type="line"/>
      <point x="361.0" y="672" type="line"/>
      <point x="311.0" y="672" type="line"/>
    </contour>
    <contour>
      <point x="311.0" y="479" type="line"/>
      <point x="504.0" y="479" type="line"/>
      <point x="504.0" y="529" type="line"/>
      <point x="311.0" y="529" type="line"/>
    </contour>
    <contour>
      <point x="504.0" y="479" type="line"/>
      <point x="840.0" y="479" type="line"/>
      <point x="840.0" y="529" type="line"/>
      <point x="504.0" y="529" type="line"/>
    </contour>
    <contour>
      <point x="983.0" y="336" type="line"/>
      <point x="1033.0" y="336" type="line"/>
      <point x="1033.0" y="672" type="line"/>
      <point x="983.0" y="672" type="line"/>
    </contour>
    <contour>
      <point x="840.0" y="479" type="line"/>
      <point x="1033.0" y="479" type="line"/>
      <point x="1033.0" y="529" type="line"/>
      <point x="840.0" y="529" type="line"/>
    </contour>
    <contour>
      <point x="311.0" y="672" type="curve"/>
      <point x="361.0" y="672" type="line"/>
      <point x="361.0" y="765"/>
      <point x="411.0" y="815"/>
      <point x="504.0" y="815" type="curve"/>
      <point x="504.0" y="865" type="line"/>
      <point x="379.0" y="865"/>
      <point x="311.0" y="797"/>
    </contour>
    <contour>
      <point x="504.0" y="815" type="line"/>
      <point x="840.0" y="815" type="line"/>
      <point x="840.0" y="865" type="line"/>
      <point x="504.0" y="865" type="line"/>
    </contour>
    <contour>
      <point x="1033.0" y="672" type="line"/>
      <point x="1033.0" y="797"/>
      <point x="965.0" y="865"/>
      <point x="840.0" y="865" type="curve"/>
      <point x="840.0" y="815" type="line"/>
      <point x="933.0" y="815"/>
      <point x="983.0" y="765"/>
      <point x="983.0" y="672" type="curve"/>
    </contour>
  </outline>
</glyph>
<glyph name="b" format="2">
  <advance width="1176.0"/>
  <unicode hex="0062"/>
  <outline>
    <contour>
      <point x="311.0" y="143" type="line"/>
      <point x="504.0" y="143" type="line"/>
      <point x="504.0" y="193" type="line"/>
      <point x="311.0" y="193" type="line"/>
    </contour>
    <contour>
      <point x="311.0" y="143" type="line"/>
      <point x="361.0" y="143" type="line"/>
      <point x="361.0" y="336" type="line"/>
      <point x="311.0" y="336" type="line"/>
    </contour>
    <contour>
      <point x="504.0" y="143" type="line"/>
      <point x="840.0" y="143" type="line"/>
      <point x="840.0" y="193" type="line"/>
      <point x="504.0" y="193" type="line"/>
    </contour>
    <contour>
      <point x="1033.0" y="336" type="curve"/>
      <point x="983.0" y="336" type="line"/>
      <point x="983.0" y="243"/>
      <point x="933.0" y="193"/>
      <point x="840.0" y="193" type="curve"/>
      <point x="840.0" y="143" type="line"/>
      <point x="965.0" y="143"/>
      <point x="1033.0" y="211"/>
    </contour>
    <contour>
      <point x="311.0" y="336" type="line"/>
      <point x="361.0" y="336" type="line"/>
      <point x="361.0" y="672" type="line"/>
      <point x="311.0" y="672" type="line"/>
    </contour>
    <contour>
      <point x="311.0" y="479" type="line"/>
      <point x="504.0" y="479" type="line"/>
      <point x="504.0" y="529" type="line"/>
      <point x="311.0" y="529" type="line"/>
    </contour>
    <contour>
      <point x="504.0" y="479" type="line"/>
      <point x="840.0" y="479" type="line"/>
      <point x="840.0" y="529" type="line"/>
      <point x="504.0" y="529" type="line"/>
    </contour>
    <contour>
      <point x="1033.0" y="336" type="line"/>
      <point x="1033.0" y="461"/>
      <point x="965.0" y="529"/>
      <point x="840.0" y="529" type="curve"/>
      <point x="840.0" y="479" type="line"/>
      <point x="933.0" y="479"/>
      <point x="983.0" y="429"/>
      <point x="983.0" y="336" type="curve"/>
    </contour>
    <contour>
      <point x="361.0" y="672" type="line"/>
      <point x="361.0" y="797"/>
      <point x="293.0" y="865"/>
      <point x="168.0" y="865" type="curve"/>
      <point x="168.0" y="815" type="line"/>
      <point x="261.0" y="815"/>
      <point x="311.0" y="765"/>
      <point x="311.0" y="672" type="curve"/>
    </contour>
  </outline>
</glyph>
<glyph name="e" format="2">
  <advance width="1176.0"/>
  <unicode hex="0065"/>
  <outline>
    <contour>
      <point x="286.0" y="336" type="line"/>
      <point x="286.0" y="214"/>
      <point x="382.0" y="118"/>
      <point x="504.0" y="118" type="curve"/>
      <point x="504.0" y="218" type="line"/>
      <point x="438.0" y="218"/>
      <point x="386.0" y="270"/>
      <point x="386.0" y="336" type="curve"/>
    </contour>
    <contour>
      <point x="504.0" y="118" type="line"/>
      <point x="840.0" y="118" type="line"/>
      <point x="840.0" y="218" type="line"/>
      <point x="504.0" y="218" type="line"/>
    </contour>
    <contour>
      <point x="1058.0" y="336" type="curve"/>
      <point x="958.0" y="336" type="line"/>
      <point x="958.0" y="270"/>
      <point x="906.0" y="218"/>
      <point x="840.0" y="218" type="curve"/>
      <point x="840.0" y="118" type="line"/>
      <point x="962.0" y="118"/>
      <point x="1058.0" y="214"/>
    </contour>
    <contour>
      <point x="286.0" y="672" type="line"/>
      <point x="168.0" y="554" type="line"/>
      <point x="168.0" y="454" type="line"/>
      <point x="209.0" y="454" type="line"/>
      <point x="386.0" y="631" type="line"/>
      <point x="386.0" y="672" type="line"/>
    </contour>
    <contour>
      <point x="286.0" y="336" type="line"/>
      <point x="386.0" y="336" type="line"/>
      <point x="386.0" y="377" type="line"/>
      <point x="209.0" y="554" type="line"/>
      <point x="168.0" y="554" type="line"/>
      <point x="168.0" y="454" type="line"/>
    </contour>
    <contour>
      <point x="504.0" y="454" type="line"/>
      <point x="840.0" y="454" type="line"/>
      <point x="840.0" y="554" type="line"/>
      <point x="504.0" y="554" type="line"/>
    </contour>
    <contour>
      <point x="1058.0" y="672" type="curve"/>
      <point x="958.0" y="672" type="line"/>
      <point x="958.0" y="606"/>
      <point x="906.0" y="554"/>
      <point x="840.0" y="554" type="curve"/>
      <point x="840.0" y="454" type="line"/>
      <point x="962.0" y="454"/>
      <point x="1058.0" y="550"/>
    </contour>
    <contour>
      <point x="286.0" y="672" type="curve"/>
      <point x="386.0" y="672" type="line"/>
      <point x="386.0" y="738"/>
      <point x="438.0" y="790"/>
      <point x="504.0" y="790" type="curve"/>
      <point x="504.0" y="890" type="line"/>
      <point x="382.0" y="890"/>
      <point x="286.0" y="794"/>
    </contour>
    <contour>
      <point x="504.0" y="790" type="line"/>
      <point x="840.0" y="790" type="line"/>
      <point x="840.0" y="890" type="line"/>
      <point x="504.0" y="890" type="line"/>
    </contour>
    <contour>
      <point x="1058.0" y="672" type="line"/>
      <point x="1058.0" y="794"/>
      <point x="962.0" y="890"/>
      <point x="840.0" y="890" type="curve"/>
      <point x="840.0" y="790" type="line"/>
      <point x="906.0" y="790"/>
      <point x="958.0" y="738"/>
      <point x="958.0" y="672" type="curve"/>
    </contour>
  </outline>
</glyph>
<glyph name="g" format="2">
  <advance width="1176.0"/>
  <unicode hex="0067"/>
  <outline>
    <contour>
      <point x="118" y="336" type="line"/>
      <point x="118" y="214"/>
      <point x="214" y="118"/>
      <point x="336" y="118" type="curve"/>
      <point x="336" y="218" type="line"/>
      <point x="270" y="218"/>
      <point x="218" y="270"/>
      <point x="218" y="336" type="curve"/>
    </contour>
    <contour>
      <point x="336" y="118" type="line"/>
      <point x="672" y="118" type="line"/>
      <point x="672" y="218" type="line"/>
      <point x="336" y="218" type="line"/>
    </contour>
    <contour>
      <point x="672" y="118" type="line"/>
      <point x="1008" y="118" type="line"/>
      <point x="1008" y="218" type="line"/>
      <point x="672" y="218" type="line"/>
    </contour>
    <contour>
      <point x="790" y="118" type="line"/>
      <point x="890" y="118" type="line"/>
      <point x="890" y="336" type="line"/>
      <point x="790" y="336" type="line"/>
    </contour>
    <contour>
      <point x="118" y="336" type="line"/>
      <point x="218" y="336" type="line"/>
      <point x="218" y="672" type="line"/>
      <point x="118" y="672" type="line"/>
    </contour>
    <contour>
      <point x="454" y="454" type="line"/>
      <point x="672" y="454" type="line"/>
      <point x="672" y="554" type="line"/>
      <point x="454" y="554" type="line"/>
    </contour>
    <contour>
      <point x="672" y="454" type="line"/>
      <point x="890" y="454" type="line"/>
      <point x="890" y="554" type="line"/>
      <point x="672" y="554" type="line"/>
    </contour>
    <contour>
      <point x="790" y="336" type="line"/>
      <point x="890" y="336" type="line"/>
      <point x="890" y="554" type="line"/>
      <point x="790" y="554" type="line"/>
    </contour>
    <contour>
      <point x="218" y="672" type="line"/>
      <point x="336" y="790" type="line"/>
      <point x="336" y="890" type="line"/>
      <point x="295" y="890" type="line"/>
      <point x="118" y="713" type="line"/>
      <point x="118" y="672" type="line"/>
    </contour>
    <contour>
      <point x="336" y="790" type="line"/>
      <point x="672" y="790" type="line"/>
      <point x="672" y="890" type="line"/>
      <point x="336" y="890" type="line"/>
    </contour>
    <contour>
      <point x="890" y="672" type="line"/>
      <point x="890" y="794"/>
      <point x="794" y="890"/>
      <point x="672" y="890" type="curve"/>
      <point x="672" y="790" type="line"/>
      <point x="738" y="790"/>
      <point x="790" y="738"/>
      <point x="790" y="672" type="curve"/>
    </contour>
  </outline>
</glyph>
<glyph name="h" format="2">
  <advance width="1344.0"/>
  <unicode hex="0068"/>
  <outline>
    <contour>
      <point x="361.0" y="336" type="curve"/>
      <point x="311.0" y="336" type="line"/>
      <point x="311.0" y="243"/>
      <point x="261.0" y="193"/>
      <point x="168.0" y="193" type="curve"/>
      <point x="168.0" y="143" type="line"/>
      <point x="293.0" y="143"/>
      <point x="361.0" y="211"/>
    </contour>
    <contour>
      <point x="983.0" y="336" type="line"/>
      <point x="983.0" y="211"/>
      <point x="1051.0" y="143"/>
      <point x="1176.0" y="143" type="curve"/>
      <point x="1176.0" y="193" type="line"/>
      <point x="1083.0" y="193"/>
      <point x="1033.0" y="243"/>
      <point x="1033.0" y="336" type="curve"/>
    </contour>
    <contour>
      <point x="311.0" y="336" type="line"/>
      <point x="361.0" y="336" type="line"/>
      <point x="361.0" y="672" type="line"/>
      <point x="311.0" y="672" type="line"/>
    </contour>
    <contour>
      <point x="311.0" y="479" type="line"/>
      <point x="504.0" y="479" type="line"/>
      <point x="504.0" y="529" type="line"/>
      <point x="311.0" y="529" type="line"/>
    </contour>
    <contour>
      <point x="504.0" y="479" type="line"/>
      <point x="840.0" y="479" type="line"/>
      <point x="840.0" y="529" type="line"/>
      <point x="504.0" y="529" type="line"/>
    </contour>
    <contour>
      <point x="983.0" y="336" type="line"/>
      <point x="1033.0" y="336" type="line"/>
      <point x="1033.0" y="672" type="line"/>
      <point x="983.0" y="672" type="line"/>
    </contour>
    <contour>
      <point x="840.0" y="479" type="line"/>
      <point x="1033.0" y="479" type="line"/>
      <point x="1033.0" y="529" type="line"/>
      <point x="840.0" y="529" type="line"/>
    </contour>
    <contour>
      <point x="361.0" y="672" type="line"/>
      <point x="361.0" y="797"/>
      <point x="293.0" y="865"/>
      <point x="168.0" y="865" type="curve"/>
      <point x="168.0" y="815" type="line"/>
      <point x="261.0" y="815"/>
      <point x="311.0" y="765"/>
      <point x="311.0" y="672" type="curve"/>
    </contour>
    <contour>
      <point x="983.0" y="672" type="curve"/>
      <point x="1033.0" y="672" type="line"/>
      <point x="1033.0" y="765"/>
      <point x="1083.0" y="815"/>
      <point x="1176.0" y="815" type="curve"/>
      <point x="1176.0" y="865" type="line"/>
      <point x="1051.0" y="865"/>
      <point x="983.0" y="797"/>
    </contour>
  </outline>
</glyph>
<glyph name="j" format="2">
  <advance width="1176.0"/>
  <unicode hex="006A"/>
  <outline>
    <contour>
      <point x="143" y="336" type="line"/>
      <point x="143" y="211"/>
      <point x="211" y="143"/>
      <point x="336" y="143" type="curve"/>
      <point x="336" y="193" type="line"/>
      <point x="243" y="193"/>
      <point x="193" y="243"/>
      <point x="193" y="336" type="curve"/>
    </contour>
    <contour>
      <point x="336" y="143" type="line"/>
      <point x="672" y="143" type="line"/>
      <point x="672" y="193" type="line"/>
      <point x="336" y="193" type="line"/>
    </contour>
    <contour>
      <point x="865" y="336" type="curve"/>
      <point x="815" y="336" type="line"/>
      <point x="815" y="243"/>
      <point x="765" y="193"/>
      <point x="672" y="193" type="curve"/>
      <point x="672" y="143" type="line"/>
      <point x="797" y="143"/>
      <point x="865" y="211"/>
    </contour>
    <contour>
      <point x="143" y="336" type="line"/>
      <point x="193" y="336" type="line"/>
      <point x="193" y="529" type="line"/>
      <point x="143" y="529" type="line"/>
    </contour>
    <contour>
      <point x="815" y="336" type="line"/>
      <point x="865" y="336" type="line"/>
      <point x="865" y="672" type="line"/>
      <point x="815" y="672" type="line"/>
    </contour>
    <contour>
      <point x="479" y="815" type="line"/>
      <point x="672" y="815" type="line"/>
      <point x="672" y="865" type="line"/>
      <point x="479" y="865" type="line"/>
    </contour>
    <contour>
      <point x="672" y="815" type="line"/>
      <point x="1008" y="815" type="line"/>
      <point x="1008" y="865" type="line"/>
      <point x="672" y="865" type="line"/>
    </contour>
    <contour>
      <point x="815" y="672" type="line"/>
      <point x="865" y="672" type="line"/>
      <point x="865" y="865" type="line"/>
      <point x="815" y="865" type="line"/>
    </contour>
  </outline>
</glyph>
<glyph name="l" format="2">
  <advance width="1176.0"/>
  <unicode hex="006C"/>
  <outline>
    <contour>
      <point x="168.0" y="143" type="line"/>
      <point x="504.0" y="143" type="line"/>
      <point x="504.0" y="193" type="line"/>
      <point x="168.0" y="193" type="line"/>
    </contour>
    <contour>
      <point x="311.0" y="143" type="line"/>
      <point x="361.0" y="143" type="line"/>
      <point x="361.0" y="336" type="line"/>
      <point x="311.0" y="336" type="line"/>
    </contour>
    <contour>
      <point x="504.0" y="143" type="line"/>
      <point x="840.0" y="143" type="line"/>
      <point x="840.0" y="193" type="line"/>
      <point x="504.0" y="193" type="line"/>
    </contour>
    <contour>
      <point x="1033.0" y="336" type="curve"/>
      <point x="983.0" y="336" type="line"/>
      <point x="983.0" y="243"/>
      <point x="933.0" y="193"/>
      <point x="840.0" y="193" type="curve"/>
      <point x="840.0" y="143" type="line"/>
      <point x="965.0" y="143"/>
      <point x="1033.0" y="211"/>
    </contour>
    <contour>
      <point x="311.0" y="336" type="line"/>
      <point x="361.0" y="336" type="line"/>
      <point x="361.0" y="672" type="line"/>
      <point x="311.0" y="672" type="line"/>
    </contour>
    <contour>
      <point x="168.0" y="815" type="line"/>
      <point x="504.0" y="815" type="line"/>
      <point x="504.0" y="865" type="line"/>
      <point x="168.0" y="865" type="line"/>
    </contour>
    <contour>
      <point x="311.0" y="672" type="line"/>
      <point x="361.0" y="672" type="line"/>
      <point x="361.0" y="865" type="line"/>
      <point x="311.0" y="865" type="line"/>
    </contour>
    <contour>
      <point x="504.0" y="815" type="line"/>
      <point x="697.0" y="815" type="line"/>
      <point x="697.0" y="865" type="line"/>
      <point x="504.0" y="865" type="line"/>
    </contour>
  </outline>
</glyph>
<glyph name="o" format="2">
  <advance width="1344.0"/>
  <unicode hex="006F"/>
  <outline>
    <contour>
      <point x="311.0" y="336" type="line"/>
      <point x="168.0" y="193" type="line"/>
      <point x="168.0" y="143" type="line"/>
      <point x="189.0" y="143" type="line"/>
      <point x="361.0" y="315" type="line"/>
      <point x="361.0" y="336" type="line"/>
    </contour>
    <contour>
      <point x="361.0" y="336" type="line"/>
      <point x="311.0" y="336" type="line"/>
      <point x="311.0" y="315" type="line"/>
      <point x="483.0" y="143" type="line"/>
      <point x="504.0" y="143" type="line"/>
      <point x="504.0" y="193" type="line"/>
    </contour>
    <contour>
      <point x="504.0" y="143" type="line"/>
      <point x="840.0" y="143" type="line"/>
      <point x="840.0" y="193" type="line"/>
      <point x="504.0" y="193" type="line"/>
    </contour>
    <contour>
      <point x="983.0" y="336" type="line"/>
      <point x="840.0" y="193" type="line"/>
      <point x="840.0" y="143" type="line"/>
      <point x="861.0" y="143" type="line"/>
      <point x="1033.0" y="315" type="line"/>
      <point x="1033.0" y="336" type="line"/>
    </contour>
    <contour>
      <point x="1033.0" y="336" type="line"/>
      <point x="983.0" y="336" type="line"/>
      <point x="983.0" y="315" type="line"/>
      <point x="1155.0" y="143" type="line"/>
      <point x="1176.0" y="143" type="line"/>
      <point x="1176.0" y="193" type="line"/>
    </contour>
    <contour>
      <point x="311.0" y="336" type="line"/>
      <point x="361.0" y="336" type="line"/>
      <point x="361.0" y="672" type="line"/>
      <point x="311.0" y="672" type="line"/>
    </contour>
    <contour>
      <point x="983.0" y="336" type="line"/>
      <point x="1033.0" y="336" type="line"/>
      <point x="1033.0" y="672" type="line"/>
      <point x="983.0" y="672" type="line"/>
    </contour>
    <contour>
      <point x="311.0" y="672" type="line"/>
      <point x="361.0" y="672" type="line"/>
      <point x="361.0" y="693" type="line"/>
      <point x="189.0" y="865" type="line"/>
      <point x="168.0" y="865" type="line"/>
      <point x="168.0" y="815" type="line"/>
    </contour>
    <contour>
      <point x="361.0" y="672" type="line"/>
      <point x="504.0" y="815" type="line"/>
      <point x="504.0" y="865" type="line"/>
      <point x="483.0" y="865" type="line"/>
      <point x="311.0" y="693" type="line"/>
      <point x="311.0" y="672" type="line"/>
    </contour>
    <contour>
      <point x="504.0" y="815" type="line"/>
      <point x="840.0" y="815" type="line"/>
      <point x="840.0" y="865" type="line"/>
      <point x="504.0" y="865" type="line"/>
    </contour>
    <contour>
      <point x="983.0" y="672" type="line"/>
      <point x="1033.0" y="672" type="line"/>
      <point x="1033.0" y="693" type="line"/>
      <point x="861.0" y="865" type="line"/>
      <point x="840.0" y="865" type="line"/>
      <point x="840.0" y="815" type="line"/>
    </contour>
    <contour>
      <point x="1033.0" y="672" type="line"/>
      <point x="1176.0" y="815" type="line"/>
      <point x="1176.0" y="865" type="line"/>
      <point x="1155.0" y="865" type="line"/>
      <point x="983.0" y="693" type="line"/>
      <point x="983.0" y="672" type="line"/>
    </contour>
  </outline>
</glyph>
<glyph name="p" format="2">
  <advance width="1008"/>
  <unicode hex="0070"/>
  <outline>
    <contour>
      <point x="143" y="143" type="line"/>
      <point x="193" y="143" type="line"/>
      <point x="193" y="336" type="line"/>
      <point x="143" y="336" type="line"/>
    </contour>
    <contour>
      <point x="193" y="672" type="line"/>
      <point x="143" y="672" type="line"/>
      <point x="143" y="651" type="line"/>
      <point x="315" y="479" type="line"/>
      <point x="336" y="479" type="line"/>
      <point x="336" y="529" type="line"/>
    </contour>
    <contour>
      <point x="193" y="336" type="line"/>
      <point x="336" y="479" type="line"/>
      <point x="336" y="529" type="line"/>
      <point x="315" y="529" type="line"/>
      <point x="143" y="357" type="line"/>
      <point x="143" y="336" type="line"/>
    </contour>
    <contour>
      <point x="336" y="479" type="line"/>
      <point x="672" y="479" type="line"/>
      <point x="672" y="529" type="line"/>
      <point x="336" y="529" type="line"/>
    </contour>
    <contour>
      <point x="815" y="672" type="line"/>
      <point x="672" y="529" type="line"/>
      <point x="672" y="479" type="line"/>
      <point x="693" y="479" type="line"/>
      <point x="865" y="651" type="line"/>
      <point x="865" y="672" type="line"/>
    </contour>
    <contour>
      <point x="193" y="672" type="line"/>
      <point x="336" y="815" type="line"/>
      <point x="336" y="865" type="line"/>
      <point x="315" y="865" type="line"/>
      <point x="143" y="693" type="line"/>
      <point x="143" y="672" type="line"/>
    </contour>
    <contour>
      <point x="336" y="815" type="line"/>
      <point x="672" y="815" type="line"/>
      <point x="672" y="865" type="line"/>
      <point x="336" y="865" type="line"/>
    </contour>
    <contour>
      <point x="815" y="672" type="line"/>
      <point x="865" y="672" type="line"/>
      <point x="865" y="693" type="line"/>
      <point x="693" y="865" type="line"/>
      <point x="672" y="865" type="line"/>
      <point x="672" y="815" type="line"/>
    </contour>
  </outline>
</glyph>
<glyph name="q" format="2">
  <advance width="1176.0"/>
  <unicode hex="0071"/>
  <outline>
    <contour>
      <point x="193" y="336" type="line"/>
      <point x="143" y="336" type="line"/>
      <point x="143" y="315" type="line"/>
      <point x="315" y="143" type="line"/>
      <point x="336" y="143" type="line"/>
      <point x="336" y="193" type="line"/>
    </contour>
    <contour>
      <point x="336" y="143" type="line"/>
      <point x="672" y="143" type="line"/>
      <point x="672" y="193" type="line"/>
      <point x="336" y="193" type="line"/>
    </contour>
    <contour>
      <point x="815" y="0" type="line"/>
      <point x="865" y="0" type="line"/>
      <point x="865" y="21" type="line"/>
      <point x="693" y="193" type="line"/>
      <point x="672" y="193" type="line"/>
      <point x="672" y="143" type="line"/>
    </contour>
    <contour>
      <point x="865" y="0" type="line"/>
      <point x="1008" y="143" type="line"/>
      <point x="1008" y="193" type="line"/>
      <point x="987" y="193" type="line"/>
      <point x="815" y="21" type="line"/>
      <point x="815" y="0" type="line"/>
    </contour>
    <contour>
      <point x="143" y="336" type="line"/>
      <point x="193" y="336" type="line"/>
      <point x="193" y="672" type="line"/>
      <point x="143" y="672" type="line"/>
    </contour>
    <contour>
      <point x="815" y="336" type="line"/>
      <point x="865" y="336" type="line"/>
      <point x="865" y="672" type="line"/>
      <point x="815" y="672" type="line"/>
    </contour>
    <contour>
      <point x="193" y="672" type="line"/>
      <point x="336" y="815" type="line"/>
      <point x="336" y="865" type="line"/>
      <point x="315" y="865" type="line"/>
      <point x="143" y="693" type="line"/>
      <point x="143" y="672" type="line"/>
    </contour>
    <contour>
      <point x="336" y="815" type="line"/>
      <point x="672" y="815" type="line"/>
      <point x="672" y="865" type="line"/>
      <point x="336" y="865" type="line"/>
    </contour>
    <contour>
      <point x="815" y="672" type="line"/>
      <point x="865" y="672" type="line"/>
      <point x="865" y="693" type="line"/>
      <point x="693" y="865" type="line"/>
      <point x="672" y="865" type="line"/>
      <point x="672" y="815" type="line"/>
    </contour>
  </outline>
</glyph>
<glyph name="t" format="2">
  <advance width="1008"/>
  <unicode hex="0074"/>
  <outline>
    <contour>
      <point x="479" y="143" type="line"/>
      <point x="529" y="143" type="line"/>
      <point x="529" y="336" type="line"/>
      <point x="479" y="336" type="line"/>
    </contour>
    <contour>
      <point x="479" y="336" type="line"/>
      <point x="529" y="336" type="line"/>
      <point x="529" y="672" type="line"/>
      <point x="479" y="672" type="line"/>
    </contour>
    <contour>
      <point x="143" y="815" type="line"/>
      <point x="336" y="815" type="line"/>
      <point x="336" y="865" type="line"/>
      <point x="143" y="865" type="line"/>
    </contour>
    <contour>
      <point x="143" y="672" type="line"/>
      <point x="193" y="672" type="line"/>
      <point x="193" y="865" type="line"/>
      <point x="143" y="865" type="line"/>
    </contour>
    <contour>
      <point x="479" y="672" type="line"/>
      <point x="529" y="672" type="line"/>
      <point x="529" y="693" type="line"/>
      <point x="357" y="865" type="line"/>
      <point x="336" y="865" type="line"/>
      <point x="336" y="815" type="line"/>
    </contour>
    <contour>
      <point x="529" y="672" type="line"/>
      <point x="672" y="815" type="line"/>
      <point x="672" y="865" type="line"/>
      <point x="651" y="865" type="line"/>
      <point x="479" y="693" type="line"/>
      <point x="479" y="672" type="line"/>
    </contour>
    <contour>
      <point x="672" y="815" type="line"/>
      <point x="865" y="815" type="line"/>
      <point x="865" y="865" type="line"/>
      <point x="672" y="865" type="line"/>
    </contour>
    <contour>
      <point x="815" y="672" type="line"/>
      <point x="865" y="672" type="line"/>
      <point x="865" y="865" type="line"/>
      <point x="815" y="865" type="line"/>
    </contour>
  </outline>
</glyph>
<glyph name="eacute" format="2">
  <advance width="1008"/>
  <unicode hex="00E9"/>
  <outline>
    <contour>
      <point x="143" y="143" type="line"/>
      <point x="336" y="143" type="line"/>
      <point x="336" y="193" type="line"/>
      <point x="143" y="193" type="line"/>
    </contour>
    <contour>
      <point x="143" y="143" type="line"/>
      <point x="193" y="143" type="line"/>
      <point x="193" y="336" type="line"/>
      <point x="143" y="336" type="line"/>
    </contour>
    <contour>
      <point x="336" y="143" type="line"/>
      <point x="672" y="143" type="line"/>
      <point x="672" y="193" type="line"/>
      <point x="336" y="193" type="line"/>
    </contour>
    <contour>
      <point x="672" y="143" type="line"/>
      <point x="865" y="143" type="line"/>
      <point x="865" y="193" type="line"/>
      <point x="672" y="193" type="line"/>
    </contour>
    <contour>
      <point x="143" y="336" type="curve"/>
      <point x="193" y="336" type="line"/>
      <point x="193" y="429"/>
      <point x="243" y="479"/>
      <point x="336" y="479" type="curve"/>
      <point x="336" y="529" type="line"/>
      <point x="211" y="529"/>
      <point x="143" y="461"/>
    </contour>
    <contour>
      <point x="336" y="479" type="line"/>
      <point x="672" y="479" type="line"/>
      <point x="672" y="529" type="line"/>
      <point x="336" y="529" type="line"/>
    </contour>
    <contour>
      <point x="672" y="479" type="line"/>
      <point x="865" y="479" type="line"/>
      <point x="865" y="529" type="line"/>
      <point x="672" y="529" type="line"/>
    </contour>
    <contour>
      <point x="815" y="336" type="line"/>
      <point x="865" y="336" type="line"/>
      <point x="865" y="529" type="line"/>
      <point x="815" y="529" type="line"/>
    </contour>
    <contour>
      <point x="336" y="815" type="line"/>
      <point x="672" y="815" type="line"/>
      <point x="672" y="865" type="line"/>
      <point x="336" y="865" type="line"/>
    </contour>
    <contour>
      <point x="815" y="1008" type="line"/>
      <point x="672" y="865" type="line"/>
      <point x="672" y="815" type="line"/>
      <point x="693" y="815" type="line"/>
      <point x="865" y="987" type="line"/>
      <point x="865" y="1008" type="line"/>
    </contour>
  </outline>
</glyph>
<glyph name="igrave" format="2">
  <advance width="1008"/>
  <unicode hex="00EC"/>
  <outline>
    <contour>
      <point x="336" y="143" type="line"/>
      <point x="672" y="143" type="line"/>
      <point x="672" y="193" type="line"/>
      <point x="336" y="193" type="line"/>
    </contour>
    <contour>
      <point x="479" y="143" type="line"/>
      <point x="529" y="143" type="line"/>
      <point x="529" y="336" type="line"/>
      <point x="479" y="336" type="line"/>
    </contour>
    <contour>
      <point x="336" y="479" type="line"/>
      <point x="529" y="479" type="line"/>
      <point x="529" y="529" type="line"/>
      <point x="336" y="529" type="line"/>
    </contour>
    <contour>
      <point x="479" y="336" type="line"/>
      <point x="529" y="336" type="line"/>
      <point x="529" y="529" type="line"/>
      <point x="479" y="529" type="line"/>
    </contour>
    <contour>
      <point x="193" y="1008" type="line"/>
      <point x="143" y="1008" type="line"/>
      <point x="143" y="987" type="line"/>
      <point x="315" y="815" type="line"/>
      <point x="336" y="815" type="line"/>
      <point x="336" y="865" type="line"/>
    </contour>
    <contour>
      <point x="336" y="815" type="line"/>
      <point x="672" y="815" type="line"/>
      <point x="672" y="865" type="line"/>
      <point x="336" y="865" type="line"/>
    </contour>
  </outline>
</glyph>
<glyph name="iacute" format="2">
  <advance width="1008"/>
  <unicode hex="00ED"/>
  <outline>
    <contour>
      <point x="336" y="143" type="line"/>
      <point x="672" y="143" type="line"/>
      <point x="672" y="193" type="line"/>
      <point x="336" y="193" type="line"/>
    </contour>
    <contour>
      <point x="479" y="143" type="line"/>
      <point x="529" y="143" type="line"/>
      <point x="529" y="336" type="line"/>
      <point x="479" y="336" type="line"/>
    </contour>
    <contour>
      <point x="336" y="479" type="line"/>
      <point x="529" y="479" type="line"/>
      <point x="529" y="529" type="line"/>
      <point x="336" y="529" type="line"/>
    </contour>
    <contour>
      <point x="479" y="336" type="line"/>
      <point x="529" y="336" type="line"/>
      <point x="529" y="529" type="line"/>
      <point x="479" y="529" type="line"/>
    </contour>
    <contour>
      <point x="336" y="815" type="line"/>
      <point x="672" y="815" type="line"/>
      <point x="672" y="865" type="line"/>
      <point x="336" y="865" type="line"/>
    </contour>
    <contour>
      <point x="815" y="1008" type="line"/>
      <point x="672" y="865" type="line"/>
      <point x="672" y="815" type="line"/>
      <point x="693" y="815" type="line"/>
      <point x="865" y="987" type="line"/>
      <point x="865" y="1008" type="line"/>
    </contour>
  </outline>
</glyph>
<glyph name="ugrave" format="2">
  <advance width="1344.0"/>
  <unicode hex="00F9"/>
  <outline>
    <contour>
      <point x="311.0" y="336" type="line"/>
      <point x="311.0" y="211"/>
      <point x="379.0" y="143"/>
      <point x="504.0" y="143" type="curve"/>
      <point x="504.0" y="193" type="line"/>
      <point x="411.0" y="193"/>
      <point x="361.0" y="243"/>
      <point x="361.0" y="336" type="curve"/>
    </contour>
    <contour>
      <point x="504.0" y="143" type="line"/>
      <point x="840.0" y="143" type="line"/>
      <point x="840.0" y="193" type="line"/>
      <point x="504.0" y="193" type="line"/>
    </contour>
    <contour>
      <point x="840.0" y="143" type="line"/>
      <point x="1176.0" y="143" type="line"/>
      <point x="1176.0" y="193" type="line"/>
      <point x="840.0" y="193" type="line"/>
    </contour>
    <contour>
      <point x="983.0" y="143" type="line"/>
      <point x="1033.0" y="143" type="line"/>
      <point x="1033.0" y="336" type="line"/>
      <point x="983.0" y="336" type="line"/>
    </contour>
    <contour>
      <point x="168.0" y="479" type="line"/>
      <point x="361.0" y="479" type="line"/>
      <point x="361.0" y="529" type="line"/>
      <point x="168.0" y="529" type="line"/>
    </contour>
    <contour>
      <point x="311.0" y="336" type="line"/>
      <point x="361.0" y="336" type="line"/>
      <point x="361.0" y="529" type="line"/>
      <point x="311.0" y="529" type="line"/>
    </contour>
    <contour>
      <point x="840.0" y="479" type="line"/>
      <point x="1033.0" y="479" type="line"/>
      <point x="1033.0" y="529" type="line"/>
      <point x="840.0" y="529" type="line"/>
    </contour>
    <contour>
      <point x="983.0" y="336" type="line"/>
      <point x="1033.0" y="336" type="line"/>
      <point x="1033.0" y="529" type="line"/>
      <point x="983.0" y="529" type="line"/>
    </contour>
    <contour>
      <point x="361.0" y="1008" type="line"/>
      <point x="311.0" y="1008" type="line"/>
      <point x="311.0" y="987" type="line"/>
      <point x="483.0" y="815" type="line"/>
      <point x="504.0" y="815" type="line"/>
      <point x="504.0" y="865" type="line"/>
    </contour>
    <contour>
      <point x="504.0" y="815" type="line"/>
      <point x="840.0" y="815" type="line"/>
      <point x="840.0" y="865" type="line"/>
      <point x="504.0" y="865" type="line"/>
    </contour>
  </outline>
</glyph>
<glyph name="arrowright" format="2">
  <advance width="1176.0"/>
  <unicode hex="2192"/>
  <outline>
    <contour>
      <point x="790" y="336" type="line"/>
      <point x="672" y="218" type="line"/>
      <point x="672" y="118" type="line"/>
      <point x="713" y="118" type="line"/>
      <point x="890" y="295" type="line"/>
      <point x="890" y="336" type="line"/>
    </contour>
    <contour>
      <point x="118" y="336" type="line"/>
      <point x="218" y="336" type="line"/>
      <point x="218" y="672" type="line"/>
      <point x="118" y="672" type="line"/>
    </contour>
    <contour>
      <point x="118" y="454" type="line"/>
      <point x="336" y="454" type="line"/>
      <point x="336" y="554" type="line"/>
      <point x="118" y="554" type="line"/>
    </contour>
    <contour>
      <point x="336" y="454" type="line"/>
      <point x="672" y="454" type="line"/>
      <point x="672" y="554" type="line"/>
      <point x="336" y="554" type="line"/>
    </contour>
    <contour>
      <point x="890" y="672" type="line"/>
      <point x="790" y="672" type="line"/>
      <point x="790" y="631" type="line"/>
      <point x="967" y="454" type="line"/>
      <point x="1008" y="454" type="line"/>
      <point x="1008" y="554" type="line"/>
    </contour>
    <contour>
      <point x="890" y="336" type="line"/>
      <point x="1008" y="454" type="line"/>
      <point x="1008" y="554" type="line"/>
      <point x="967" y="554" type="line"/>
      <point x="790" y="377" type="line"/>
      <point x="790" y="336" type="line"/>
    </contour>
    <contour>
      <point x="790" y="672" type="line"/>
      <point x="890" y="672" type="line"/>
      <point x="890" y="713" type="line"/>
      <point x="713" y="890" type="line"/>
      <point x="672" y="890" type="line"/>
      <point x="672" y="790" type="line"/>
    </contour>
  </outline>
</glyph>
<glyph name="arrowdown" format="2">
  <advance width="1008"/>
  <unicode hex="2193"/>
  <outline>
    <contour>
      <point x="193" y="336" type="line"/>
      <point x="143" y="336" type="line"/>
      <point x="143" y="315" type="line"/>
      <point x="315" y="143" type="line"/>
      <point x="336" y="143" type="line"/>
      <point x="336" y="193" type="line"/>
    </contour>
    <contour>
      <point x="479" y="0" type="line"/>
      <point x="529" y="0" type="line"/>
      <point x="529" y="21" type="line"/>
      <point x="357" y="193" type="line"/>
      <point x="336" y="193" type="line"/>
      <point x="336" y="143" type="line"/>
    </contour>
    <contour>
      <point x="529" y="0" type="line"/>
      <point x="672" y="143" type="line"/>
      <point x="672" y="193" type="line"/>
      <point x="651" y="193" type="line"/>
      <point x="479" y="21" type="line"/>
      <point x="479" y="0" type="line"/>
    </contour>
    <contour>
      <point x="815" y="336" type="line"/>
      <point x="672" y="193" type="line"/>
      <point x="672" y="143" type="line"/>
      <point x="693" y="143" type="line"/>
      <point x="865" y="315" type="line"/>
      <point x="865" y="336" type="line"/>
    </contour>
    <contour>
      <point x="479" y="336" type="line"/>
      <point x="529" y="336" type="line"/>
      <point x="529" y="672" type="line"/>
      <point x="479" y="672" type="line"/>
    </contour>
    <contour>
      <point x="336" y="815" type="line"/>
      <point x="672" y="815" type="line"/>
      <point x="672" y="865" type="line"/>
      <point x="336" y="865" type="line"/>
    </contour>
    <contour>
      <point x="479" y="672" type="line"/>
      <point x="529" y="672" type="line"/>
      <point x="529" y="865" type="line"/>
      <point x="479" y="865" type="line"/>
    </contour>
  </outline>
</glyph>
<glyph name="a.alt1.ss03" format="2">
  <advance width="1176.0"/>
  <outline>
    <contour>
      <point x="118" y="336" type="line"/>
      <point x="118" y="194"/>
      <point x="194" y="118"/>
      <point x="336" y="118" type="curve"/>
      <point x="336" y="218" type="line"/>
      <point x="259" y="218"/>
      <point x="218" y="259"/>
      <point x="218" y="336" type="curve"/>
    </contour>
    <contour>
      <point x="336" y="118" type="line"/>
      <point x="672" y="118" type="line"/>
      <point x="672" y="218" type="line"/>
      <point x="336" y="218" type="line"/>
    </contour>
    <contour>
      <point x="790" y="336" type="line"/>
      <point x="672" y="218" type="line"/>
      <point x="672" y="118" type="line"/>
      <point x="713" y="118" type="line"/>
      <point x="890" y="295" type="line"/>
      <point x="890" y="336" type="line"/>
    </contour>
    <contour>
      <point x="890" y="336" type="line"/>
      <point x="790" y="336" type="line"/>
      <point x="790" y="295" type="line"/>
      <point x="967" y="118" type="line"/>
      <point x="1008" y="118" type="line"/>
      <point x="1008" y="218" type="line"/>
    </contour>
    <contour>
      <point x="130" y="336" type="curve"/>
      <point x="206" y="336" type="line"/>
      <point x="206" y="421"/>
      <point x="251" y="466"/>
      <point x="336" y="466" type="curve"/>
      <point x="336" y="542" type="line"/>
      <point x="202" y="542"/>
      <point x="130" y="470"/>
    </contour>
    <contour>
      <point x="336" y="466" type="line"/>
      <point x="672" y="466" type="line"/>
      <point x="672" y="542" type="line"/>
      <point x="336" y="542" type="line"/>
    </contour>
    <contour>
      <point x="802" y="336" type="line"/>
      <point x="878" y="336" type="line"/>
      <point x="878" y="672" type="line"/>
      <point x="802" y="672" type="line"/>
    </contour>
    <contour>
      <point x="672" y="466" type="line"/>
      <point x="878" y="466" type="line"/>
      <point x="878" y="542" type="line"/>
      <point x="672" y="542" type="line"/>
    </contour>
    <contour>
      <point x="143" y="672" type="curve"/>
      <point x="193" y="672" type="line"/>
      <point x="193" y="765"/>
      <point x="243" y="815"/>
      <point x="336" y="815" type="curve"/>
      <point x="336" y="865" type="line"/>
      <point x="211" y="865"/>
      <point x="143" y="797"/>
    </contour>
    <contour>
      <point x="336" y="815" type="line"/>
      <point x="672" y="815" type="line"/>
      <point x="672" y="865" type="line"/>
      <point x="336" y="865" type="line"/>
    </contour>
    <contour>
      <point x="865" y="672" type="line"/>
      <point x="865" y="797"/>
      <point x="797" y="865"/>
      <point x="672" y="865" type="curve"/>
      <point x="672" y="815" type="line"/>
      <point x="765" y="815"/>
      <point x="815" y="765"/>
      <point x="815" y="672" type="curve"/>
    </contour>
  </outline>
</glyph>
<glyph name="a.alt1.ss05" format="2">
  <advance width="1512.0"/>
  <outline>
    <contour>
      <point x="143" y="336" type="line"/>
      <point x="143" y="211"/>
      <point x="211" y="143"/>
      <point x="336" y="143" type="curve"/>
      <point x="336" y="193" type="line"/>
      <point x="243" y="193"/>
      <point x="193" y="243"/>
      <point x="193" y="336" type="curve"/>
    </contour>
    <contour>
      <point x="336" y="143" type="line"/>
      <point x="1008" y="143" type="line"/>
      <point x="1008" y="193" type="line"/>
      <point x="336" y="193" type="line"/>
    </contour>
    <contour>
      <point x="1151" y="336" type="line"/>
      <point x="1008" y="193" type="line"/>
      <point x="1008" y="143" type="line"/>
      <point x="1029" y="143" type="line"/>
      <point x="1201" y="315" type="line"/>
      <point x="1201" y="336" type="line"/>
    </contour>
    <contour>
      <point x="1201" y="336" type="line"/>
      <point x="1151" y="336" type="line"/>
      <point x="1151" y="315" type="line"/>
      <point x="1323" y="143" type="line"/>
      <point x="1344" y="143" type="line"/>
      <point x="1344" y="193" type="line"/>
    </contour>
    <contour>
      <point x="143" y="336" type="curve"/>
      <point x="193" y="336" type="line"/>
      <point x="193" y="429"/>
      <point x="243" y="479"/>
      <point x="336" y="479" type="curve"/>
      <point x="336" y="529" type="line"/>
      <point x="211" y="529"/>
      <point x="143" y="461"/>
    </contour>
    <contour>
      <point x="336" y="479" type="line"/>
      <point x="1008" y="479" type="line"/>
      <point x="1008" y="529" type="line"/>
      <point x="336" y="529" type="line"/>
    </contour>
    <contour>
      <point x="1151" y="336" type="line"/>
      <point x="1201" y="336" type="line"/>
      <point x="1201" y="672" type="line"/>
      <point x="1151" y="672" type="line"/>
    </contour>
    <contour>
      <point x="1008" y="479" type="line"/>
      <point x="1201" y="479" type="line"/>
      <point x="1201" y="529" type="line"/>
      <point x="1008" y="529" type="line"/>
    </contour>
    <contour>
      <point x="143" y="672" type="curve"/>
      <point x="193" y="672" type="line"/>
      <point x="193" y="765"/>
      <point x="243" y="815"/>
      <point x="336" y="815" type="curve"/>
      <point x="336" y="865" type="line"/>
      <point x="211" y="865"/>
      <point x="143" y="797"/>
    </contour>
    <contour>
      <point x="336" y="815" type="line"/>
      <point x="1008" y="815" type="line"/>
      <point x="1008" y="865" type="line"/>
      <point x="336" y="865" type="line"/>
    </contour>
    <contour>
      <point x="1201" y="672" type="line"/>
      <point x="1201" y="797"/>
      <point x="1133" y="865"/>
      <point x="1008" y="865" type="curve"/>
      <point x="1008" y="815" type="line"/>
      <point x="1101" y="815"/>
      <point x="1151" y="765"/>
      <point x="1151" y="672" type="curve"/>
    </contour>
  </outline>
</glyph>
<glyph name="a.alt1.ss07" format="2">
  <advance width="2184.0"/>
  <outline>
    <contour>
      <point x="143" y="336" type="line"/>
      <point x="143" y="211"/>
      <point x="211" y="143"/>
      <point x="336" y="143" type="curve"/>
      <point x="336" y="193" type="line"/>
      <point x="243" y="193"/>
      <point x="193" y="243"/>
      <point x="193" y="336" type="curve"/>
    </contour>
    <contour>
      <point x="336" y="143" type="line"/>
      <point x="1680" y="143" type="line"/>
      <point x="1680" y="193" type="line"/>
      <point x="336" y="193" type="line"/>
    </contour>
    <contour>
      <point x="1823" y="336" type="line"/>
      <point x="1680" y="193" type="line"/>
      <point x="1680" y="143" type="line"/>
      <point x="1701" y="143" type="line"/>
      <point x="1873" y="315" type="line"/>
      <point x="1873" y="336" type="line"/>
    </contour>
    <contour>
      <point x="1873" y="336" type="line"/>
      <point x="1823" y="336" type="line"/>
      <point x="1823" y="315" type="line"/>
      <point x="1995" y="143" type="line"/>
      <point x="2016" y="143" type="line"/>
      <point x="2016" y="193" type="line"/>
    </contour>
    <contour>
      <point x="143" y="336" type="curve"/>
      <point x="193" y="336" type="line"/>
      <point x="193" y="429"/>
      <point x="243" y="479"/>
      <point x="336" y="479" type="curve"/>
      <point x="336" y="529" type="line"/>
      <point x="211" y="529"/>
      <point x="143" y="461"/>
    </contour>
    <contour>
      <point x="336" y="479" type="line"/>
      <point x="1680" y="479" type="line"/>
      <point x="1680" y="529" type="line"/>
      <point x="336" y="529" type="line"/>
    </contour>
    <contour>
      <point x="1823" y="336" type="line"/>
      <point x="1873" y="336" type="line"/>
      <point x="1873" y="672" type="line"/>
      <point x="1823" y="672" type="line"/>
    </contour>
    <contour>
      <point x="1680" y="479" type="line"/>
      <point x="1873" y="479" type="line"/>
      <point x="1873" y="529" type="line"/>
      <point x="1680" y="529" type="line"/>
    </contour>
    <contour>
      <point x="143" y="672" type="curve"/>
      <point x="193" y="672" type="line"/>
      <point x="193" y="765"/>
      <point x="243" y="815"/>
      <point x="336" y="815" type="curve"/>
      <point x="336" y="865" type="line"/>
      <point x="211" y="865"/>
      <point x="143" y="797"/>
    </contour>
    <contour>
      <point x="336" y="815" type="line"/>
      <point x="1680" y="815" type="line"/>
      <point x="1680" y="865" type="line"/>
      <point x="336" y="865" type="line"/>
    </contour>
    <contour>
      <point x="1873" y="672" type="line"/>
      <point x="1873" y="797"/>
      <point x="1805" y="865"/>
      <point x="1680" y="865" type="curve"/>
      <point x="1680" y="815" type="line"/>
      <point x="1773" y="815"/>
      <point x="1823" y="765"/>
      <point x="1823" y="672" type="curve"/>
    </contour>
  </outline>
</glyph>
<glyph name="a.alt2" format="2">
  <advance width="1344.0"/>
  <outline>
    <contour>
      <point x="361.0" y="336" type="curve"/>
      <point x="311.0" y="336" type="line"/>
      <point x="311.0" y="243"/>
      <point x="261.0" y="193"/>
      <point x="168.0" y="193" type="curve"/>
      <point x="168.0" y="143" type="line"/>
      <point x="293.0" y="143"/>
      <point x="361.0" y="211"/>
    </contour>
    <contour>
      <point x="983.0" y="336" type="line"/>
      <point x="983.0" y="211"/>
      <point x="1051.0" y="143"/>
      <point x="1176.0" y="143" type="curve"/>
      <point x="1176.0" y="193" type="line"/>
      <point x="1083.0" y="193"/>
      <point x="1033.0" y="243"/>
      <point x="1033.0" y="336" type="curve"/>
    </contour>
    <contour>
      <point x="311.0" y="336" type="line"/>
      <point x="361.0" y="336" type="line"/>
      <point x="361.0" y="672" type="line"/>
      <point x="311.0" y="672" type="line"/>
    </contour>
    <contour>
      <point x="647.0" y="336" type="line"/>
      <point x="697.0" y="336" type="line"/>
      <point x="697.0" y="357" type="line"/>
      <point x="525.0" y="529" type="line"/>
      <point x="504.0" y="529" type="line"/>
      <point x="504.0" y="479" type="line"/>
    </contour>
    <contour>
      <point x="697.0" y="336" type="line"/>
      <point x="840.0" y="479" type="line"/>
      <point x="840.0" y="529" type="line"/>
      <point x="819.0" y="529" type="line"/>
      <point x="647.0" y="357" type="line"/>
      <point x="647.0" y="336" type="line"/>
    </contour>
    <contour>
      <point x="983.0" y="336" type="line"/>
      <point x="1033.0" y="336" type="line"/>
      <point x="1033.0" y="672" type="line"/>
      <point x="983.0" y="672" type="line"/>
    </contour>
    <contour>
      <point x="361.0" y="672" type="line"/>
      <point x="504.0" y="815" type="line"/>
      <point x="504.0" y="865" type="line"/>
      <point x="483.0" y="865" type="line"/>
      <point x="311.0" y="693" type="line"/>
      <point x="311.0" y="672" type="line"/>
    </contour>
    <contour>
      <point x="504.0" y="815" type="line"/>
      <point x="840.0" y="815" type="line"/>
      <point x="840.0" y="865" type="line"/>
      <point x="504.0" y="865" type="line"/>
    </contour>
    <contour>
      <point x="983.0" y="672" type="line"/>
      <point x="1033.0" y="672" type="line"/>
      <point x="1033.0" y="693" type="line"/>
      <point x="861.0" y="865" type="line"/>
      <point x="840.0" y="865" type="line"/>
      <point x="840.0" y="815" type="line"/>
    </contour>
  </outline>
</glyph>
<glyph name="a.alt2.ss01" format="2">
  <advance width="1344.0"/>
  <outline>
    <contour>
      <point x="386.0" y="336" type="curve"/>
      <point x="286.0" y="336" type="line"/>
      <point x="286.0" y="270"/>
      <point x="234.0" y="218"/>
      <point x="168.0" y="218" type="curve"/>
      <point x="168.0" y="118" type="line"/>
      <point x="290.0" y="118"/>
      <point x="386.0" y="214"/>
    </contour>
    <contour>
      <point x="958.0" y="336" type="line"/>
      <point x="958.0" y="214"/>
      <point x="1054.0" y="118"/>
      <point x="1176.0" y="118" type="curve"/>
      <point x="1176.0" y="218" type="line"/>
      <point x="1110.0" y="218"/>
      <point x="1058.0" y="270"/>
      <point x="1058.0" y="336" type="curve"/>
    </contour>
    <contour>
      <point x="286.0" y="336" type="line"/>
      <point x="386.0" y="336" type="line"/>
      <point x="386.0" y="672" type="line"/>
      <point x="286.0" y="672" type="line"/>
    </contour>
    <contour>
      <point x="622.0" y="336" type="line"/>
      <point x="722.0" y="336" type="line"/>
      <point x="722.0" y="377" type="line"/>
      <point x="545.0" y="554" type="line"/>
      <point x="504.0" y="554" type="line"/>
      <point x="504.0" y="454" type="line"/>
    </contour>
    <contour>
      <point x="722.0" y="336" type="line"/>
      <point x="840.0" y="454" type="line"/>
      <point x="840.0" y="554" type="line"/>
      <point x="799.0" y="554" type="line"/>
      <point x="622.0" y="377" type="line"/>
      <point x="622.0" y="336" type="line"/>
    </contour>
    <contour>
      <point x="958.0" y="336" type="line"/>
      <point x="1058.0" y="336" type="line"/>
      <point x="1058.0" y="672" type="line"/>
      <point x="958.0" y="672" type="line"/>
    </contour>
    <contour>
      <point x="386.0" y="672" type="line"/>
      <point x="504.0" y="790" type="line"/>
      <point x="504.0" y="890" type="line"/>
      <point x="463.0" y="890" type="line"/>
      <point x="286.0" y="713" type="line"/>
      <point x="286.0" y="672" type="line"/>
    </contour>
    <contour>
      <point x="504.0" y="790" type="line"/>
      <point x="840.0" y="790" type="line"/>
      <point x="840.0" y="890" type="line"/>
      <point x="504.0" y="890" type="line"/>
    </contour>
    <contour>
      <point x="958.0" y="672" type="line"/>
      <point x="1058.0" y="672" type="line"/>
      <point x="1058.0" y="713" type="line"/>
      <point x="881.0" y="890" type="line"/>
      <point x="840.0" y="890" type="line"/>
      <point x="840.0" y="790" type="line"/>
    </contour>
  </outline>
</glyph>
<glyph name="a.alt2.ss02" format="2">
  <advance width="1344.0"/>
  <outline>
    <contour>
      <point x="386.0" y="336" type="curve"/>
      <point x="286.0" y="336" type="line"/>
      <point x="286.0" y="259"/>
      <point x="245.0" y="218"/>
      <point x="168.0" y="218" type="curve"/>
      <point x="168.0" y="118" type="line"/>
      <point x="310.0" y="118"/>
      <point x="386.0" y="194"/>
    </contour>
    <contour>
      <point x="983.0" y="336" type="line"/>
      <point x="983.0" y="211"/>
      <point x="1051.0" y="143"/>
      <point x="1176.0" y="143" type="curve"/>
      <point x="1176.0" y="193" type="line"/>
      <point x="1083.0" y="193"/>
      <point x="1033.0" y="243"/>
      <point x="1033.0" y="336" type="curve"/>
    </contour>
    <contour>
      <point x="286.0" y="336" type="line"/>
      <point x="386.0" y="336" type="line"/>
      <point x="386.0" y="672" type="line"/>
      <point x="286.0" y="672" type="line"/>
    </contour>
    <contour>
      <point x="634.0" y="336" type="line"/>
      <point x="710.0" y="336" type="line"/>
      <point x="710.0" y="367" type="line"/>
      <point x="535.0" y="542" type="line"/>
      <point x="504.0" y="542" type="line"/>
      <point x="504.0" y="466" type="line"/>
    </contour>
    <contour>
      <point x="710.0" y="336" type="line"/>
      <point x="840.0" y="466" type="line"/>
      <point x="840.0" y="542" type="line"/>
      <point x="809.0" y="542" type="line"/>
      <point x="634.0" y="367" type="line"/>
      <point x="634.0" y="336" type="line"/>
    </contour>
    <contour>
      <point x="983.0" y="336" type="line"/>
      <point x="1033.0" y="336" type="line"/>
      <point x="1033.0" y="672" type="line"/>
      <point x="983.0" y="672" type="line"/>
    </contour>
    <contour>
      <point x="386.0" y="672" type="line"/>
      <point x="504.0" y="790" type="line"/>
      <point x="504.0" y="890" type="line"/>
      <point x="463.0" y="890" type="line"/>
      <point x="286.0" y="713" type="line"/>
      <point x="286.0" y="672" type="line"/>
    </contour>
    <contour>
      <point x="504.0" y="802" type="line"/>
      <point x="840.0" y="802" type="line"/>
      <point x="840.0" y="878" type="line"/>
      <point x="504.0" y="878" type="line"/>
    </contour>
    <contour>
      <point x="983.0" y="672" type="line"/>
      <point x="1033.0" y="672" type="line"/>
      <point x="1033.0" y="693" type="line"/>
      <point x="861.0" y="865" type="line"/>
      <point x="840.0" y="865" type="line"/>
      <point x="840.0" y="815" type="line"/>
    </contour>
  </outline>
</glyph>
<glyph name="a.alt2.ss03" format="2">
  <advance width="1344.0"/>
  <outline>
    <contour>
      <point x="386.0" y="336" type="curve"/>
      <point x="286.0" y="336" type="line"/>
      <point x="286.0" y="259"/>
      <point x="245.0" y="218"/>
      <point x="168.0" y="218" type="curve"/>
      <point x="168.0" y="118" type="line"/>
      <point x="310.0" y="118"/>
      <point x="386.0" y="194"/>
    </contour>
    <contour>
      <point x="958.0" y="336" type="line"/>
      <point x="958.0" y="194"/>
      <point x="1034.0" y="118"/>
      <point x="1176.0" y="118" type="curve"/>
      <point x="1176.0" y="218" type="line"/>
      <point x="1099.0" y="218"/>
      <point x="1058.0" y="259"/>
      <point x="1058.0" y="336" type="curve"/>
    </contour>
    <contour>
      <point x="298.0" y="336" type="line"/>
      <point x="374.0" y="336" type="line"/>
      <point x="374.0" y="672" type="line"/>
      <point x="298.0" y="672" type="line"/>
    </contour>
    <contour>
      <point x="634.0" y="336" type="line"/>
      <point x="710.0" y="336" type="line"/>
      <point x="710.0" y="367" type="line"/>
      <point x="535.0" y="542" type="line"/>
      <point x="504.0" y="542" type="line"/>
      <point x="504.0" y="466" type="line"/>
    </contour>
    <contour>
      <point x="710.0" y="336" type="line"/>
      <point x="840.0" y="466" type="line"/>
      <point x="840.0" y="542" type="line"/>
      <point x="809.0" y="542" type="line"/>
      <point x="634.0" y="367" type="line"/>
      <point x="634.0" y="336" type="line"/>
    </contour>
    <contour>
      <point x="970.0" y="336" type="line"/>
      <point x="1046.0" y="336" type="line"/>
      <point x="1046.0" y="672" type="line"/>
      <point x="970.0" y="672" type="line"/>
    </contour>
    <contour>
      <point x="361.0" y="672" type="line"/>
      <point x="504.0" y="815" type="line"/>
      <point x="504.0" y="865" type="line"/>
      <point x="483.0" y="865" type="line"/>
      <point x="311.0" y="693" type="line"/>
      <point x="311.0" y="672" type="line"/>
    </contour>
    <contour>
      <point x="504.0" y="815" type="line"/>
      <point x="840.0" y="815" type="line"/>
      <point x="840.0" y="865" type="line"/>
      <point x="504.0" y="865" type="line"/>
    </contour>
    <contour>
      <point x="983.0" y="672" type="line"/>
      <point x="1033.0" y="672" type="line"/>
      <point x="1033.0" y="693" type="line"/>
      <point x="861.0" y="865" type="line"/>
      <point x="840.0" y="865" type="line"/>
      <point x="840.0" y="815" type="line"/>
    </contour>
  </outline>
</glyph>
<glyph name="a.alt2.ss04" format="2">
  <advance width="1344.0"/>
  <outline>
    <contour>
      <point x="361.0" y="336" type="curve"/>
      <point x="311.0" y="336" type="line"/>
      <point x="311.0" y="243"/>
      <point x="261.0" y="193"/>
      <point x="168.0" y="193" type="curve"/>
      <point x="168.0" y="143" type="line"/>
      <point x="293.0" y="143"/>
      <point x="361.0" y="211"/>
    </contour>
    <contour>
      <point x="983.0" y="336" type="line"/>
      <point x="983.0" y="211"/>
      <point x="1051.0" y="143"/>
      <point x="1176.0" y="143" type="curve"/>
      <point x="1176.0" y="193" type="line"/>
      <point x="1083.0" y="193"/>
      <point x="1033.0" y="243"/>
      <point x="1033.0" y="336" type="curve"/>
    </contour>
    <contour>
      <point x="298.0" y="336" type="line"/>
      <point x="374.0" y="336" type="line"/>
      <point x="374.0" y="672" type="line"/>
      <point x="298.0" y="672" type="line"/>
    </contour>
    <contour>
      <point x="634.0" y="336" type="line"/>
      <point x="710.0" y="336" type="line"/>
      <point x="710.0" y="367" type="line"/>
      <point x="535.0" y="542" type="line"/>
      <point x="504.0" y="542" type="line"/>
      <point x="504.0" y="466" type="line"/>
    </contour>
    <contour>
      <point x="710.0" y="336" type="line"/>
      <point x="840.0" y="466" type="line"/>
      <point x="840.0" y="542" type="line"/>
      <point x="809.0" y="542" type="line"/>
      <point x="634.0" y="367" type="line"/>
      <point x="634.0" y="336" type="line"/>
    </contour>
    <contour>
      <point x="970.0" y="336" type="line"/>
      <point x="1046.0" y="336" type="line"/>
      <point x="1046.0" y="672" type="line"/>
      <point x="970.0" y="672" type="line"/>
    </contour>
    <contour>
      <point x="386.0" y="672" type="line"/>
      <point x="504.0" y="790" type="line"/>
      <point x="504.0" y="890" type="line"/>
      <point x="463.0" y="890" type="line"/>
      <point x="286.0" y="713" type="line"/>
      <point x="286.0" y="672" type="line"/>
    </contour>
    <contour>
      <point x="504.0" y="790" type="line"/>
      <point x="840.0" y="790" type="line"/>
      <point x="840.0" y="890" type="line"/>
      <point x="504.0" y="890" type="line"/>
    </contour>
    <contour>
      <point x="958.0" y="672" type="line"/>
      <point x="1058.0" y="672" type="line"/>
      <point x="1058.0" y="713" type="line"/>
      <point x="881.0" y="890" type="line"/>
      <point x="840.0" y="890" type="line"/>
      <point x="840.0" y="790" type="line"/>
    </contour>
  </outline>
</glyph>
<glyph name="a.alt2.ss05" format="2">
  <advance width="1680.0"/>
  <outline>
    <contour>
      <point x="361.0" y="336" type="curve"/>
      <point x="311.0" y="336" type="line"/>
      <point x="311.0" y="243"/>
      <point x="261.0" y="193"/>
      <point x="168.0" y="193" type="curve"/>
      <point x="168.0" y="143" type="line"/>
      <point x="293.0" y="143"/>
      <point x="361.0" y="211"/>
    </contour>
    <contour>
      <point x="1319.0" y="336" type="line"/>
      <point x="1319.0" y="211"/>
      <point x="1387.0" y="143"/>
      <point x="1512.0" y="143" type="curve"/>
      <point x="1512.0" y="193" type="line"/>
      <point x="1419.0" y="193"/>
      <point x="1369.0" y="243"/>
      <point x="1369.0" y="336" type="curve"/>
    </contour>
    <contour>
      <point x="311.0" y="336" type="line"/>
      <point x="361.0" y="336" type="line"/>
      <point x="361.0" y="672" type="line"/>
      <point x="311.0" y="672" type="line"/>
    </contour>
    <contour>
      <point x="815.0" y="336" type="line"/>
      <point x="865.0" y="336" type="line"/>
      <point x="865.0" y="368" type="line"/>
      <point x="515.0" y="529" type="line"/>
      <point x="504.0" y="529" type="line"/>
      <point x="504.0" y="479" type="line"/>
    </contour>
    <contour>
      <point x="865.0" y="336" type="line"/>
      <point x="1176.0" y="479" type="line"/>
      <point x="1176.0" y="529" type="line"/>
      <point x="1165.0" y="529" type="line"/>
      <point x="815.0" y="368" type="line"/>
      <point x="815.0" y="336" type="line"/>
    </contour>
    <contour>
      <point x="1319.0" y="336" type="line"/>
      <point x="1369.0" y="336" type="line"/>
      <point x="1369.0" y="672" type="line"/>
      <point x="1319.0" y="672" type="line"/>
    </contour>
    <contour>
      <point x="361.0" y="672" type="line"/>
      <point x="504.0" y="815" type="line"/>
      <point x="504.0" y="865" type="line"/>
      <point x="483.0" y="865" type="line"/>
      <point x="311.0" y="693" type="line"/>
      <point x="311.0" y="672" type="line"/>
    </contour>
    <contour>
      <point x="504.0" y="815" type="line"/>
      <point x="1176.0" y="815" type="line"/>
      <point x="1176.0" y="865" type="line"/>
      <point x="504.0" y="865" type="line"/>
    </contour>
    <contour>
      <point x="1319.0" y="672" type="line"/>
      <point x="1369.0" y="672" type="line"/>
      <point x="1369.0" y="693" type="line"/>
      <point x="1197.0" y="865" type="line"/>
      <point x="1176.0" y="865" type="line"/>
      <point x="1176.0" y="815" type="line"/>
    </contour>
  </outline>
</glyph>
<glyph name="a.alt2.ss07" format="2">
  <advance width="2352.0"/>
  <outline>
    <contour>
      <point x="361.0" y="336" type="curve"/>
      <point x="311.0" y="336" type="line"/>
      <point x="311.0" y="243"/>
      <point x="261.0" y="193"/>
      <point x="168.0" y="193" type="curve"/>
      <point x="168.0" y="143" type="line"/>
      <point x="293.0" y="143"/>
      <point x="361.0" y="211"/>
    </contour>
    <contour>
      <point x="1991.0" y="336" type="line"/>
      <point x="1991.0" y="211"/>
      <point x="2059.0" y="143"/>
      <point x="2184.0" y="143" type="curve"/>
      <point x="2184.0" y="193" type="line"/>
      <point x="2091.0" y="193"/>
      <point x="2041.0" y="243"/>
      <point x="2041.0" y="336" type="curve"/>
    </contour>
    <contour>
      <point x="311.0" y="336" type="line"/>
      <point x="361.0" y="336" type="line"/>
      <point x="361.0" y="672" type="line"/>
      <point x="311.0" y="672" type="line"/>
    </contour>
    <contour>
      <point x="1151.0" y="336" type="line"/>
      <point x="1201.0" y="336" type="line"/>
      <point x="1201.0" y="376" type="line"/>
      <point x="509.0" y="529" type="line"/>
      <point x="504.0" y="529" type="line"/>
      <point x="504.0" y="479" type="line"/>
    </contour>
    <contour>
      <point x="1201.0" y="336" type="line"/>
      <point x="1848.0" y="479" type="line"/>
      <point x="1848.0" y="529" type="line"/>
      <point x="1843.0" y="529" type="line"/>
      <point x="1151.0" y="376" type="line"/>
      <point x="1151.0" y="336" type="line"/>
    </contour>
    <contour>
      <point x="1991.0" y="336" type="line"/>
      <point x="2041.0" y="336" type="line"/>
      <point x="2041.0" y="672" type="line"/>
      <point x="1991.0" y="672" type="line"/>
    </contour>
    <contour>
      <point x="361.0" y="672" type="line"/>
      <point x="504.0" y="815" type="line"/>
      <point x="504.0" y="865" type="line"/>
      <point x="483.0" y="865" type="line"/>
      <point x="311.0" y="693" type="line"/>
      <point x="311.0" y="672" type="line"/>
    </contour>
    <contour>
      <point x="504.0" y="815" type="line"/>
      <point x="1848.0" y="815" type="line"/>
      <point x="1848.0" y="865" type="line"/>
      <point x="504.0" y="865" type="line"/>
    </contour>
    <contour>
      <point x="1991.0" y="672" type="line"/>
      <point x="2041.0" y="672" type="line"/>
      <point x="2041.0" y="693" type="line"/>
      <point x="1869.0" y="865" type="line"/>
      <point x="1848.0" y="865" type="line"/>
      <point x="1848.0" y="815" type="line"/>
    </contour>
  </outline>
</glyph>
<glyph name="a.ss02" format="2">
  <advance width="1344.0"/>
  <outline>
    <contour>
      <point x="286.0" y="336" type="line"/>
      <point x="168.0" y="218" type="line"/>
      <point x="168.0" y="118" type="line"/>
      <point x="209.0" y="118" type="line"/>
      <point x="386.0" y="295" type="line"/>
      <point x="386.0" y="336" type="line"/>
    </contour>
    <contour>
      <point x="1033.0" y="336" type="line"/>
      <point x="983.0" y="336" type="line"/>
      <point x="983.0" y="315" type="line"/>
      <point x="1155.0" y="143" type="line"/>
      <point x="1176.0" y="143" type="line"/>
      <point x="1176.0" y="193" type="line"/>
    </contour>
    <contour>
      <point x="286.0" y="336" type="line"/>
      <point x="386.0" y="336" type="line"/>
      <point x="386.0" y="672" type="line"/>
      <point x="286.0" y="672" type="line"/>
    </contour>
    <contour>
      <point x="286.0" y="454" type="line"/>
      <point x="504.0" y="454" type="line"/>
      <point x="504.0" y="554" type="line"/>
      <point x="286.0" y="554" type="line"/>
    </contour>
    <contour>
      <point x="504.0" y="466" type="line"/>
      <point x="840.0" y="466" type="line"/>
      <point x="840.0" y="542" type="line"/>
      <point x="504.0" y="542" type="line"/>
    </contour>
    <contour>
      <point x="983.0" y="336" type="line"/>
      <point x="1033.0" y="336" type="line"/>
      <point x="1033.0" y="672" type="line"/>
      <point x="983.0" y="672" type="line"/>
    </contour>
    <contour>
      <point x="840.0" y="479" type="line"/>
      <point x="1033.0" y="479" type="line"/>
      <point x="1033.0" y="529" type="line"/>
      <point x="840.0" y="529" type="line"/>
    </contour>
    <contour>
      <point x="286.0" y="672" type="curve"/>
      <point x="386.0" y="672" type="line"/>
      <point x="386.0" y="749"/>
      <point x="427.0" y="790"/>
      <point x="504.0" y="790" type="curve"/>
      <point x="504.0" y="890" type="line"/>
      <point x="362.0" y="890"/>
      <point x="286.0" y="814"/>
    </contour>
    <contour>
      <point x="504.0" y="802" type="line"/>
      <point x="840.0" y="802" type="line"/>
      <point x="840.0" y="878" type="line"/>
      <point x="504.0" y="878" type="line"/>
    </contour>
    <contour>
      <point x="1033.0" y="672" type="line"/>
      <point x="1033.0" y="797"/>
      <point x="965.0" y="865"/>
      <point x="840.0" y="865" type="curve"/>
      <point x="840.0" y="815" type="line"/>
      <point x="933.0" y="815"/>
      <point x="983.0" y="765"/>
      <point x="983.0" y="672" type="curve"/>
    </contour>
  </outline>
</glyph>
<glyph name="a.ss03" format="2">
  <advance width="1344.0"/>
  <outline>
    <contour>
      <point x="286.0" y="336" type="line"/>
      <point x="168.0" y="218" type="line"/>
      <point x="168.0" y="118" type="line"/>
      <point x="209.0" y="118" type="line"/>
      <point x="386.0" y="295" type="line"/>
      <point x="386.0" y="336" type="line"/>
    </contour>
    <contour>
      <point x="1058.0" y="336" type="line"/>
      <point x="958.0" y="336" type="line"/>
      <point x="958.0" y="295" type="line"/>
      <point x="1135.0" y="118" type="line"/>
      <point x="1176.0" y="118" type="line"/>
      <point x="1176.0" y="218" type="line"/>
    </contour>
    <contour>
      <point x="298.0" y="336" type="line"/>
      <point x="374.0" y="336" type="line"/>
      <point x="374.0" y="672" type="line"/>
      <point x="298.0" y="672" type="line"/>
    </contour>
    <contour>
      <point x="298.0" y="466" type="line"/>
      <point x="504.0" y="466" type="line"/>
      <point x="504.0" y="542" type="line"/>
      <point x="298.0" y="542" type="line"/>
    </contour>
    <contour>
      <point x="504.0" y="466" type="line"/>
      <point x="840.0" y="466" type="line"/>
      <point x="840.0" y="542" type="line"/>
      <point x="504.0" y="542" type="line"/>
    </contour>
    <contour>
      <point x="970.0" y="336" type="line"/>
      <point x="1046.0" y="336" type="line"/>
      <point x="1046.0" y="672" type="line"/>
      <point x="970.0" y="672" type="line"/>
    </contour>
    <contour>
      <point x="840.0" y="466" type="line"/>
      <point x="1046.0" y="466" type="line"/>
      <point x="1046.0" y="542" type="line"/>
      <point x="840.0" y="542" type="line"/>
    </contour>
    <contour>
      <point x="311.0" y="672" type="curve"/>
      <point x="361.0" y="672" type="line"/>
      <point x="361.0" y="765"/>
      <point x="411.0" y="815"/>
      <point x="504.0" y="815" type="curve"/>
      <point x="504.0" y="865" type="line"/>
      <point x="379.0" y="865"/>
      <point x="311.0" y="797"/>
    </contour>
    <contour>
      <point x="504.0" y="815" type="line"/>
      <point x="840.0" y="815" type="line"/>
      <point x="840.0" y="865" type="line"/>
      <point x="504.0" y="865" type="line"/>
    </contour>
    <contour>
      <point x="1033.0" y="672" type="line"/>
      <point x="1033.0" y="797"/>
      <point x="965.0" y="865"/>
      <point x="840.0" y="865" type="curve"/>
      <point x="840.0" y="815" type="line"/>
      <point x="933.0" y="815"/>
      <point x="983.0" y="765"/>
      <point x="983.0" y="672" type="curve"/>
    </contour>
  </outline>
</glyph>
<glyph name="aacute.ss01" format="2">
  <advance width="1176.0"/>
  <outline>
    <contour>
      <point x="143" y="336" type="line"/>
      <point x="143" y="211"/>
      <point x="211" y="143"/>
      <point x="336" y="143" type="curve"/>
      <point x="336" y="193" type="line"/>
      <point x="243" y="193"/>
      <point x="193" y="243"/>
      <point x="193" y="336" type="curve"/>
    </contour>
    <contour>
      <point x="336" y="130" type="line"/>
      <point x="672" y="130" type="line"/>
      <point x="672" y="206" type="line"/>
      <point x="336" y="206" type="line"/>
    </contour>
    <contour>
      <point x="672" y="118" type="line"/>
      <point x="1008" y="118" type="line"/>
      <point x="1008" y="218" type="line"/>
      <point x="672" y="218" type="line"/>
    </contour>
    <contour>
      <point x="790" y="118" type="line"/>
      <point x="890" y="118" type="line"/>
      <point x="890" y="336" type="line"/>
      <point x="790" y="336" type="line"/>
    </contour>
    <contour>
      <point x="143" y="336" type="curve"/>
      <point x="193" y="336" type="line"/>
      <point x="193" y="429"/>
      <point x="243" y="479"/>
      <point x="336" y="479" type="curve"/>
      <point x="336" y="529" type="line"/>
      <point x="211" y="529"/>
      <point x="143" y="461"/>
    </contour>
    <contour>
      <point x="336" y="466" type="line"/>
      <point x="672" y="466" type="line"/>
      <point x="672" y="542" type="line"/>
      <point x="336" y="542" type="line"/>
    </contour>
    <contour>
      <point x="890" y="336" type="line"/>
      <point x="890" y="478"/>
      <point x="814" y="554"/>
      <point x="672" y="554" type="curve"/>
      <point x="672" y="454" type="line"/>
      <point x="749" y="454"/>
      <point x="790" y="413"/>
      <point x="790" y="336" type="curve"/>
    </contour>
    <contour>
      <point x="336" y="802" type="line"/>
      <point x="672" y="802" type="line"/>
      <point x="672" y="878" type="line"/>
      <point x="336" y="878" type="line"/>
    </contour>
    <contour>
      <point x="790" y="1008" type="line"/>
      <point x="672" y="890" type="line"/>
      <point x="672" y="790" type="line"/>
      <point x="713" y="790" type="line"/>
      <point x="890" y="967" type="line"/>
      <point x="890" y="1008" type="line"/>
    </contour>
  </outline>
</glyph>
<glyph name="arrowdown.ss01" format="2">
  <advance width="1008"/>
  <outline>
    <contour>
      <point x="193" y="336" type="line"/>
      <point x="143" y="336" type="line"/>
      <point x="143" y="315" type="line"/>
      <point x="315" y="143" type="line"/>
      <point x="336" y="143" type="line"/>
      <point x="336" y="193" type="line"/>
    </contour>
    <contour>
      <point x="466" y="0" type="line"/>
      <point x="542" y="0" type="line"/>
      <point x="542" y="31" type="line"/>
      <point x="367" y="206" type="line"/>
      <point x="336" y="206" type="line"/>
      <point x="336" y="130" type="line"/>
    </contour>
    <contour>
      <point x="542" y="0" type="line"/>
      <point x="672" y="130" type="line"/>
      <point x="672" y="206" type="line"/>
      <point x="641" y="206" type="line"/>
      <point x="466" y="31" type="line"/>
      <point x="466" y="0" type="line"/>
    </contour>
    <contour>
      <point x="790" y="336" type="line"/>
      <point x="672" y="218" type="line"/>
      <point x="672" y="118" type="line"/>
      <point x="713" y="118" type="line"/>
      <point x="890" y="295" type="line"/>
      <point x="890" y="336" type="line"/>
    </contour>
    <contour>
      <point x="466" y="336" type="line"/>
      <point x="542" y="336" type="line"/>
      <point x="542" y="672" type="line"/>
      <point x="466" y="672" type="line"/>
    </contour>
    <contour>
      <point x="336" y="802" type="line"/>
      <point x="672" y="802" type="line"/>
      <point x="672" y="878" type="line"/>
      <point x="336" y="878" type="line"/>
    </contour>
    <contour>
      <point x="466" y="672" type="line"/>
      <point x="542" y="672" type="line"/>
      <point x="542" y="878" type="line"/>
      <point x="466" y="878" type="line"/>
    </contour>
  </outline>
</glyph>
<glyph name="arrowdown.ss02" format="2">
  <advance width="1008"/>
  <outline>
    <contour>
      <point x="218" y="336" type="line"/>
      <point x="118" y="336" type="line"/>
      <point x="118" y="295" type="line"/>
      <point x="295" y="118" type="line"/>
      <point x="336" y="118" type="line"/>
      <point x="336" y="218" type="line"/>
    </contour>
    <contour>
      <point x="454" y="0" type="line"/>
      <point x="554" y="0" type="line"/>
      <point x="554" y="41" type="line"/>
      <point x="377" y="218" type="line"/>
      <point x="336" y="218" type="line"/>
      <point x="336" y="118" type="line"/>
    </contour>
    <contour>
      <point x="554" y="0" type="line"/>
      <point x="672" y="118" type="line"/>
      <point x="672" y="218" type="line"/>
      <point x="631" y="218" type="line"/>
      <point x="454" y="41" type="line"/>
      <point x="454" y="0" type="line"/>
    </contour>
    <contour>
      <point x="790" y="336" type="line"/>
      <point x="672" y="218" type="line"/>
      <point x="672" y="118" type="line"/>
      <point x="713" y="118" type="line"/>
      <point x="890" y="295" type="line"/>
      <point x="890" y="336" type="line"/>
    </contour>
    <contour>
      <point x="454" y="336" type="line"/>
      <point x="554" y="336" type="line"/>
      <point x="554" y="672" type="line"/>
      <point x="454" y="672" type="line"/>
    </contour>
    <contour>
      <point x="336" y="790" type="line"/>
      <point x="672" y="790" type="line"/>
      <point x="672" y="890" type="line"/>
      <point x="336" y="890" type="line"/>
    </contour>
    <contour>
      <point x="454" y="672" type="line"/>
      <point x="554" y="672" type="line"/>
      <point x="554" y="890" type="line"/>
      <point x="454" y="890" type="line"/>
    </contour>
  </outline>
</glyph>
<glyph name="arrowdown.ss03" format="2">
  <advance width="1008"/>
  <outline>
    <contour>
      <point x="218" y="336" type="line"/>
      <point x="118" y="336" type="line"/>
      <point x="118" y="295" type="line"/>
      <point x="295" y="118" type="line"/>
      <point x="336" y="118" type="line"/>
      <point x="336" y="218" type="line"/>
    </contour>
    <contour>
      <point x="454" y="0" type="line"/>
      <point x="554" y="0" type="line"/>
      <point x="554" y="41" type="line"/>
      <point x="377" y="218" type="line"/>
      <point x="336" y="218" type="line"/>
      <point x="336" y="118" type="line"/>
    </contour>
    <contour>
      <point x="554" y="0" type="line"/>
      <point x="672" y="118" type="line"/>
      <point x="672" y="218" type="line"/>
      <point x="631" y="218" type="line"/>
      <point x="454" y="41" type="line"/>
      <point x="454" y="0" type="line"/>
    </contour>
    <contour>
      <point x="790" y="336" type="line"/>
      <point x="672" y="218" type="line"/>
      <point x="672" y="118" type="line"/>
      <point x="713" y="118" type="line"/>
      <point x="890" y="295" type="line"/>
      <point x="890" y="336" type="line"/>
    </contour>
    <contour>
      <point x="466" y="336" type="line"/>
      <point x="542" y="336" type="line"/>
      <point x="542" y="672" type="line"/>
      <point x="466" y="672" type="line"/>
    </contour>
    <contour>
      <point x="336" y="815" type="line"/>
      <point x="672" y="815" type="line"/>
      <point x="672" y="865" type="line"/>
      <point x="336" y="865" type="line"/>
    </contour>
    <contour>
      <point x="479" y="672" type="line"/>
      <point x="529" y="672" type="line"/>
      <point x="529" y="865" type="line"/>
      <point x="479" y="865" type="line"/>
    </contour>
  </outline>
</glyph>
<glyph name="arrowdown.ss05" format="2">
  <advance width="1344"/>
  <outline>
    <contour>
      <point x="193" y="336" type="line"/>
      <point x="143" y="336" type="line"/>
      <point x="143" y="315" type="line"/>
      <point x="315" y="143" type="line"/>
      <point x="336" y="143" type="line"/>
      <point x="336" y="193" type="line"/>
    </contour>
    <contour>
      <point x="647" y="0" type="line"/>
      <point x="697" y="0" type="line"/>
      <point x="697" y="32" type="line"/>
      <point x="347" y="193" type="line"/>
      <point x="336" y="193" type="line"/>
      <point x="336" y="143" type="line"/>
    </contour>
    <contour>
      <point x="697" y="0" type="line"/>
      <point x="1008" y="143" type="line"/>
      <point x="1008" y="193" type="line"/>
      <point x="997" y="193" type="line"/>
      <point x="647" y="32" type="line"/>
      <point x="647" y="0" type="line"/>
    </contour>
    <contour>
      <point x="1151" y="336" type="line"/>
      <point x="1008" y="193" type="line"/>
      <point x="1008" y="143" type="line"/>
      <point x="1029" y="143" type="line"/>
      <point x="1201" y="315" type="line"/>
      <point x="1201" y="336" type="line"/>
    </contour>
    <contour>
      <point x="647" y="336" type="line"/>
      <point x="697" y="336" type="line"/>
      <point x="697" y="672" type="line"/>
      <point x="647" y="672" type="line"/>
    </contour>
    <contour>
      <point x="336" y="815" type="line"/>
      <point x="1008" y="815" type="line"/>
      <point x="1008" y="865" type="line"/>
      <point x="336" y="865" type="line"/>
    </contour>
    <contour>
      <point x="647" y="672" type="line"/>
      <point x="697" y="672" type="line"/>
      <point x="697" y="865" type="line"/>
      <point x="647" y="865" type="line"/>
    </contour>
  </outline>
</glyph>
<glyph name="arrowleft.ss01" format="2">
  <advance width="1176.0"/>
  <outline>
    <contour>
      <point x="361.0" y="336" type="line"/>
      <point x="311.0" y="336" type="line"/>
      <point x="311.0" y="315" type="line"/>
      <point x="483.0" y="143" type="line"/>
      <point x="504.0" y="143" type="line"/>
      <point x="504.0" y="193" type="line"/>
    </contour>
    <contour>
      <point x="311.0" y="672" type="line"/>
      <point x="168.0" y="529" type="line"/>
      <point x="168.0" y="479" type="line"/>
      <point x="189.0" y="479" type="line"/>
      <point x="361.0" y="651" type="line"/>
      <point x="361.0" y="672" type="line"/>
    </contour>
    <contour>
      <point x="311.0" y="336" type="line"/>
      <point x="361.0" y="336" type="line"/>
      <point x="361.0" y="357" type="line"/>
      <point x="189.0" y="529" type="line"/>
      <point x="168.0" y="529" type="line"/>
      <point x="168.0" y="479" type="line"/>
    </contour>
    <contour>
      <point x="504.0" y="466" type="line"/>
      <point x="840.0" y="466" type="line"/>
      <point x="840.0" y="542" type="line"/>
      <point x="504.0" y="542" type="line"/>
    </contour>
    <contour>
      <point x="958.0" y="336" type="line"/>
      <point x="1058.0" y="336" type="line"/>
      <point x="1058.0" y="672" type="line"/>
      <point x="958.0" y="672" type="line"/>
    </contour>
    <contour>
      <point x="840.0" y="454" type="line"/>
      <point x="1058.0" y="454" type="line"/>
      <point x="1058.0" y="554" type="line"/>
      <point x="840.0" y="554" type="line"/>
    </contour>
    <contour>
      <point x="361.0" y="672" type="line"/>
      <point x="504.0" y="815" type="line"/>
      <point x="504.0" y="865" type="line"/>
      <point x="483.0" y="865" type="line"/>
      <point x="311.0" y="693" type="line"/>
      <point x="311.0" y="672" type="line"/>
    </contour>
  </outline>
</glyph>
<glyph name="arrowleft.ss04" format="2">
  <advance width="1176.0"/>
  <outline>
    <contour>
      <point x="361.0" y="336" type="line"/>
      <point x="311.0" y="336" type="line"/>
      <point x="311.0" y="315" type="line"/>
      <point x="483.0" y="143" type="line"/>
      <point x="504.0" y="143" type="line"/>
      <point x="504.0" y="193" type="line"/>
    </contour>
    <contour>
      <point x="298.0" y="672" type="line"/>
      <point x="168.0" y="542" type="line"/>
      <point x="168.0" y="466" type="line"/>
      <point x="199.0" y="466" type="line"/>
      <point x="374.0" y="641" type="line"/>
      <point x="374.0" y="672" type="line"/>
    </contour>
    <contour>
      <point x="298.0" y="336" type="line"/>
      <point x="374.0" y="336" type="line"/>
      <point x="374.0" y="367" type="line"/>
      <point x="199.0" y="542" type="line"/>
      <point x="168.0" y="542" type="line"/>
      <point x="168.0" y="466" type="line"/>
    </contour>
    <contour>
      <point x="504.0" y="466" type="line"/>
      <point x="840.0" y="466" type="line"/>
      <point x="840.0" y="542" type="line"/>
      <point x="504.0" y="542" type="line"/>
    </contour>
    <contour>
      <point x="970.0" y="336" type="line"/>
      <point x="1046.0" y="336" type="line"/>
      <point x="1046.0" y="672" type="line"/>
      <point x="970.0" y="672" type="line"/>
    </contour>
    <contour>
      <point x="840.0" y="466" type="line"/>
      <point x="1046.0" y="466" type="line"/>
      <point x="1046.0" y="542" type="line"/>
      <point x="840.0" y="542" type="line"/>
    </contour>
    <contour>
      <point x="386.0" y="672" type="line"/>
      <point x="504.0" y="790" type="line"/>
      <point x="504.0" y="890" type="line"/>
      <point x="463.0" y="890" type="line"/>
      <point x="286.0" y="713" type="line"/>
      <point x="286.0" y="672" type="line"/>
    </contour>
  </outline>
</glyph>
<glyph name="arrowright.ss02" format="2">
  <advance width="1176.0"/>
  <outline>
    <contour>
      <point x="815" y="336" type="line"/>
      <point x="672" y="193" type="line"/>
      <point x="672" y="143" type="line"/>
      <point x="693" y="143" type="line"/>
      <point x="865" y="315" type="line"/>
      <point x="865" y="336" type="line"/>
    </contour>
    <contour>
      <point x="118" y="336" type="line"/>
      <point x="218" y="336" type="line"/>
      <point x="218" y="672" type="line"/>
      <point x="118" y="672" type="line"/>
    </contour>
    <contour>
      <point x="118" y="454" type="line"/>
      <point x="336" y="454" type="line"/>
      <point x="336" y="554" type="line"/>
      <point x="118" y="554" type="line"/>
    </contour>
    <contour>
      <point x="336" y="466" type="line"/>
      <point x="672" y="466" type="line"/>
      <point x="672" y="542" type="line"/>
      <point x="336" y="542" type="line"/>
    </contour>
    <contour>
      <point x="865" y="672" type="line"/>
      <point x="815" y="672" type="line"/>
      <point x="815" y="651" type="line"/>
      <point x="987" y="479" type="line"/>
      <point x="1008" y="479" type="line"/>
      <point x="1008" y="529" type="line"/>
    </contour>
    <contour>
      <point x="865" y="336" type="line"/>
      <point x="1008" y="479" type="line"/>
      <point x="1008" y="529" type="line"/>
      <point x="987" y="529" type="line"/>
      <point x="815" y="357" type="line"/>
      <point x="815" y="336" type="line"/>
    </contour>
    <contour>
      <point x="815" y="672" type="line"/>
      <point x="865" y="672" type="line"/>
      <point x="865" y="693" type="line"/>
      <point x="693" y="865" type="line"/>
      <point x="672" y="865" type="line"/>
      <point x="672" y="815" type="line"/>
    </contour>
  </outline>
</glyph>
<glyph name="arrowright.ss03" format="2">
  <advance width="1176.0"/>
  <outline>
    <contour>
      <point x="790" y="336" type="line"/>
      <point x="672" y="218" type="line"/>
      <point x="672" y="118" type="line"/>
      <point x="713" y="118" type="line"/>
      <point x="890" y="295" type="line"/>
      <point x="890" y="336" type="line"/>
    </contour>
    <contour>
      <point x="130" y="336" type="line"/>
      <point x="206" y="336" type="line"/>
      <point x="206" y="672" type="line"/>
      <point x="130" y="672" type="line"/>
    </contour>
    <contour>
      <point x="130" y="466" type="line"/>
      <point x="336" y="466" type="line"/>
      <point x="336" y="542" type="line"/>
      <point x="130" y="542" type="line"/>
    </contour>
    <contour>
      <point x="336" y="466" type="line"/>
      <point x="672" y="466" type="line"/>
      <point x="672" y="542" type="line"/>
      <point x="336" y="542" type="line"/>
    </contour>
    <contour>
      <point x="878" y="672" type="line"/>
      <point x="802" y="672" type="line"/>
      <point x="802" y="641" type="line"/>
      <point x="977" y="466" type="line"/>
      <point x="1008" y="466" type="line"/>
      <point x="1008" y="542" type="line"/>
    </contour>
    <contour>
      <point x="878" y="336" type="line"/>
      <point x="1008" y="466" type="line"/>
      <point x="1008" y="542" type="line"/>
      <point x="977" y="542" type="line"/>
      <point x="802" y="367" type="line"/>
      <point x="802" y="336" type="line"/>
    </contour>
    <contour>
      <point x="815" y="672" type="line"/>
      <point x="865" y="672" type="line"/>
      <point x="865" y="693" type="line"/>
      <point x="693" y="865" type="line"/>
      <point x="672" y="865" type="line"/>
      <point x="672" y="815" type="line"/>
    </contour>
  </outline>
</glyph>
<glyph name="arrowright.ss04" format="2">
  <advance width="1176.0"/>
  <outline>
    <contour>
      <point x="815" y="336" type="line"/>
      <point x="672" y="193" type="line"/>
      <point x="672" y="143" type="line"/>
      <point x="693" y="143" type="line"/>
      <point x="865" y="315" type="line"/>
      <point x="865" y="336" type="line"/>
    </contour>
    <contour>
      <point x="130" y="336" type="line"/>
      <point x="206" y="336" type="line"/>
      <point x="206" y="672" type="line"/>
      <point x="130" y="672" type="line"/>
    </contour>
    <contour>
      <point x="130" y="466" type="line"/>
      <point x="336" y="466" type="line"/>
      <point x="336" y="542" type="line"/>
      <point x="130" y="542" type="line"/>
    </contour>
    <contour>
      <point x="336" y="466" type="line"/>
      <point x="672" y="466" type="line"/>
      <point x="672" y="542" type="line"/>
      <point x="336" y="542" type="line"/>
    </contour>
    <contour>
      <point x="878" y="672" type="line"/>
      <point x="802" y="672" type="line"/>
      <point x="802" y="641" type="line"/>
      <point x="977" y="466" type="line"/>
      <point x="1008" y="466" type="line"/>
      <point x="1008" y="542" type="line"/>
    </contour>
    <contour>
      <point x="878" y="336" type="line"/>
      <point x="1008" y="466" type="line"/>
      <point x="1008" y="542" type="line"/>
      <point x="977" y="542" type="line"/>
      <point x="802" y="367" type="line"/>
      <point x="802" y="336" type="line"/>
    </contour>
    <contour>
      <point x="790" y="672" type="line"/>
      <point x="890" y="672" type="line"/>
      <point x="890" y="713" type="line"/>
      <point x="713" y="890" type="line"/>
      <point x="672" y="890" type="line"/>
      <point x="672" y="790" type="line"/>
    </contour>
  </outline>
</glyph>
<glyph name="arrowup.ss01" format="2">
  <advance width="1008"/>
  <outline>
    <contour>
      <point x="336" y="130" type="line"/>
      <point x="672" y="130" type="line"/>
      <point x="672" y="206" type="line"/>
      <point x="336" y="206" type="line"/>
    </contour>
    <contour>
      <point x="466" y="130" type="line"/>
      <point x="542" y="130" type="line"/>
      <point x="542" y="336" type="line"/>
      <point x="466" y="336" type="line"/>
    </contour>
    <contour>
      <point x="466" y="336" type="line"/>
      <point x="542" y="336" type="line"/>
      <point x="542" y="672" type="line"/>
      <point x="466" y="672" type="line"/>
    </contour>
    <contour>
      <point x="193" y="672" type="line"/>
      <point x="336" y="815" type="line"/>
      <point x="336" y="865" type="line"/>
      <point x="315" y="865" type="line"/>
      <point x="143" y="693" type="line"/>
      <point x="143" y="672" type="line"/>
    </contour>
    <contour>
      <point x="466" y="1008" type="line"/>
      <point x="336" y="878" type="line"/>
      <point x="336" y="802" type="line"/>
      <point x="367" y="802" type="line"/>
      <point x="542" y="977" type="line"/>
      <point x="542" y="1008" type="line"/>
    </contour>
    <contour>
      <point x="542" y="1008" type="line"/>
      <point x="466" y="1008" type="line"/>
      <point x="466" y="977" type="line"/>
      <point x="641" y="802" type="line"/>
      <point x="672" y="802" type="line"/>
      <point x="672" y="878" type="line"/>
    </contour>
    <contour>
      <point x="790" y="672" type="line"/>
      <point x="890" y="672" type="line"/>
      <point x="890" y="713" type="line"/>
      <point x="713" y="890" type="line"/>
      <point x="672" y="890" type="line"/>
      <point x="672" y="790" type="line"/>
    </contour>
  </outline>
</glyph>
<glyph name="arrowup.ss07" format="2">
  <advance width="2016"/>
  <outline>
    <contour>
      <point x="336" y="143" type="line"/>
      <point x="1680" y="143" type="line"/>
      <point x="1680" y="193" type="line"/>
      <point x="336" y="193" type="line"/>
    </contour>
    <contour>
      <point x="983" y="143" type="line"/>
      <point x="1033" y="143" type="line"/>
      <point x="1033" y="336" type="line"/>
      <point x="983" y="336" type="line"/>
    </contour>
    <contour>
      <point x="983" y="336" type="line"/>
      <point x="1033" y="336" type="line"/>
      <point x="1033" y="672" type="line"/>
      <point x="983" y="672" type="line"/>
    </contour>
    <contour>
      <point x="193" y="672" type="line"/>
      <point x="336" y="815" type="line"/>
      <point x="336" y="865" type="line"/>
      <point x="315" y="865" type="line"/>
      <point x="143" y="693" type="line"/>
      <point x="143" y="672" type="line"/>
    </contour>
    <contour>
      <point x="983" y="1008" type="line"/>
      <point x="336" y="865" type="line"/>
      <point x="336" y="815" type="line"/>
      <point x="341" y="815" type="line"/>
      <point x="1033" y="968" type="line"/>
      <point x="1033" y="1008" type="line"/>
    </contour>
    <contour>
      <point x="1033" y="1008" type="line"/>
      <point x="983" y="1008" type="line"/>
      <point x="983" y="968" type="line"/>
      <point x="1675" y="815" type="line"/>
      <point x="1680" y="815" type="line"/>
      <point x="1680" y="865" type="line"/>
    </contour>
    <contour>
      <point x="1823" y="672" type="line"/>
      <point x="1873" y="672" type="line"/>
      <point x="1873" y="693" type="line"/>
      <point x="1701" y="865" type="line"/>
      <point x="1680" y="865" type="line"/>
      <point x="1680" y="815" type="line"/>
    </contour>
  </outline>
</glyph>
<glyph name="asciicircum.ss01" format="2">
  <advance width="1008"/>
  <outline>
    <contour>
      <point x="466" y="1008" type="line"/>
      <point x="336" y="878" type="line"/>
      <point x="336" y="802" type="line"/>
      <point x="367" y="802" type="line"/>
      <point x="542" y="977" type="line"/>
      <point x="542" y="1008" type="line"/>
    </contour>
    <contour>
      <point x="466" y="672" type="line"/>
      <point x="542" y="672" type="line"/>
      <point x="542" y="703" type="line"/>
      <point x="367" y="878" type="line"/>
      <point x="336" y="878" type="line"/>
      <point x="336" y="802" type="line"/>
    </contour>
  </outline>
</glyph>
<glyph name="asciicircum.ss07" format="2">
  <advance width="1008"/>
  <outline>
    <contour>
      <point x="479" y="1008" type="line"/>
      <point x="336" y="865" type="line"/>
      <point x="336" y="815" type="line"/>
      <point x="357" y="815" type="line"/>
      <point x="529" y="987" type="line"/>
      <point x="529" y="1008" type="line"/>
    </contour>
    <contour>
      <point x="479" y="672" type="line"/>
      <point x="529" y="672" type="line"/>
      <point x="529" y="693" type="line"/>
      <point x="357" y="865" type="line"/>
      <point x="336" y="865" type="line"/>
      <point x="336" y="815" type="line"/>
    </contour>
  </outline>
</glyph>
<glyph name="asciitilde.alt1.ss01" format="2">
  <advance width="1680"/>
  <outline>
    <contour>
      <point x="473" y="336" type="curve"/>
      <point x="535" y="336" type="line"/>
      <point x="535" y="425"/>
      <point x="583" y="473"/>
      <point x="672" y="473" type="curve"/>
      <point x="672" y="535" type="line"/>
      <point x="542" y="535"/>
      <point x="473" y="466"/>
    </contour>
    <contour>
      <point x="672" y="466" type="line"/>
      <point x="1008" y="466" type="line"/>
      <point x="1008" y="542" type="line"/>
      <point x="672" y="542" type="line"/>
    </contour>
    <contour>
      <point x="1220" y="672" type="curve"/>
      <point x="1132" y="672" type="line"/>
      <point x="1132" y="591"/>
      <point x="1089" y="548"/>
      <point x="1008" y="548" type="curve"/>
      <point x="1008" y="460" type="line"/>
      <point x="1146" y="460"/>
      <point x="1220" y="534"/>
    </contour>
  </outline>
</glyph>
<glyph name="asciitilde.alt1.ss02" format="2">
  <advance width="1680"/>
  <outline>
    <contour>
      <point x="460" y="336" type="curve"/>
      <point x="548" y="336" type="line"/>
      <point x="548" y="417"/>
      <point x="591" y="460"/>
      <point x="672" y="460" type="curve"/>
      <point x="672" y="548" type="line"/>
      <point x="534" y="548"/>
      <point x="460" y="474"/>
    </contour>
    <contour>
      <point x="672" y="466" type="line"/>
      <point x="1008" y="466" type="line"/>
      <point x="1008" y="542" type="line"/>
      <point x="672" y="542" type="line"/>
    </contour>
    <contour>
      <point x="1207" y="672" type="curve"/>
      <point x="1145" y="672" type="line"/>
      <point x="1145" y="583"/>
      <point x="1097" y="535"/>
      <point x="1008" y="535" type="curve"/>
      <point x="1008" y="473" type="line"/>
      <point x="1138" y="473"/>
      <point x="1207" y="542"/>
    </contour>
  </outline>
</glyph>
<glyph name="asciitilde.alt1.ss04" format="2">
  <advance width="1680"/>
  <outline>
    <contour>
      <point x="466" y="336" type="curve"/>
      <point x="542" y="336" type="line"/>
      <point x="542" y="421"/>
      <point x="587" y="466"/>
      <point x="672" y="466" type="curve"/>
      <point x="672" y="542" type="line"/>
      <point x="538" y="542"/>
      <point x="466" y="470"/>
    </contour>
    <contour>
      <point x="672" y="466" type="line"/>
      <point x="1008" y="466" type="line"/>
      <point x="1008" y="542" type="line"/>
      <point x="672" y="542" type="line"/>
    </contour>
    <contour>
      <point x="1214" y="672" type="curve"/>
      <point x="1138" y="672" type="line"/>
      <point x="1138" y="587"/>
      <point x="1093" y="542"/>
      <point x="1008" y="542" type="curve"/>
      <point x="1008" y="466" type="line"/>
      <point x="1142" y="466"/>
      <point x="1214" y="538"/>
    </contour>
  </outline>
</glyph>
<glyph name="asciitilde.alt1.ss07" format="2">
  <advance width="1680"/>
  <outline>
    <contour>
      <point x="479" y="336" type="curve"/>
      <point x="529" y="336" type="line"/>
      <point x="529" y="429"/>
      <point x="579" y="479"/>
      <point x="672" y="479" type="curve"/>
      <point x="672" y="529" type="line"/>
      <point x="547" y="529"/>
      <point x="479" y="461"/>
    </contour>
    <contour>
      <point x="672" y="479" type="line"/>
      <point x="1008" y="479" type="line"/>
      <point x="1008" y="529" type="line"/>
      <point x="672" y="529" type="line"/>
    </contour>
    <contour>
      <point x="1201" y="672" type="curve"/>
      <point x="1151" y="672" type="line"/>
      <point x="1151" y="579"/>
      <point x="1101" y="529"/>
      <point x="1008" y="529" type="curve"/>
      <point x="1008" y="479" type="line"/>
      <point x="1133" y="479"/>
      <point x="1201" y="547"/>
    </contour>
  </outline>
</glyph>
<glyph name="asciitilde.ss01" format="2">
  <advance width="1680"/>
  <outline>
    <contour>
      <point x="802" y="672" type="line"/>
      <point x="802" y="538"/>
      <point x="874" y="466"/>
      <point x="1008" y="466" type="curve"/>
      <point x="1008" y="542" type="line"/>
      <point x="923" y="542"/>
      <point x="878" y="587"/>
      <point x="878" y="672" type="curve"/>
    </contour>
    <contour>
      <point x="1220" y="672" type="curve"/>
      <point x="1132" y="672" type="line"/>
      <point x="1132" y="591"/>
      <point x="1089" y="548"/>
      <point x="1008" y="548" type="curve"/>
      <point x="1008" y="460" type="line"/>
      <point x="1146" y="460"/>
      <point x="1220" y="534"/>
    </contour>
    <contour>
      <point x="473" y="672" type="curve"/>
      <point x="535" y="672" type="line"/>
      <point x="535" y="761"/>
      <point x="583" y="809"/>
      <point x="672" y="809" type="curve"/>
      <point x="672" y="871" type="line"/>
      <point x="542" y="871"/>
      <point x="473" y="802"/>
    </contour>
    <contour>
      <point x="878" y="672" type="line"/>
      <point x="878" y="806"/>
      <point x="806" y="878"/>
      <point x="672" y="878" type="curve"/>
      <point x="672" y="802" type="line"/>
      <point x="757" y="802"/>
      <point x="802" y="757"/>
      <point x="802" y="672" type="curve"/>
    </contour>
  </outline>
</glyph>
<glyph name="asciitilde.ss02" format="2">
  <advance width="1680"/>
  <outline>
    <contour>
      <point x="802" y="672" type="line"/>
      <point x="802" y="538"/>
      <point x="874" y="466"/>
      <point x="1008" y="466" type="curve"/>
      <point x="1008" y="542" type="line"/>
      <point x="923" y="542"/>
      <point x="878" y="587"/>
      <point x="878" y="672" type="curve"/>
    </contour>
    <contour>
      <point x="1207" y="672" type="curve"/>
      <point x="1145" y="672" type="line"/>
      <point x="1145" y="583"/>
      <point x="1097" y="535"/>
      <point x="1008" y="535" type="curve"/>
      <point x="1008" y="473" type="line"/>
      <point x="1138" y="473"/>
      <point x="1207" y="542"/>
    </contour>
    <contour>
      <point x="460" y="672" type="curve"/>
      <point x="548" y="672" type="line"/>
      <point x="548" y="753"/>
      <point x="591" y="796"/>
      <point x="672" y="796" type="curve"/>
      <point x="672" y="884" type="line"/>
      <point x="534" y="884"/>
      <point x="460" y="810"/>
    </contour>
    <contour>
      <point x="878" y="672" type="line"/>
      <point x="878" y="806"/>
      <point x="806" y="878"/>
      <point x="672" y="878" type="curve"/>
      <point x="672" y="802" type="line"/>
      <point x="757" y="802"/>
      <point x="802" y="757"/>
      <point x="802" y="672" type="curve"/>
    </contour>
  </outline>
</glyph>
<glyph name="asciitilde.ss03" format="2">
  <advance width="1680"/>
  <outline>
    <contour>
      <point x="802" y="672" type="line"/>
      <point x="802" y="538"/>
      <point x="874" y="466"/>
      <point x="1008" y="466" type="curve"/>
      <point x="1008" y="542" type="line"/>
      <point x="923" y="542"/>
      <point x="878" y="587"/>
      <point x="878" y="672" type="curve"/>
    </contour>
    <contour>
      <point x="1214" y="672" type="curve"/>
      <point x="1138" y="672" type="line"/>
      <point x="1138" y="587"/>
      <point x="1093" y="542"/>
      <point x="1008" y="542" type="curve"/>
      <point x="1008" y="466" type="line"/>
      <point x="1142" y="466"/>
      <point x="1214" y="538"/>
    </contour>
    <contour>
      <point x="479" y="672" type="curve"/>
      <point x="529" y="672" type="line"/>
      <point x="529" y="765"/>
      <point x="579" y="815"/>
      <point x="672" y="815" type="curve"/>
      <point x="672" y="865" type="line"/>
      <point x="547" y="865"/>
      <point x="479" y="797"/>
    </contour>
    <contour>
      <point x="865" y="672" type="line"/>
      <point x="865" y="797"/>
      <point x="797" y="865"/>
      <point x="672" y="865" type="curve"/>
      <point x="672" y="815" type="line"/>
      <point x="765" y="815"/>
      <point x="815" y="765"/>
      <point x="815" y="672" type="curve"/>
    </contour>
  </outline>
</glyph>
<glyph name="asciitilde.ss04" format="2">
  <advance width="1680"/>
  <outline>
    <contour>
      <point x="802" y="672" type="line"/>
      <point x="802" y="538"/>
      <point x="874" y="466"/>
      <point x="1008" y="466" type="curve"/>
      <point x="1008" y="542" type="line"/>
      <point x="923" y="542"/>
      <point x="878" y="587"/>
      <point x="878" y="672" type="curve"/>
    </contour>
    <contour>
      <point x="1214" y="672" type="curve"/>
      <point x="1138" y="672" type="line"/>
      <point x="1138" y="587"/>
      <point x="1093" y="542"/>
      <point x="1008" y="542" type="curve"/>
      <point x="1008" y="466" type="line"/>
      <point x="1142" y="466"/>
      <point x="1214" y="538"/>
    </contour>
    <contour>
      <point x="454" y="672" type="curve"/>
      <point x="554" y="672" type="line"/>
      <point x="554" y="749"/>
      <point x="595" y="790"/>
      <point x="672" y="790" type="curve"/>
      <point x="672" y="890" type="line"/>
      <point x="530" y="890"/>
      <point x="454" y="814"/>
    </contour>
    <contour>
      <point x="890" y="672" type="line"/>
      <point x="890" y="814"/>
      <point x="814" y="890"/>
      <point x="672" y="890" type="curve"/>
      <point x="672" y="790" type="line"/>
      <point x="749" y="790"/>
      <point x="790" y="749"/>
      <point x="790" y="672" type="curve"/>
    </contour>
  </outline>
</glyph>
<glyph name="asciitilde.ss05" format="2">
  <advance width="1680"/>
  <outline>
    <contour>
      <point x="815" y="672" type="line"/>
      <point x="815" y="547"/>
      <point x="883" y="479"/>
      <point x="1008" y="479" type="curve"/>
      <point x="1008" y="529" type="line"/>
      <point x="915" y="529"/>
      <point x="865" y="579"/>
      <point x="865" y="672" type="curve"/>
    </contour>
    <contour>
      <point x="1201" y="672" type="curve"/>
      <point x="1151" y="672" type="line"/>
      <point x="1151" y="579"/>
      <point x="1101" y="529"/>
      <point x="1008" y="529" type="curve"/>
      <point x="1008" y="479" type="line"/>
      <point x="1133" y="479"/>
      <point x="1201" y="547"/>
    </contour>
    <contour>
      <point x="479" y="672" type="curve"/>
      <point x="529" y="672" type="line"/>
      <point x="529" y="765"/>
      <point x="579" y="815"/>
      <point x="672" y="815" type="curve"/>
      <point x="672" y="865" type="line"/>
      <point x="547" y="865"/>
      <point x="479" y="797"/>
    </contour>
    <contour>
      <point x="865" y="672" type="line"/>
      <point x="865" y="797"/>
      <point x="797" y="865"/>
      <point x="672" y="865" type="curve"/>
      <point x="672" y="815" type="line"/>
      <point x="765" y="815"/>
      <point x="815" y="765"/>
      <point x="815" y="672" type="curve"/>
    </contour>
  </outline>
</glyph>
<glyph name="asterisk.alt1.ss01" format="2">
  <advance width="1344"/>
  <outline>
    <contour>
      <point x="537" y="336" type="line"/>
      <point x="537" y="467"/>
      <point x="467" y="537"/>
      <point x="336" y="537" type="curve"/>
      <point x="336" y="471" type="line"/>
      <point x="424" y="471"/>
      <point x="471" y="424"/>
      <point x="471" y="336" type="curve"/>
    </contour>
    <contour>
      <point x="798" y="336" type="curve"/>
      <point x="882" y="336" type="line"/>
      <point x="882" y="418"/>
      <point x="926" y="462"/>
      <point x="1008" y="462" type="curve"/>
      <point x="1008" y="546" type="line"/>
      <point x="872" y="546"/>
      <point x="798" y="472"/>
    </contour>
    <contour>
      <point x="537" y="1008" type="curve"/>
      <point x="471" y="1008" type="line"/>
      <point x="471" y="920"/>
      <point x="424" y="873"/>
      <point x="336" y="873" type="curve"/>
      <point x="336" y="807" type="line"/>
      <point x="467" y="807"/>
      <point x="537" y="877"/>
    </contour>
    <contour>
      <point x="798" y="1008" type="line"/>
      <point x="798" y="872"/>
      <point x="872" y="798"/>
      <point x="1008" y="798" type="curve"/>
      <point x="1008" y="882" type="line"/>
      <point x="926" y="882"/>
      <point x="882" y="926"/>
      <point x="882" y="1008" type="curve"/>
    </contour>
  </outline>
</glyph>
<glyph name="asterisk.alt1.ss02" format="2">
  <advance width="1344"/>
  <outline>
    <contour>
      <point x="546" y="336" type="line"/>
      <point x="546" y="472"/>
      <point x="472" y="546"/>
      <point x="336" y="546" type="curve"/>
      <point x="336" y="462" type="line"/>
      <point x="418" y="462"/>
      <point x="462" y="418"/>
      <point x="462" y="336" type="curve"/>
    </contour>
    <contour>
      <point x="807" y="336" type="curve"/>
      <point x="873" y="336" type="line"/>
      <point x="873" y="424"/>
      <point x="920" y="471"/>
      <point x="1008" y="471" type="curve"/>
      <point x="1008" y="537" type="line"/>
      <point x="877" y="537"/>
      <point x="807" y="467"/>
    </contour>
    <contour>
      <point x="546" y="1008" type="curve"/>
      <point x="462" y="1008" type="line"/>
      <point x="462" y="926"/>
      <point x="418" y="882"/>
      <point x="336" y="882" type="curve"/>
      <point x="336" y="798" type="line"/>
      <point x="472" y="798"/>
      <point x="546" y="872"/>
    </contour>
    <contour>
      <point x="807" y="1008" type="line"/>
      <point x="807" y="877"/>
      <point x="877" y="807"/>
      <point x="1008" y="807" type="curve"/>
      <point x="1008" y="873" type="line"/>
      <point x="920" y="873"/>
      <point x="873" y="920"/>
      <point x="873" y="1008" type="curve"/>
    </contour>
  </outline>
</glyph>
<glyph name="asterisk.alt1.ss03" format="2">
  <advance width="1344"/>
  <outline>
    <contour>
      <point x="542" y="336" type="line"/>
      <point x="542" y="470"/>
      <point x="470" y="542"/>
      <point x="336" y="542" type="curve"/>
      <point x="336" y="466" type="line"/>
      <point x="421" y="466"/>
      <point x="466" y="421"/>
      <point x="466" y="336" type="curve"/>
    </contour>
    <contour>
      <point x="802" y="336" type="curve"/>
      <point x="878" y="336" type="line"/>
      <point x="878" y="421"/>
      <point x="923" y="466"/>
      <point x="1008" y="466" type="curve"/>
      <point x="1008" y="542" type="line"/>
      <point x="874" y="542"/>
      <point x="802" y="470"/>
    </contour>
    <contour>
      <point x="529" y="1008" type="curve"/>
      <point x="479" y="1008" type="line"/>
      <point x="479" y="915"/>
      <point x="429" y="865"/>
      <point x="336" y="865" type="curve"/>
      <point x="336" y="815" type="line"/>
      <point x="461" y="815"/>
      <point x="529" y="883"/>
    </contour>
    <contour>
      <point x="815" y="1008" type="line"/>
      <point x="815" y="883"/>
      <point x="883" y="815"/>
      <point x="1008" y="815" type="curve"/>
      <point x="1008" y="865" type="line"/>
      <point x="915" y="865"/>
      <point x="865" y="915"/>
      <point x="865" y="1008" type="curve"/>
    </contour>
  </outline>
</glyph>
<glyph name="asterisk.alt1.ss04" format="2">
  <advance width="1344"/>
  <outline>
    <contour>
      <point x="542" y="336" type="line"/>
      <point x="542" y="470"/>
      <point x="470" y="542"/>
      <point x="336" y="542" type="curve"/>
      <point x="336" y="466" type="line"/>
      <point x="421" y="466"/>
      <point x="466" y="421"/>
      <point x="466" y="336" type="curve"/>
    </contour>
    <contour>
      <point x="802" y="336" type="curve"/>
      <point x="878" y="336" type="line"/>
      <point x="878" y="421"/>
      <point x="923" y="466"/>
      <point x="1008" y="466" type="curve"/>
      <point x="1008" y="542" type="line"/>
      <point x="874" y="542"/>
      <point x="802" y="470"/>
    </contour>
    <contour>
      <point x="554" y="1008" type="curve"/>
      <point x="454" y="1008" type="line"/>
      <point x="454" y="931"/>
      <point x="413" y="890"/>
      <point x="336" y="890" type="curve"/>
      <point x="336" y="790" type="line"/>
      <point x="478" y="790"/>
      <point x="554" y="866"/>
    </contour>
    <contour>
      <point x="790" y="1008" type="line"/>
      <point x="790" y="866"/>
      <point x="866" y="790"/>
      <point x="1008" y="790" type="curve"/>
      <point x="1008" y="890" type="line"/>
      <point x="931" y="890"/>
      <point x="890" y="931"/>
      <point x="890" y="1008" type="curve"/>
    </contour>
  </outline>
</glyph>
<glyph name="asterisk.alt1.ss06" format="2">
  <advance width="1344"/>
  <outline>
    <contour>
      <point x="529" y="336" type="line"/>
      <point x="529" y="461"/>
      <point x="461" y="529"/>
      <point x="336" y="529" type="curve"/>
      <point x="336" y="479" type="line"/>
      <point x="429" y="479"/>
      <point x="479" y="429"/>
      <point x="479" y="336" type="curve"/>
    </contour>
    <contour>
      <point x="815" y="336" type="curve"/>
      <point x="865" y="336" type="line"/>
      <point x="865" y="429"/>
      <point x="915" y="479"/>
      <point x="1008" y="479" type="curve"/>
      <point x="1008" y="529" type="line"/>
      <point x="883" y="529"/>
      <point x="815" y="461"/>
    </contour>
    <contour>
      <point x="529" y="1008" type="curve"/>
      <point x="479" y="1008" type="line"/>
      <point x="479" y="915"/>
      <point x="429" y="865"/>
      <point x="336" y="865" type="curve"/>
      <point x="336" y="815" type="line"/>
      <point x="461" y="815"/>
      <point x="529" y="883"/>
    </contour>
    <contour>
      <point x="815" y="1008" type="line"/>
      <point x="815" y="883"/>
      <point x="883" y="815"/>
      <point x="1008" y="815" type="curve"/>
      <point x="1008" y="865" type="line"/>
      <point x="915" y="865"/>
      <point x="865" y="915"/>
      <point x="865" y="1008" type="curve"/>
    </contour>
  </outline>
</glyph>
<glyph name="asterisk.alt2.ss01" format="2">
  <advance width="1680"/>
  <outline>
    <contour>
      <point x="802" y="336" type="line"/>
      <point x="672" y="206" type="line"/>
      <point x="672" y="130" type="line"/>
      <point x="703" y="130" type="line"/>
      <point x="878" y="305" type="line"/>
      <point x="878" y="336" type="line"/>
    </contour>
    <contour>
      <point x="802" y="0" type="line"/>
      <point x="878" y="0" type="line"/>
      <point x="878" y="31" type="line"/>
      <point x="703" y="206" type="line"/>
      <point x="672" y="206" type="line"/>
      <point x="672" y="130" type="line"/>
    </contour>
    <contour>
      <point x="535" y="672" type="line"/>
      <point x="473" y="672" type="line"/>
      <point x="473" y="646" type="line"/>
      <point x="646" y="473" type="line"/>
      <point x="672" y="473" type="line"/>
      <point x="672" y="535" type="line"/>
    </contour>
    <contour>
      <point x="535" y="336" type="line"/>
      <point x="672" y="473" type="line"/>
      <point x="672" y="535" type="line"/>
      <point x="646" y="535" type="line"/>
      <point x="473" y="362" type="line"/>
      <point x="473" y="336" type="line"/>
    </contour>
    <contour>
      <point x="672" y="466" type="line"/>
      <point x="1008" y="466" type="line"/>
      <point x="1008" y="542" type="line"/>
      <point x="672" y="542" type="line"/>
    </contour>
    <contour>
      <point x="802" y="466" type="line"/>
      <point x="878" y="466" type="line"/>
      <point x="878" y="672" type="line"/>
      <point x="802" y="672" type="line"/>
    </contour>
    <contour>
      <point x="1132" y="672" type="line"/>
      <point x="1008" y="548" type="line"/>
      <point x="1008" y="460" type="line"/>
      <point x="1044" y="460" type="line"/>
      <point x="1220" y="636" type="line"/>
      <point x="1220" y="672" type="line"/>
    </contour>
    <contour>
      <point x="1220" y="672" type="line"/>
      <point x="1132" y="672" type="line"/>
      <point x="1132" y="636" type="line"/>
      <point x="1308" y="460" type="line"/>
      <point x="1344" y="460" type="line"/>
      <point x="1344" y="548" type="line"/>
    </contour>
    <contour>
      <point x="802" y="672" type="line"/>
      <point x="878" y="672" type="line"/>
      <point x="878" y="703" type="line"/>
      <point x="703" y="878" type="line"/>
      <point x="672" y="878" type="line"/>
      <point x="672" y="802" type="line"/>
    </contour>
    <contour>
      <point x="878" y="672" type="line"/>
      <point x="1008" y="802" type="line"/>
      <point x="1008" y="878" type="line"/>
      <point x="977" y="878" type="line"/>
      <point x="802" y="703" type="line"/>
      <point x="802" y="672" type="line"/>
    </contour>
  </outline>
</glyph>
<glyph name="asterisk.alt2.ss02" format="2">
  <advance width="1680"/>
  <outline>
    <contour>
      <point x="802" y="336" type="line"/>
      <point x="672" y="206" type="line"/>
      <point x="672" y="130" type="line"/>
      <point x="703" y="130" type="line"/>
      <point x="878" y="305" type="line"/>
      <point x="878" y="336" type="line"/>
    </contour>
    <contour>
      <point x="802" y="0" type="line"/>
      <point x="878" y="0" type="line"/>
      <point x="878" y="31" type="line"/>
      <point x="703" y="206" type="line"/>
      <point x="672" y="206" type="line"/>
      <point x="672" y="130" type="line"/>
    </contour>
    <contour>
      <point x="548" y="672" type="line"/>
      <point x="460" y="672" type="line"/>
      <point x="460" y="636" type="line"/>
      <point x="636" y="460" type="line"/>
      <point x="672" y="460" type="line"/>
      <point x="672" y="548" type="line"/>
    </contour>
    <contour>
      <point x="548" y="336" type="line"/>
      <point x="672" y="460" type="line"/>
      <point x="672" y="548" type="line"/>
      <point x="636" y="548" type="line"/>
      <point x="460" y="372" type="line"/>
      <point x="460" y="336" type="line"/>
    </contour>
    <contour>
      <point x="672" y="466" type="line"/>
      <point x="1008" y="466" type="line"/>
      <point x="1008" y="542" type="line"/>
      <point x="672" y="542" type="line"/>
    </contour>
    <contour>
      <point x="802" y="466" type="line"/>
      <point x="878" y="466" type="line"/>
      <point x="878" y="672" type="line"/>
      <point x="802" y="672" type="line"/>
    </contour>
    <contour>
      <point x="1145" y="672" type="line"/>
      <point x="1008" y="535" type="line"/>
      <point x="1008" y="473" type="line"/>
      <point x="1034" y="473" type="line"/>
      <point x="1207" y="646" type="line"/>
      <point x="1207" y="672" type="line"/>
    </contour>
    <contour>
      <point x="1207" y="672" type="line"/>
      <point x="1145" y="672" type="line"/>
      <point x="1145" y="646" type="line"/>
      <point x="1318" y="473" type="line"/>
      <point x="1344" y="473" type="line"/>
      <point x="1344" y="535" type="line"/>
    </contour>
    <contour>
      <point x="802" y="672" type="line"/>
      <point x="878" y="672" type="line"/>
      <point x="878" y="703" type="line"/>
      <point x="703" y="878" type="line"/>
      <point x="672" y="878" type="line"/>
      <point x="672" y="802" type="line"/>
    </contour>
    <contour>
      <point x="878" y="672" type="line"/>
      <point x="1008" y="802" type="line"/>
      <point x="1008" y="878" type="line"/>
      <point x="977" y="878" type="line"/>
      <point x="802" y="703" type="line"/>
      <point x="802" y="672" type="line"/>
    </contour>
  </outline>
</glyph>
<glyph name="asterisk.alt2.ss03" format="2">
  <advance width="1680"/>
  <outline>
    <contour>
      <point x="790" y="336" type="line"/>
      <point x="672" y="218" type="line"/>
      <point x="672" y="118" type="line"/>
      <point x="713" y="118" type="line"/>
      <point x="890" y="295" type="line"/>
      <point x="890" y="336" type="line"/>
    </contour>
    <contour>
      <point x="790" y="0" type="line"/>
      <point x="890" y="0" type="line"/>
      <point x="890" y="41" type="line"/>
      <point x="713" y="218" type="line"/>
      <point x="672" y="218" type="line"/>
      <point x="672" y="118" type="line"/>
    </contour>
    <contour>
      <point x="542" y="672" type="line"/>
      <point x="466" y="672" type="line"/>
      <point x="466" y="641" type="line"/>
      <point x="641" y="466" type="line"/>
      <point x="672" y="466" type="line"/>
      <point x="672" y="542" type="line"/>
    </contour>
    <contour>
      <point x="542" y="336" type="line"/>
      <point x="672" y="466" type="line"/>
      <point x="672" y="542" type="line"/>
      <point x="641" y="542" type="line"/>
      <point x="466" y="367" type="line"/>
      <point x="466" y="336" type="line"/>
    </contour>
    <contour>
      <point x="672" y="466" type="line"/>
      <point x="1008" y="466" type="line"/>
      <point x="1008" y="542" type="line"/>
      <point x="672" y="542" type="line"/>
    </contour>
    <contour>
      <point x="802" y="466" type="line"/>
      <point x="878" y="466" type="line"/>
      <point x="878" y="672" type="line"/>
      <point x="802" y="672" type="line"/>
    </contour>
    <contour>
      <point x="1138" y="672" type="line"/>
      <point x="1008" y="542" type="line"/>
      <point x="1008" y="466" type="line"/>
      <point x="1039" y="466" type="line"/>
      <point x="1214" y="641" type="line"/>
      <point x="1214" y="672" type="line"/>
    </contour>
    <contour>
      <point x="1214" y="672" type="line"/>
      <point x="1138" y="672" type="line"/>
      <point x="1138" y="641" type="line"/>
      <point x="1313" y="466" type="line"/>
      <point x="1344" y="466" type="line"/>
      <point x="1344" y="542" type="line"/>
    </contour>
    <contour>
      <point x="815" y="672" type="line"/>
      <point x="865" y="672" type="line"/>
      <point x="865" y="693" type="line"/>
      <point x="693" y="865" type="line"/>
      <point x="672" y="865" type="line"/>
      <point x="672" y="815" type="line"/>
    </contour>
    <contour>
      <point x="865" y="672" type="line"/>
      <point x="1008" y="815" type="line"/>
      <point x="1008" y="865" type="line"/>
      <point x="987" y="865" type="line"/>
      <point x="815" y="693" type="line"/>
      <point x="815" y="672" type="line"/>
    </contour>
  </outline>
</glyph>
<glyph name="asterisk.alt2.ss04" format="2">
  <advance width="1680"/>
  <outline>
    <contour>
      <point x="815" y="336" type="line"/>
      <point x="672" y="193" type="line"/>
      <point x="672" y="143" type="line"/>
      <point x="693" y="143" type="line"/>
      <point x="865" y="315" type="line"/>
      <point x="865" y="336" type="line"/>
    </contour>
    <contour>
      <point x="815" y="0" type="line"/>
      <point x="865" y="0" type="line"/>
      <point x="865" y="21" type="line"/>
      <point x="693" y="193" type="line"/>
      <point x="672" y="193" type="line"/>
      <point x="672" y="143" type="line"/>
    </contour>
    <contour>
      <point x="542" y="672" type="line"/>
      <point x="466" y="672" type="line"/>
      <point x="466" y="641" type="line"/>
      <point x="641" y="466" type="line"/>
      <point x="672" y="466" type="line"/>
      <point x="672" y="542" type="line"/>
    </contour>
    <contour>
      <point x="542" y="336" type="line"/>
      <point x="672" y="466" type="line"/>
      <point x="672" y="542" type="line"/>
      <point x="641" y="542" type="line"/>
      <point x="466" y="367" type="line"/>
      <point x="466" y="336" type="line"/>
    </contour>
    <contour>
      <point x="672" y="466" type="line"/>
      <point x="1008" y="466" type="line"/>
      <point x="1008" y="542" type="line"/>
      <point x="672" y="542" type="line"/>
    </contour>
    <contour>
      <point x="802" y="466" type="line"/>
      <point x="878" y="466" type="line"/>
      <point x="878" y="672" type="line"/>
      <point x="802" y="672" type="line"/>
    </contour>
    <contour>
      <point x="1138" y="672" type="line"/>
      <point x="1008" y="542" type="line"/>
      <point x="1008" y="466" type="line"/>
      <point x="1039" y="466" type="line"/>
      <point x="1214" y="641" type="line"/>
      <point x="1214" y="672" type="line"/>
    </contour>
    <contour>
      <point x="1214" y="672" type="line"/>
      <point x="1138" y="672" type="line"/>
      <point x="1138" y="641" type="line"/>
      <point x="1313" y="466" type="line"/>
      <point x="1344" y="466" type="line"/>
      <point x="1344" y="542" type="line"/>
    </contour>
    <contour>
      <point x="790" y="672" type="line"/>
      <point x="890" y="672" type="line"/>
      <point x="890" y="713" type="line"/>
      <point x="713" y="890" type="line"/>
      <point x="672" y="890" type="line"/>
      <point x="672" y="790" type="line"/>
    </contour>
    <contour>
      <point x="890" y="672" type="line"/>
      <point x="1008" y="790" type="line"/>
      <point x="1008" y="890" type="line"/>
      <point x="967" y="890" type="line"/>
      <point x="790" y="713" type="line"/>
      <point x="790" y="672" type="line"/>
    </contour>
  </outline>
</glyph>
<glyph name="asterisk.alt2.ss05" format="2">
  <advance width="1680"/>
  <outline>
    <contour>
      <point x="815" y="336" type="line"/>
      <point x="672" y="193" type="line"/>
      <point x="672" y="143" type="line"/>
      <point x="693" y="143" type="line"/>
      <point x="865" y="315" type="line"/>
      <point x="865" y="336" type="line"/>
    </contour>
    <contour>
      <point x="815" y="0" type="line"/>
      <point x="865" y="0" type="line"/>
      <point x="865" y="21" type="line"/>
      <point x="693" y="193" type="line"/>
      <point x="672" y="193" type="line"/>
      <point x="672" y="143" type="line"/>
    </contour>
    <contour>
      <point x="529" y="672" type="line"/>
      <point x="479" y="672" type="line"/>
      <point x="479" y="651" type="line"/>
      <point x="651" y="479" type="line"/>
      <point x="672" y="479" type="line"/>
      <point x="672" y="529" type="line"/>
    </contour>
    <contour>
      <point x="529" y="336" type="line"/>
      <point x="672" y="479" type="line"/>
      <point x="672" y="529" type="line"/>
      <point x="651" y="529" type="line"/>
      <point x="479" y="357" type="line"/>
      <point x="479" y="336" type="line"/>
    </contour>
    <contour>
      <point x="672" y="479" type="line"/>
      <point x="1008" y="479" type="line"/>
      <point x="1008" y="529" type="line"/>
      <point x="672" y="529" type="line"/>
    </contour>
    <contour>
      <point x="815" y="479" type="line"/>
      <point x="865" y="479" type="line"/>
      <point x="865" y="672" type="line"/>
      <point x="815" y="672" type="line"/>
    </contour>
    <contour>
      <point x="1151" y="672" type="line"/>
      <point x="1008" y="529" type="line"/>
      <point x="1008" y="479" type="line"/>
      <point x="1029" y="479" type="line"/>
      <point x="1201" y="651" type="line"/>
      <point x="1201" y="672" type="line"/>
    </contour>
    <contour>
      <point x="1201" y="672" type="line"/>
      <point x="1151" y="672" type="line"/>
      <point x="1151" y="651" type="line"/>
      <point x="1323" y="479" type="line"/>
      <point x="1344" y="479" type="line"/>
      <point x="1344" y="529" type="line"/>
    </contour>
    <contour>
      <point x="815" y="672" type="line"/>
      <point x="865" y="672" type="line"/>
      <point x="865" y="693" type="line"/>
      <point x="693" y="865" type="line"/>
      <point x="672" y="865" type="line"/>
      <point x="672" y="815" type="line"/>
    </contour>
    <contour>
      <point x="865" y="672" type="line"/>
      <point x="1008" y="815" type="line"/>
      <point x="1008" y="865" type="line"/>
      <point x="987" y="865" type="line"/>
      <point x="815" y="693" type="line"/>
      <point x="815" y="672" type="line"/>
    </contour>
  </outline>
</glyph>
<glyph name="asterisk.ss02" format="2">
  <advance width="1680"/>
  <outline>
    <contour>
      <point x="460" y="336" type="line"/>
      <point x="336" y="212" type="line"/>
      <point x="336" y="124" type="line"/>
      <point x="372" y="124" type="line"/>
      <point x="548" y="300" type="line"/>
      <point x="548" y="336" type="line"/>
    </contour>
    <contour>
      <point x="802" y="130" type="line"/>
      <point x="878" y="130" type="line"/>
      <point x="878" y="336" type="line"/>
      <point x="802" y="336" type="line"/>
    </contour>
    <contour>
      <point x="1207" y="336" type="line"/>
      <point x="1145" y="336" type="line"/>
      <point x="1145" y="310" type="line"/>
      <point x="1318" y="137" type="line"/>
      <point x="1344" y="137" type="line"/>
      <point x="1344" y="199" type="line"/>
    </contour>
    <contour>
      <point x="548" y="672" type="line"/>
      <point x="460" y="672" type="line"/>
      <point x="460" y="636" type="line"/>
      <point x="636" y="460" type="line"/>
      <point x="672" y="460" type="line"/>
      <point x="672" y="548" type="line"/>
    </contour>
    <contour>
      <point x="548" y="336" type="line"/>
      <point x="672" y="460" type="line"/>
      <point x="672" y="548" type="line"/>
      <point x="636" y="548" type="line"/>
      <point x="460" y="372" type="line"/>
      <point x="460" y="336" type="line"/>
    </contour>
    <contour>
      <point x="672" y="466" type="line"/>
      <point x="1008" y="466" type="line"/>
      <point x="1008" y="542" type="line"/>
      <point x="672" y="542" type="line"/>
    </contour>
    <contour>
      <point x="802" y="466" type="line"/>
      <point x="878" y="466" type="line"/>
      <point x="878" y="672" type="line"/>
      <point x="802" y="672" type="line"/>
    </contour>
    <contour>
      <point x="1145" y="672" type="line"/>
      <point x="1008" y="535" type="line"/>
      <point x="1008" y="473" type="line"/>
      <point x="1034" y="473" type="line"/>
      <point x="1207" y="646" type="line"/>
      <point x="1207" y="672" type="line"/>
    </contour>
    <contour>
      <point x="1207" y="672" type="line"/>
      <point x="1145" y="672" type="line"/>
      <point x="1145" y="646" type="line"/>
      <point x="1318" y="473" type="line"/>
      <point x="1344" y="473" type="line"/>
      <point x="1344" y="535" type="line"/>
    </contour>
    <contour>
      <point x="460" y="672" type="line"/>
      <point x="548" y="672" type="line"/>
      <point x="548" y="708" type="line"/>
      <point x="372" y="884" type="line"/>
      <point x="336" y="884" type="line"/>
      <point x="336" y="796" type="line"/>
    </contour>
    <contour>
      <point x="802" y="672" type="line"/>
      <point x="878" y="672" type="line"/>
      <point x="878" y="878" type="line"/>
      <point x="802" y="878" type="line"/>
    </contour>
    <contour>
      <point x="1207" y="672" type="line"/>
      <point x="1344" y="809" type="line"/>
      <point x="1344" y="871" type="line"/>
      <point x="1318" y="871" type="line"/>
      <point x="1145" y="698" type="line"/>
      <point x="1145" y="672" type="line"/>
    </contour>
  </outline>
</glyph>
<glyph name="asterisk.ss03" format="2">
  <advance width="1680"/>
  <outline>
    <contour>
      <point x="454" y="336" type="line"/>
      <point x="336" y="218" type="line"/>
      <point x="336" y="118" type="line"/>
      <point x="377" y="118" type="line"/>
      <point x="554" y="295" type="line"/>
      <point x="554" y="336" type="line"/>
    </contour>
    <contour>
      <point x="790" y="118" type="line"/>
      <point x="890" y="118" type="line"/>
      <point x="890" y="336" type="line"/>
      <point x="790" y="336" type="line"/>
    </contour>
    <contour>
      <point x="1226" y="336" type="line"/>
      <point x="1126" y="336" type="line"/>
      <point x="1126" y="295" type="line"/>
      <point x="1303" y="118" type="line"/>
      <point x="1344" y="118" type="line"/>
      <point x="1344" y="218" type="line"/>
    </contour>
    <contour>
      <point x="542" y="672" type="line"/>
      <point x="466" y="672" type="line"/>
      <point x="466" y="641" type="line"/>
      <point x="641" y="466" type="line"/>
      <point x="672" y="466" type="line"/>
      <point x="672" y="542" type="line"/>
    </contour>
    <contour>
      <point x="542" y="336" type="line"/>
      <point x="672" y="466" type="line"/>
      <point x="672" y="542" type="line"/>
      <point x="641" y="542" type="line"/>
      <point x="466" y="367" type="line"/>
      <point x="466" y="336" type="line"/>
    </contour>
    <contour>
      <point x="672" y="466" type="line"/>
      <point x="1008" y="466" type="line"/>
      <point x="1008" y="542" type="line"/>
      <point x="672" y="542" type="line"/>
    </contour>
    <contour>
      <point x="802" y="466" type="line"/>
      <point x="878" y="466" type="line"/>
      <point x="878" y="672" type="line"/>
      <point x="802" y="672" type="line"/>
    </contour>
    <contour>
      <point x="1138" y="672" type="line"/>
      <point x="1008" y="542" type="line"/>
      <point x="1008" y="466" type="line"/>
      <point x="1039" y="466" type="line"/>
      <point x="1214" y="641" type="line"/>
      <point x="1214" y="672" type="line"/>
    </contour>
    <contour>
      <point x="1214" y="672" type="line"/>
      <point x="1138" y="672" type="line"/>
      <point x="1138" y="641" type="line"/>
      <point x="1313" y="466" type="line"/>
      <point x="1344" y="466" type="line"/>
      <point x="1344" y="542" type="line"/>
    </contour>
    <contour>
      <point x="479" y="672" type="line"/>
      <point x="529" y="672" type="line"/>
      <point x="529" y="693" type="line"/>
      <point x="357" y="865" type="line"/>
      <point x="336" y="865" type="line"/>
      <point x="336" y="815" type="line"/>
    </contour>
    <contour>
      <point x="815" y="672" type="line"/>
      <point x="865" y="672" type="line"/>
      <point x="865" y="865" type="line"/>
      <point x="815" y="865" type="line"/>
    </contour>
    <contour>
      <point x="1201" y="672" type="line"/>
      <point x="1344" y="815" type="line"/>
      <point x="1344" y="865" type="line"/>
      <point x="1323" y="865" type="line"/>
      <point x="1151" y="693" type="line"/>
      <point x="1151" y="672" type="line"/>
    </contour>
  </outline>
</glyph>
<glyph name="asterisk.ss04" format="2">
  <advance width="1680"/>
  <outline>
    <contour>
      <point x="479" y="336" type="line"/>
      <point x="336" y="193" type="line"/>
      <point x="336" y="143" type="line"/>
      <point x="357" y="143" type="line"/>
      <point x="529" y="315" type="line"/>
      <point x="529" y="336" type="line"/>
    </contour>
    <contour>
      <point x="815" y="143" type="line"/>
      <point x="865" y="143" type="line"/>
      <point x="865" y="336" type="line"/>
      <point x="815" y="336" type="line"/>
    </contour>
    <contour>
      <point x="1201" y="336" type="line"/>
      <point x="1151" y="336" type="line"/>
      <point x="1151" y="315" type="line"/>
      <point x="1323" y="143" type="line"/>
      <point x="1344" y="143" type="line"/>
      <point x="1344" y="193" type="line"/>
    </contour>
    <contour>
      <point x="542" y="672" type="line"/>
      <point x="466" y="672" type="line"/>
      <point x="466" y="641" type="line"/>
      <point x="641" y="466" type="line"/>
      <point x="672" y="466" type="line"/>
      <point x="672" y="542" type="line"/>
    </contour>
    <contour>
      <point x="542" y="336" type="line"/>
      <point x="672" y="466" type="line"/>
      <point x="672" y="542" type="line"/>
      <point x="641" y="542" type="line"/>
      <point x="466" y="367" type="line"/>
      <point x="466" y="336" type="line"/>
    </contour>
    <contour>
      <point x="672" y="466" type="line"/>
      <point x="1008" y="466" type="line"/>
      <point x="1008" y="542" type="line"/>
      <point x="672" y="542" type="line"/>
    </contour>
    <contour>
      <point x="802" y="466" type="line"/>
      <point x="878" y="466" type="line"/>
      <point x="878" y="672" type="line"/>
      <point x="802" y="672" type="line"/>
    </contour>
    <contour>
      <point x="1138" y="672" type="line"/>
      <point x="1008" y="542" type="line"/>
      <point x="1008" y="466" type="line"/>
      <point x="1039" y="466" type="line"/>
      <point x="1214" y="641" type="line"/>
      <point x="1214" y="672" type="line"/>
    </contour>
    <contour>
      <point x="1214" y="672" type="line"/>
      <point x="1138" y="672" type="line"/>
      <point x="1138" y="641" type="line"/>
      <point x="1313" y="466" type="line"/>
      <point x="1344" y="466" type="line"/>
      <point x="1344" y="542" type="line"/>
    </contour>
    <contour>
      <point x="454" y="672" type="line"/>
      <point x="554" y="672" type="line"/>
      <point x="554" y="713" type="line"/>
      <point x="377" y="890" type="line"/>
      <point x="336" y="890" type="line"/>
      <point x="336" y="790" type="line"/>
    </contour>
    <contour>
      <point x="790" y="672" type="line"/>
      <point x="890" y="672" type="line"/>
      <point x="890" y="890" type="line"/>
      <point x="790" y="890" type="line"/>
    </contour>
    <contour>
      <point x="1226" y="672" type="line"/>
      <point x="1344" y="790" type="line"/>
      <point x="1344" y="890" type="line"/>
      <point x="1303" y="890" type="line"/>
      <point x="1126" y="713" type="line"/>
      <point x="1126" y="672" type="line"/>
    </contour>
  </outline>
</glyph>
<glyph name="b.alt1" format="2">
  <advance width="1008"/>
  <outline>
    <contour>
      <point x="143" y="143" type="line"/>
      <point x="336" y="143" type="line"/>
      <point x="336" y="193" type="line"/>
      <point x="143" y="193" type="line"/>
    </contour>
    <contour>
      <point x="143" y="143" type="line"/>
      <point x="193" y="143" type="line"/>
      <point x="193" y="336" type="line"/>
      <point x="143" y="336" type="line"/>
    </contour>
    <contour>
      <point x="336" y="143" type="line"/>
      <point x="672" y="143" type="line"/>
      <point x="672" y="193" type="line"/>
      <point x="336" y="193" type="line"/>
    </contour>
    <contour>
      <point x="865" y="336" type="curve"/>
      <point x="815" y="336" type="line"/>
      <point x="815" y="243"/>
      <point x="765" y="193"/>
      <point x="672" y="193" type="curve"/>
      <point x="672" y="143" type="line"/>
      <point x="797" y="143"/>
      <point x="865" y="211"/>
    </contour>
    <contour>
      <point x="143" y="336" type="line"/>
      <point x="193" y="336" type="line"/>
      <point x="193" y="672" type="line"/>
      <point x="143" y="672" type="line"/>
    </contour>
    <contour>
      <point x="143" y="479" type="line"/>
      <point x="336" y="479" type="line"/>
      <point x="336" y="529" type="line"/>
      <point x="143" y="529" type="line"/>
    </contour>
    <contour>
      <point x="336" y="479" type="line"/>
      <point x="672" y="479" type="line"/>
      <point x="672" y="529" type="line"/>
      <point x="336" y="529" type="line"/>
    </contour>
    <contour>
      <point x="815" y="672" type="line"/>
      <point x="672" y="529" type="line"/>
      <point x="672" y="479" type="line"/>
      <point x="693" y="479" type="line"/>
      <point x="865" y="651" type="line"/>
      <point x="865" y="672" type="line"/>
    </contour>
    <contour>
      <point x="815" y="336" type="line"/>
      <point x="865" y="336" type="line"/>
      <point x="865" y="357" type="line"/>
      <point x="693" y="529" type="line"/>
      <point x="672" y="529" type="line"/>
      <point x="672" y="479" type="line"/>
    </contour>
    <contour>
      <point x="143" y="815" type="line"/>
      <point x="336" y="815" type="line"/>
      <point x="336" y="865" type="line"/>
      <point x="143" y="865" type="line"/>
    </contour>
    <contour>
      <point x="143" y="672" type="line"/>
      <point x="193" y="672" type="line"/>
      <point x="193" y="865" type="line"/>
      <point x="143" y="865" type="line"/>
    </contour>
    <contour>
      <point x="336" y="815" type="line"/>
      <point x="672" y="815" type="line"/>
      <point x="672" y="865" type="line"/>
      <point x="336" y="865" type="line"/>
    </contour>
    <contour>
      <point x="865" y="672" type="line"/>
      <point x="865" y="797"/>
      <point x="797" y="865"/>
      <point x="672" y="865" type="curve"/>
      <point x="672" y="815" type="line"/>
      <point x="765" y="815"/>
      <point x="815" y="765"/>
      <point x="815" y="672" type="curve"/>
    </contour>
  </outline>
</glyph>
<glyph name="b.alt2" format="2">
  <advance width="1008"/>
  <outline>
    <contour>
      <point x="118" y="118" type="line"/>
      <point x="336" y="118" type="line"/>
      <point x="336" y="218" type="line"/>
      <point x="118" y="218" type="line"/>
    </contour>
    <contour>
      <point x="118" y="118" type="line"/>
      <point x="218" y="118" type="line"/>
      <point x="218" y="336" type="line"/>
      <point x="118" y="336" type="line"/>
    </contour>
    <contour>
      <point x="336" y="118" type="line"/>
      <point x="672" y="118" type="line"/>
      <point x="672" y="218" type="line"/>
      <point x="336" y="218" type="line"/>
    </contour>
    <contour>
      <point x="890" y="336" type="curve"/>
      <point x="790" y="336" type="line"/>
      <point x="790" y="270"/>
      <point x="738" y="218"/>
      <point x="672" y="218" type="curve"/>
      <point x="672" y="118" type="line"/>
      <point x="794" y="118"/>
      <point x="890" y="214"/>
    </contour>
    <contour>
      <point x="118" y="336" type="line"/>
      <point x="218" y="336" type="line"/>
      <point x="218" y="672" type="line"/>
      <point x="118" y="672" type="line"/>
    </contour>
    <contour>
      <point x="118" y="454" type="line"/>
      <point x="336" y="454" type="line"/>
      <point x="336" y="554" type="line"/>
      <point x="118" y="554" type="line"/>
    </contour>
    <contour>
      <point x="454" y="672" type="line"/>
      <point x="336" y="554" type="line"/>
      <point x="336" y="454" type="line"/>
      <point x="377" y="454" type="line"/>
      <point x="554" y="631" type="line"/>
      <point x="554" y="672" type="line"/>
    </contour>
    <contour>
      <point x="554" y="672" type="line"/>
      <point x="454" y="672" type="line"/>
      <point x="454" y="631" type="line"/>
      <point x="631" y="454" type="line"/>
      <point x="672" y="454" type="line"/>
      <point x="672" y="554" type="line"/>
    </contour>
    <contour>
      <point x="790" y="672" type="line"/>
      <point x="672" y="554" type="line"/>
      <point x="672" y="454" type="line"/>
      <point x="713" y="454" type="line"/>
      <point x="890" y="631" type="line"/>
      <point x="890" y="672" type="line"/>
    </contour>
    <contour>
      <point x="790" y="336" type="line"/>
      <point x="890" y="336" type="line"/>
      <point x="890" y="377" type="line"/>
      <point x="713" y="554" type="line"/>
      <point x="672" y="554" type="line"/>
      <point x="672" y="454" type="line"/>
    </contour>
    <contour>
      <point x="118" y="790" type="line"/>
      <point x="336" y="790" type="line"/>
      <point x="336" y="890" type="line"/>
      <point x="118" y="890" type="line"/>
    </contour>
    <contour>
      <point x="118" y="672" type="line"/>
      <point x="218" y="672" type="line"/>
      <point x="218" y="890" type="line"/>
      <point x="118" y="890" type="line"/>
    </contour>
    <contour>
      <point x="336" y="790" type="line"/>
      <point x="672" y="790" type="line"/>
      <point x="672" y="890" type="line"/>
      <point x="336" y="890" type="line"/>
    </contour>
    <contour>
      <point x="890" y="672" type="line"/>
      <point x="890" y="794"/>
      <point x="794" y="890"/>
      <point x="672" y="890" type="curve"/>
      <point x="672" y="790" type="line"/>
      <point x="738" y="790"/>
      <point x="790" y="738"/>
      <point x="790" y="672" type="curve"/>
    </contour>
  </outline>
</glyph>
<glyph name="b.alt2.ss01" format="2">
  <advance width="1008"/>
  <outline>
    <contour>
      <point x="143" y="143" type="line"/>
      <point x="336" y="143" type="line"/>
      <point x="336" y="193" type="line"/>
      <point x="143" y="193" type="line"/>
    </contour>
    <contour>
      <point x="143" y="143" type="line"/>
      <point x="193" y="143" type="line"/>
      <point x="193" y="336" type="line"/>
      <point x="143" y="336" type="line"/>
    </contour>
    <contour>
      <point x="336" y="130" type="line"/>
      <point x="672" y="130" type="line"/>
      <point x="672" y="206" type="line"/>
      <point x="336" y="206" type="line"/>
    </contour>
    <contour>
      <point x="890" y="336" type="curve"/>
      <point x="790" y="336" type="line"/>
      <point x="790" y="259"/>
      <point x="749" y="218"/>
      <point x="672" y="218" type="curve"/>
      <point x="672" y="118" type="line"/>
      <point x="814" y="118"/>
      <point x="890" y="194"/>
    </contour>
    <contour>
      <point x="143" y="336" type="line"/>
      <point x="193" y="336" type="line"/>
      <point x="193" y="672" type="line"/>
      <point x="143" y="672" type="line"/>
    </contour>
    <contour>
      <point x="143" y="479" type="line"/>
      <point x="336" y="479" type="line"/>
      <point x="336" y="529" type="line"/>
      <point x="143" y="529" type="line"/>
    </contour>
    <contour>
      <point x="466" y="672" type="line"/>
      <point x="336" y="542" type="line"/>
      <point x="336" y="466" type="line"/>
      <point x="367" y="466" type="line"/>
      <point x="542" y="641" type="line"/>
      <point x="542" y="672" type="line"/>
    </contour>
    <contour>
      <point x="542" y="672" type="line"/>
      <point x="466" y="672" type="line"/>
      <point x="466" y="641" type="line"/>
      <point x="641" y="466" type="line"/>
      <point x="672" y="466" type="line"/>
      <point x="672" y="542" type="line"/>
    </contour>
    <contour>
      <point x="790" y="672" type="line"/>
      <point x="672" y="554" type="line"/>
      <point x="672" y="454" type="line"/>
      <point x="713" y="454" type="line"/>
      <point x="890" y="631" type="line"/>
      <point x="890" y="672" type="line"/>
    </contour>
    <contour>
      <point x="790" y="336" type="line"/>
      <point x="890" y="336" type="line"/>
      <point x="890" y="377" type="line"/>
      <point x="713" y="554" type="line"/>
      <point x="672" y="554" type="line"/>
      <point x="672" y="454" type="line"/>
    </contour>
    <contour>
      <point x="143" y="815" type="line"/>
      <point x="336" y="815" type="line"/>
      <point x="336" y="865" type="line"/>
      <point x="143" y="865" type="line"/>
    </contour>
    <contour>
      <point x="143" y="672" type="line"/>
      <point x="193" y="672" type="line"/>
      <point x="193" y="865" type="line"/>
      <point x="143" y="865" type="line"/>
    </contour>
    <contour>
      <point x="336" y="802" type="line"/>
      <point x="672" y="802" type="line"/>
      <point x="672" y="878" type="line"/>
      <point x="336" y="878" type="line"/>
    </contour>
    <contour>
      <point x="890" y="672" type="line"/>
      <point x="890" y="814"/>
      <point x="814" y="890"/>
      <point x="672" y="890" type="curve"/>
      <point x="672" y="790" type="line"/>
      <point x="749" y="790"/>
      <point x="790" y="749"/>
      <point x="790" y="672" type="curve"/>
    </contour>
  </outline>
</glyph>
<glyph name="b.ss01" format="2">
  <advance width="1176.0"/>
  <outline>
    <contour>
      <point x="311.0" y="143" type="line"/>
      <point x="504.0" y="143" type="line"/>
      <point x="504.0" y="193" type="line"/>
      <point x="311.0" y="193" type="line"/>
    </contour>
    <contour>
      <point x="311.0" y="143" type="line"/>
      <point x="361.0" y="143" type="line"/>
      <point x="361.0" y="336" type="line"/>
      <point x="311.0" y="336" type="line"/>
    </contour>
    <contour>
      <point x="504.0" y="130" type="line"/>
      <point x="840.0" y="130" type="line"/>
      <point x="840.0" y="206" type="line"/>
      <point x="504.0" y="206" type="line"/>
    </contour>
    <contour>
      <point x="1058.0" y="336" type="curve"/>
      <point x="958.0" y="336" type="line"/>
      <point x="958.0" y="259"/>
      <point x="917.0" y="218"/>
      <point x="840.0" y="218" type="curve"/>
      <point x="840.0" y="118" type="line"/>
      <point x="982.0" y="118"/>
      <point x="1058.0" y="194"/>
    </contour>
    <contour>
      <point x="311.0" y="336" type="line"/>
      <point x="361.0" y="336" type="line"/>
      <point x="361.0" y="672" type="line"/>
      <point x="311.0" y="672" type="line"/>
    </contour>
    <contour>
      <point x="311.0" y="479" type="line"/>
      <point x="504.0" y="479" type="line"/>
      <point x="504.0" y="529" type="line"/>
      <point x="311.0" y="529" type="line"/>
    </contour>
    <contour>
      <point x="504.0" y="466" type="line"/>
      <point x="840.0" y="466" type="line"/>
      <point x="840.0" y="542" type="line"/>
      <point x="504.0" y="542" type="line"/>
    </contour>
    <contour>
      <point x="1058.0" y="336" type="line"/>
      <point x="1058.0" y="478"/>
      <point x="982.0" y="554"/>
      <point x="840.0" y="554" type="curve"/>
      <point x="840.0" y="454" type="line"/>
      <point x="917.0" y="454"/>
      <point x="958.0" y="413"/>
      <point x="958.0" y="336" type="curve"/>
    </contour>
    <contour>
      <point x="361.0" y="672" type="line"/>
      <point x="361.0" y="797"/>
      <point x="293.0" y="865"/>
      <point x="168.0" y="865" type="curve"/>
      <point x="168.0" y="815" type="line"/>
      <point x="261.0" y="815"/>
      <point x="311.0" y="765"/>
      <point x="311.0" y="672" type="curve"/>
    </contour>
  </outline>
</glyph>
<glyph name="b.ss02" format="2">
  <advance width="1176.0"/>
  <outline>
    <contour>
      <point x="286.0" y="118" type="line"/>
      <point x="504.0" y="118" type="line"/>
      <point x="504.0" y="218" type="line"/>
      <point x="286.0" y="218" type="line"/>
    </contour>
    <contour>
      <point x="286.0" y="118" type="line"/>
      <point x="386.0" y="118" type="line"/>
      <point x="386.0" y="336" type="line"/>
      <point x="286.0" y="336" type="line"/>
    </contour>
    <contour>
      <point x="504.0" y="118" type="line"/>
      <point x="840.0" y="118" type="line"/>
      <point x="840.0" y="218" type="line"/>
      <point x="504.0" y="218" type="line"/>
    </contour>
    <contour>
      <point x="1058.0" y="336" type="curve"/>
      <point x="958.0" y="336" type="line"/>
      <point x="958.0" y="270"/>
      <point x="906.0" y="218"/>
      <point x="840.0" y="218" type="curve"/>
      <point x="840.0" y="118" type="line"/>
      <point x="962.0" y="118"/>
      <point x="1058.0" y="214"/>
    </contour>
    <contour>
      <point x="286.0" y="336" type="line"/>
      <point x="386.0" y="336" type="line"/>
      <point x="386.0" y="672" type="line"/>
      <point x="286.0" y="672" type="line"/>
    </contour>
    <contour>
      <point x="286.0" y="454" type="line"/>
      <point x="504.0" y="454" type="line"/>
      <point x="504.0" y="554" type="line"/>
      <point x="286.0" y="554" type="line"/>
    </contour>
    <contour>
      <point x="504.0" y="454" type="line"/>
      <point x="840.0" y="454" type="line"/>
      <point x="840.0" y="554" type="line"/>
      <point x="504.0" y="554" type="line"/>
    </contour>
    <contour>
      <point x="1058.0" y="336" type="line"/>
      <point x="1058.0" y="458"/>
      <point x="962.0" y="554"/>
      <point x="840.0" y="554" type="curve"/>
      <point x="840.0" y="454" type="line"/>
      <point x="906.0" y="454"/>
      <point x="958.0" y="402"/>
      <point x="958.0" y="336" type="curve"/>
    </contour>
    <contour>
      <point x="386.0" y="672" type="line"/>
      <point x="386.0" y="794"/>
      <point x="290.0" y="890"/>
      <point x="168.0" y="890" type="curve"/>
      <point x="168.0" y="790" type="line"/>
      <point x="234.0" y="790"/>
      <point x="286.0" y="738"/>
      <point x="286.0" y="672" type="curve"/>
    </contour>
  </outline>
</glyph>
<glyph name="b.ss04" format="2">
  <advance width="1176.0"/>
  <outline>
    <contour>
      <point x="311.0" y="143" type="line"/>
      <point x="504.0" y="143" type="line"/>
      <point x="504.0" y="193" type="line"/>
      <point x="311.0" y="193" type="line"/>
    </contour>
    <contour>
      <point x="311.0" y="143" type="line"/>
      <point x="361.0" y="143" type="line"/>
      <point x="361.0" y="336" type="line"/>
      <point x="311.0" y="336" type="line"/>
    </contour>
    <contour>
      <point x="504.0" y="143" type="line"/>
      <point x="840.0" y="143" type="line"/>
      <point x="840.0" y="193" type="line"/>
      <point x="504.0" y="193" type="line"/>
    </contour>
    <contour>
      <point x="1033.0" y="336" type="curve"/>
      <point x="983.0" y="336" type="line"/>
      <point x="983.0" y="243"/>
      <point x="933.0" y="193"/>
      <point x="840.0" y="193" type="curve"/>
      <point x="840.0" y="143" type="line"/>
      <point x="965.0" y="143"/>
      <point x="1033.0" y="211"/>
    </contour>
    <contour>
      <point x="298.0" y="336" type="line"/>
      <point x="374.0" y="336" type="line"/>
      <point x="374.0" y="672" type="line"/>
      <point x="298.0" y="672" type="line"/>
    </contour>
    <contour>
      <point x="298.0" y="466" type="line"/>
      <point x="504.0" y="466" type="line"/>
      <point x="504.0" y="542" type="line"/>
      <point x="298.0" y="542" type="line"/>
    </contour>
    <contour>
      <point x="504.0" y="466" type="line"/>
      <point x="840.0" y="466" type="line"/>
      <point x="840.0" y="542" type="line"/>
      <point x="504.0" y="542" type="line"/>
    </contour>
    <contour>
      <point x="1046.0" y="336" type="line"/>
      <point x="1046.0" y="470"/>
      <point x="974.0" y="542"/>
      <point x="840.0" y="542" type="curve"/>
      <point x="840.0" y="466" type="line"/>
      <point x="925.0" y="466"/>
      <point x="970.0" y="421"/>
      <point x="970.0" y="336" type="curve"/>
    </contour>
    <contour>
      <point x="386.0" y="672" type="line"/>
      <point x="386.0" y="814"/>
      <point x="310.0" y="890"/>
      <point x="168.0" y="890" type="curve"/>
      <point x="168.0" y="790" type="line"/>
      <point x="245.0" y="790"/>
      <point x="286.0" y="749"/>
      <point x="286.0" y="672" type="curve"/>
    </contour>
  </outline>
</glyph>
<glyph name="b.ss06" format="2">
  <advance width="1848.0"/>
  <outline>
    <contour>
      <point x="311.0" y="143" type="line"/>
      <point x="504.0" y="143" type="line"/>
      <point x="504.0" y="193" type="line"/>
      <point x="311.0" y="193" type="line"/>
    </contour>
    <contour>
      <point x="311.0" y="143" type="line"/>
      <point x="361.0" y="143" type="line"/>
      <point x="361.0" y="336" type="line"/>
      <point x="311.0" y="336" type="line"/>
    </contour>
    <contour>
      <point x="504.0" y="143" type="line"/>
      <point x="1512.0" y="143" type="line"/>
      <point x="1512.0" y="193" type="line"/>
      <point x="504.0" y="193" type="line"/>
    </contour>
    <contour>
      <point x="1705.0" y="336" type="curve"/>
      <point x="1655.0" y="336" type="line"/>
      <point x="1655.0" y="243"/>
      <point x="1605.0" y="193"/>
      <point x="1512.0" y="193" type="curve"/>
      <point x="1512.0" y="143" type="line"/>
      <point x="1637.0" y="143"/>
      <point x="1705.0" y="211"/>
    </contour>
    <contour>
      <point x="311.0" y="336" type="line"/>
      <point x="361.0" y="336" type="line"/>
      <point x="361.0" y="672" type="line"/>
      <point x="311.0" y="672" type="line"/>
    </contour>
    <contour>
      <point x="311.0" y="479" type="line"/>
      <point x="504.0" y="479" type="line"/>
      <point x="504.0" y="529" type="line"/>
      <point x="311.0" y="529" type="line"/>
    </contour>
    <contour>
      <point x="504.0" y="479" type="line"/>
      <point x="1512.0" y="479" type="line"/>
      <point x="1512.0" y="529" type="line"/>
      <point x="504.0" y="529" type="line"/>
    </contour>
    <contour>
      <point x="1705.0" y="336" type="line"/>
      <point x="1705.0" y="461"/>
      <point x="1637.0" y="529"/>
      <point x="1512.0" y="529" type="curve"/>
      <point x="1512.0" y="479" type="line"/>
      <point x="1605.0" y="479"/>
      <point x="1655.0" y="429"/>
      <point x="1655.0" y="336" type="curve"/>
    </contour>
    <contour>
      <point x="361.0" y="672" type="line"/>
      <point x="361.0" y="797"/>
      <point x="293.0" y="865"/>
      <point x="168.0" y="865" type="curve"/>
      <point x="168.0" y="815" type="line"/>
      <point x="261.0" y="815"/>
      <point x="311.0" y="765"/>
      <point x="311.0" y="672" type="curve"/>
    </contour>
  </outline>
</glyph>
<glyph name="backslash.ss01" format="2">
  <advance width="1344"/>
  <outline>
    <contour>
      <point x="882" y="336" type="line"/>
      <point x="798" y="336" type="line"/>
      <point x="798" y="301" type="line"/>
      <point x="973" y="126" type="line"/>
      <point x="1008" y="126" type="line"/>
      <point x="1008" y="210" type="line"/>
    </contour>
    <contour>
      <point x="537" y="672" type="line"/>
      <point x="471" y="672" type="line"/>
      <point x="471" y="644" type="line"/>
      <point x="644" y="471" type="line"/>
      <point x="672" y="471" type="line"/>
      <point x="672" y="537" type="line"/>
    </contour>
    <contour>
      <point x="798" y="336" type="line"/>
      <point x="882" y="336" type="line"/>
      <point x="882" y="371" type="line"/>
      <point x="707" y="546" type="line"/>
      <point x="672" y="546" type="line"/>
      <point x="672" y="462" type="line"/>
    </contour>
    <contour>
      <point x="471" y="672" type="line"/>
      <point x="537" y="672" type="line"/>
      <point x="537" y="700" type="line"/>
      <point x="364" y="873" type="line"/>
      <point x="336" y="873" type="line"/>
      <point x="336" y="807" type="line"/>
    </contour>
    <contour>
      <point x="882" y="672" type="line"/>
      <point x="1008" y="798" type="line"/>
      <point x="1008" y="882" type="line"/>
      <point x="973" y="882" type="line"/>
      <point x="798" y="707" type="line"/>
      <point x="798" y="672" type="line"/>
    </contour>
  </outline>
</glyph>
<glyph name="backslash.ss02" format="2">
  <advance width="1344"/>
  <outline>
    <contour>
      <point x="873" y="336" type="line"/>
      <point x="807" y="336" type="line"/>
      <point x="807" y="308" type="line"/>
      <point x="980" y="135" type="line"/>
      <point x="1008" y="135" type="line"/>
      <point x="1008" y="201" type="line"/>
    </contour>
    <contour>
      <point x="546" y="672" type="line"/>
      <point x="462" y="672" type="line"/>
      <point x="462" y="637" type="line"/>
      <point x="637" y="462" type="line"/>
      <point x="672" y="462" type="line"/>
      <point x="672" y="546" type="line"/>
    </contour>
    <contour>
      <point x="807" y="336" type="line"/>
      <point x="873" y="336" type="line"/>
      <point x="873" y="364" type="line"/>
      <point x="700" y="537" type="line"/>
      <point x="672" y="537" type="line"/>
      <point x="672" y="471" type="line"/>
    </contour>
    <contour>
      <point x="462" y="672" type="line"/>
      <point x="546" y="672" type="line"/>
      <point x="546" y="707" type="line"/>
      <point x="371" y="882" type="line"/>
      <point x="336" y="882" type="line"/>
      <point x="336" y="798" type="line"/>
    </contour>
    <contour>
      <point x="873" y="672" type="line"/>
      <point x="1008" y="807" type="line"/>
      <point x="1008" y="873" type="line"/>
      <point x="980" y="873" type="line"/>
      <point x="807" y="700" type="line"/>
      <point x="807" y="672" type="line"/>
    </contour>
  </outline>
</glyph>
<glyph name="backslash.ss03" format="2">
  <advance width="1344"/>
  <outline>
    <contour>
      <point x="890" y="336" type="line"/>
      <point x="790" y="336" type="line"/>
      <point x="790" y="295" type="line"/>
      <point x="967" y="118" type="line"/>
      <point x="1008" y="118" type="line"/>
      <point x="1008" y="218" type="line"/>
    </contour>
    <contour>
      <point x="542" y="672" type="line"/>
      <point x="466" y="672" type="line"/>
      <point x="466" y="641" type="line"/>
      <point x="641" y="466" type="line"/>
      <point x="672" y="466" type="line"/>
      <point x="672" y="542" type="line"/>
    </contour>
    <contour>
      <point x="802" y="336" type="line"/>
      <point x="878" y="336" type="line"/>
      <point x="878" y="367" type="line"/>
      <point x="703" y="542" type="line"/>
      <point x="672" y="542" type="line"/>
      <point x="672" y="466" type="line"/>
    </contour>
    <contour>
      <point x="479" y="672" type="line"/>
      <point x="529" y="672" type="line"/>
      <point x="529" y="693" type="line"/>
      <point x="357" y="865" type="line"/>
      <point x="336" y="865" type="line"/>
      <point x="336" y="815" type="line"/>
    </contour>
    <contour>
      <point x="865" y="672" type="line"/>
      <point x="1008" y="815" type="line"/>
      <point x="1008" y="865" type="line"/>
      <point x="987" y="865" type="line"/>
      <point x="815" y="693" type="line"/>
      <point x="815" y="672" type="line"/>
    </contour>
  </outline>
</glyph>
<glyph name="backslash.ss04" format="2">
  <advance width="1344"/>
  <outline>
    <contour>
      <point x="865" y="336" type="line"/>
      <point x="815" y="336" type="line"/>
      <point x="815" y="315" type="line"/>
      <point x="987" y="143" type="line"/>
      <point x="1008" y="143" type="line"/>
      <point x="1008" y="193" type="line"/>
    </contour>
    <contour>
      <point x="542" y="672" type="line"/>
      <point x="466" y="672" type="line"/>
      <point x="466" y="641" type="line"/>
      <point x="641" y="466" type="line"/>
      <point x="672" y="466" type="line"/>
      <point x="672" y="542" type="line"/>
    </contour>
    <contour>
      <point x="802" y="336" type="line"/>
      <point x="878" y="336" type="line"/>
      <point x="878" y="367" type="line"/>
      <point x="703" y="542" type="line"/>
      <point x="672" y="542" type="line"/>
      <point x="672" y="466" type="line"/>
    </contour>
    <contour>
      <point x="454" y="672" type="line"/>
      <point x="554" y="672" type="line"/>
      <point x="554" y="713" type="line"/>
      <point x="377" y="890" type="line"/>
      <point x="336" y="890" type="line"/>
      <point x="336" y="790" type="line"/>
    </contour>
    <contour>
      <point x="890" y="672" type="line"/>
      <point x="1008" y="790" type="line"/>
      <point x="1008" y="890" type="line"/>
      <point x="967" y="890" type="line"/>
      <point x="790" y="713" type="line"/>
      <point x="790" y="672" type="line"/>
    </contour>
  </outline>
</glyph>
<glyph name="bar.ss01" format="2">
  <advance width="1008"/>
  <outline>
    <contour>
      <point x="466" y="0" type="line"/>
      <point x="542" y="0" type="line"/>
      <point x="542" y="336" type="line"/>
      <point x="466" y="336" type="line"/>
    </contour>
    <contour>
      <point x="466" y="336" type="line"/>
      <point x="542" y="336" type="line"/>
      <point x="542" y="672" type="line"/>
      <point x="466" y="672" type="line"/>
    </contour>
    <contour>
      <point x="466" y="672" type="line"/>
      <point x="542" y="672" type="line"/>
      <point x="542" y="1008" type="line"/>
      <point x="466" y="1008" type="line"/>
    </contour>
  </outline>
</glyph>
<glyph name="bar.ss06" format="2">
  <advance width="1008"/>
  <outline>
    <contour>
      <point x="479" y="0" type="line"/>
      <point x="529" y="0" type="line"/>
      <point x="529" y="336" type="line"/>
      <point x="479" y="336" type="line"/>
    </contour>
    <contour>
      <point x="479" y="336" type="line"/>
      <point x="529" y="336" type="line"/>
      <point x="529" y="672" type="line"/>
      <point x="479" y="672" type="line"/>
    </contour>
    <contour>
      <point x="479" y="672" type="line"/>
      <point x="529" y="672" type="line"/>
      <point x="529" y="1008" type="line"/>
      <point x="479" y="1008" type="line"/>
    </contour>
  </outline>
</glyph>
<glyph name="braceleft.ss02" format="2">
  <advance width="1008"/>
  <outline>
    <contour>
      <point x="466" y="336" type="line"/>
      <point x="466" y="202"/>
      <point x="538" y="130"/>
      <point x="672" y="130" type="curve"/>
      <point x="672" y="206" type="line"/>
      <point x="587" y="206"/>
      <point x="542" y="251"/>
      <point x="542" y="336" type="curve"/>
    </contour>
    <contour>
      <point x="466" y="336" type="line"/>
      <point x="542" y="336" type="line"/>
      <point x="542" y="672" type="line"/>
      <point x="466" y="672" type="line"/>
    </contour>
    <contour>
      <point x="336" y="466" type="line"/>
      <point x="542" y="466" type="line"/>
      <point x="542" y="542" type="line"/>
      <point x="336" y="542" type="line"/>
    </contour>
    <contour>
      <point x="466" y="672" type="curve"/>
      <point x="542" y="672" type="line"/>
      <point x="542" y="757"/>
      <point x="587" y="802"/>
      <point x="672" y="802" type="curve"/>
      <point x="672" y="878" type="line"/>
      <point x="538" y="878"/>
      <point x="466" y="806"/>
    </contour>
  </outline>
</glyph>
<glyph name="braceleft.ss07" format="2">
  <advance width="1008"/>
  <outline>
    <contour>
      <point x="479" y="336" type="line"/>
      <point x="479" y="211"/>
      <point x="547" y="143"/>
      <point x="672" y="143" type="curve"/>
      <point x="672" y="193" type="line"/>
      <point x="579" y="193"/>
      <point x="529" y="243"/>
      <point x="529" y="336" type="curve"/>
    </contour>
    <contour>
      <point x="479" y="336" type="line"/>
      <point x="529" y="336" type="line"/>
      <point x="529" y="672" type="line"/>
      <point x="479" y="672" type="line"/>
    </contour>
    <contour>
      <point x="336" y="479" type="line"/>
      <point x="529" y="479" type="line"/>
      <point x="529" y="529" type="line"/>
      <point x="336" y="529" type="line"/>
    </contour>
    <contour>
      <point x="479" y="672" type="curve"/>
      <point x="529" y="672" type="line"/>
      <point x="529" y="765"/>
      <point x="579" y="815"/>
      <point x="672" y="815" type="curve"/>
      <point x="672" y="865" type="line"/>
      <point x="547" y="865"/>
      <point x="479" y="797"/>
    </contour>
  </outline>
</glyph>
<glyph name="braceright.ss03" format="2">
  <advance width="1008"/>
  <outline>
    <contour>
      <point x="554" y="336" type="curve"/>
      <point x="454" y="336" type="line"/>
      <point x="454" y="259"/>
      <point x="413" y="218"/>
      <point x="336" y="218" type="curve"/>
      <point x="336" y="118" type="line"/>
      <point x="478" y="118"/>
      <point x="554" y="194"/>
    </contour>
    <contour>
      <point x="466" y="336" type="line"/>
      <point x="542" y="336" type="line"/>
      <point x="542" y="672" type="line"/>
      <point x="466" y="672" type="line"/>
    </contour>
    <contour>
      <point x="466" y="466" type="line"/>
      <point x="672" y="466" type="line"/>
      <point x="672" y="542" type="line"/>
      <point x="466" y="542" type="line"/>
    </contour>
    <contour>
      <point x="529" y="672" type="line"/>
      <point x="529" y="797"/>
      <point x="461" y="865"/>
      <point x="336" y="865" type="curve"/>
      <point x="336" y="815" type="line"/>
      <point x="429" y="815"/>
      <point x="479" y="765"/>
      <point x="479" y="672" type="curve"/>
    </contour>
  </outline>
</glyph>
<glyph name="braceright.ss06" format="2">
  <advance width="1008"/>
  <outline>
    <contour>
      <point x="529" y="336" type="curve"/>
      <point x="479" y="336" type="line"/>
      <point x="479" y="243"/>
      <point x="429" y="193"/>
      <point x="336" y="193" type="curve"/>
      <point x="336" y="143" type="line"/>
      <point x="461" y="143"/>
      <point x="529" y="211"/>
    </contour>
    <contour>
      <point x="479" y="336" type="line"/>
      <point x="529" y="336" type="line"/>
      <point x="529" y="672" type="line"/>
      <point x="479" y="672" type="line"/>
    </contour>
    <contour>
      <point x="479" y="479" type="line"/>
      <point x="672" y="479" type="line"/>
      <point x="672" y="529" type="line"/>
      <point x="479" y="529" type="line"/>
    </contour>
    <contour>
      <point x="529" y="672" type="line"/>
      <point x="529" y="797"/>
      <point x="461" y="865"/>
      <point x="336" y="865" type="curve"/>
      <point x="336" y="815" type="line"/>
      <point x="429" y="815"/>
      <point x="479" y="765"/>
      <point x="479" y="672" type="curve"/>
    </contour>
  </outline>
</glyph>
<glyph name="bracketleft.ss02" format="2">
  <advance width="1008"/>
  <outline>
    <contour>
      <point x="466" y="130" type="line"/>
      <point x="672" y="130" type="line"/>
      <point x="672" y="206" type="line"/>
      <point x="466" y="206" type="line"/>
    </contour>
    <contour>
      <point x="466" y="130" type="line"/>
      <point x="542" y="130" type="line"/>
      <point x="542" y="336" type="line"/>
      <point x="466" y="336" type="line"/>
    </contour>
    <contour>
      <point x="466" y="336" type="line"/>
      <point x="542" y="336" type="line"/>
      <point x="542" y="672" type="line"/>
      <point x="466" y="672" type="line"/>
    </contour>
    <contour>
      <point x="466" y="802" type="line"/>
      <point x="672" y="802" type="line"/>
      <point x="672" y="878" type="line"/>
      <point x="466" y="878" type="line"/>
    </contour>
    <contour>
      <point x="466" y="672" type="line"/>
      <point x="542" y="672" type="line"/>
      <point x="542" y="878" type="line"/>
      <point x="466" y="878" type="line"/>
    </contour>
  </outline>
</glyph>
<glyph name="bracketleft.ss03" format="2">
  <advance width="1008"/>
  <outline>
    <contour>
      <point x="454" y="118" type="line"/>
      <point x="672" y="118" type="line"/>
      <point x="672" y="218" type="line"/>
      <point x="454" y="218" type="line"/>
    </contour>
    <contour>
      <point x="454" y="118" type="line"/>
      <point x="554" y="118" type="line"/>
      <point x="554" y="336" type="line"/>
      <point x="454" y="336" type="line"/>
    </contour>
    <contour>
      <point x="466" y="336" type="line"/>
      <point x="542" y="336" type="line"/>
      <point x="542" y="672" type="line"/>
      <point x="466" y="672" type="line"/>
    </contour>
    <contour>
      <point x="479" y="815" type="line"/>
      <point x="672" y="815" type="line"/>
      <point x="672" y="865" type="line"/>
      <point x="479" y="865" type="line"/>
    </contour>
    <contour>
      <point x="479" y="672" type="line"/>
      <point x="529" y="672" type="line"/>
      <point x="529" y="865" type="line"/>
      <point x="479" y="865" type="line"/>
    </contour>
  </outline>
</glyph>
<glyph name="bracketleft.ss04" format="2">
  <advance width="1008"/>
  <outline>
    <contour>
      <point x="479" y="143" type="line"/>
      <point x="672" y="143" type="line"/>
      <point x="672" y="193" type="line"/>
      <point x="479" y="193" type="line"/>
    </contour>
    <contour>
      <point x="479" y="143" type="line"/>
      <point x="529" y="143" type="line"/>
      <point x="529" y="336" type="line"/>
      <point x="479" y="336" type="line"/>
    </contour>
    <contour>
      <point x="466" y="336" type="line"/>
      <point x="542" y="336" type="line"/>
      <point x="542" y="672" type="line"/>
      <point x="466" y="672" type="line"/>
    </contour>
    <contour>
      <point x="454" y="790" type="line"/>
      <point x="672" y="790" type="line"/>
      <point x="672" y="890" type="line"/>
      <point x="454" y="890" type="line"/>
    </contour>
    <contour>
      <point x="454" y="672" type="line"/>
      <point x="554" y="672" type="line"/>
      <point x="554" y="890" type="line"/>
      <point x="454" y="890" type="line"/>
    </contour>
  </outline>
</glyph>
<glyph name="bracketleft.ss05" format="2">
  <advance width="1008"/>
  <outline>
    <contour>
      <point x="479" y="143" type="line"/>
      <point x="672" y="143" type="line"/>
      <point x="672" y="193" type="line"/>
      <point x="479" y="193" type="line"/>
    </contour>
    <contour>
      <point x="479" y="143" type="line"/>
      <point x="529" y="143" type="line"/>
      <point x="529" y="336" type="line"/>
      <point x="479" y="336" type="line"/>
    </contour>
    <contour>
      <point x="479" y="336" type="line"/>
      <point x="529" y="336" type="line"/>
      <point x="529" y="672" type="line"/>
      <point x="479" y="672" type="line"/>
    </contour>
    <contour>
      <point x="479" y="815" type="line"/>
      <point x="672" y="815" type="line"/>
      <point x="672" y="865" type="line"/>
      <point x="479" y="865" type="line"/>
    </contour>
    <contour>
      <point x="479" y="672" type="line"/>
      <point x="529" y="672" type="line"/>
      <point x="529" y="865" type="line"/>
      <point x="479" y="865" type="line"/>
    </contour>
  </outline>
</glyph>
<glyph name="c.alt1.ss01" format="2">
  <advance width="1008"/>
  <outline>
    <contour>
      <point x="143" y="336" type="line"/>
      <point x="143" y="211"/>
      <point x="211" y="143"/>
      <point x="336" y="143" type="curve"/>
      <point x="336" y="193" type="line"/>
      <point x="243" y="193"/>
      <point x="193" y="243"/>
      <point x="193" y="336" type="curve"/>
    </contour>
    <contour>
      <point x="336" y="130" type="line"/>
      <point x="672" y="130" type="line"/>
      <point x="672" y="206" type="line"/>
      <point x="336" y="206" type="line"/>
    </contour>
    <contour>
      <point x="672" y="118" type="line"/>
      <point x="890" y="118" type="line"/>
      <point x="890" y="218" type="line"/>
      <point x="672" y="218" type="line"/>
    </contour>
    <contour>
      <point x="143" y="336" type="line"/>
      <point x="193" y="336" type="line"/>
      <point x="193" y="672" type="line"/>
      <point x="143" y="672" type="line"/>
    </contour>
    <contour>
      <point x="143" y="815" type="line"/>
      <point x="336" y="815" type="line"/>
      <point x="336" y="865" type="line"/>
      <point x="143" y="865" type="line"/>
    </contour>
    <contour>
      <point x="143" y="672" type="line"/>
      <point x="193" y="672" type="line"/>
      <point x="193" y="865" type="line"/>
      <point x="143" y="865" type="line"/>
    </contour>
    <contour>
      <point x="336" y="802" type="line"/>
      <point x="672" y="802" type="line"/>
      <point x="672" y="878" type="line"/>
      <point x="336" y="878" type="line"/>
    </contour>
    <contour>
      <point x="672" y="790" type="line"/>
      <point x="890" y="790" type="line"/>
      <point x="890" y="890" type="line"/>
      <point x="672" y="890" type="line"/>
    </contour>
    <contour>
      <point x="790" y="672" type="line"/>
      <point x="890" y="672" type="line"/>
      <point x="890" y="890" type="line"/>
      <point x="790" y="890" type="line"/>
    </contour>
  </outline>
</glyph>
<glyph name="c.alt1.ss04" format="2">
  <advance width="1008"/>
  <outline>
    <contour>
      <point x="143" y="336" type="line"/>
      <point x="143" y="211"/>
      <point x="211" y="143"/>
      <point x="336" y="143" type="curve"/>
      <point x="336" y="193" type="line"/>
      <point x="243" y="193"/>
      <point x="193" y="243"/>
      <point x="193" y="336" type="curve"/>
    </contour>
    <contour>
      <point x="336" y="143" type="line"/>
      <point x="672" y="143" type="line"/>
      <point x="672" y="193" type="line"/>
      <point x="336" y="193" type="line"/>
    </contour>
    <contour>
      <point x="672" y="143" type="line"/>
      <point x="865" y="143" type="line"/>
      <point x="865" y="193" type="line"/>
      <point x="672" y="193" type="line"/>
    </contour>
    <contour>
      <point x="130" y="336" type="line"/>
      <point x="206" y="336" type="line"/>
      <point x="206" y="672" type="line"/>
      <point x="130" y="672" type="line"/>
    </contour>
    <contour>
      <point x="118" y="790" type="line"/>
      <point x="336" y="790" type="line"/>
      <point x="336" y="890" type="line"/>
      <point x="118" y="890" type="line"/>
    </contour>
    <contour>
      <point x="118" y="672" type="line"/>
      <point x="218" y="672" type="line"/>
      <point x="218" y="890" type="line"/>
      <point x="118" y="890" type="line"/>
    </contour>
    <contour>
      <point x="336" y="790" type="line"/>
      <point x="672" y="790" type="line"/>
      <point x="672" y="890" type="line"/>
      <point x="336" y="890" type="line"/>
    </contour>
    <contour>
      <point x="672" y="790" type="line"/>
      <point x="890" y="790" type="line"/>
      <point x="890" y="890" type="line"/>
      <point x="672" y="890" type="line"/>
    </contour>
    <contour>
      <point x="790" y="672" type="line"/>
      <point x="890" y="672" type="line"/>
      <point x="890" y="890" type="line"/>
      <point x="790" y="890" type="line"/>
    </contour>
  </outline>
</glyph>
<glyph name="c.alt1.ss06" format="2">
  <advance width="1680"/>
  <outline>
    <contour>
      <point x="143" y="336" type="line"/>
      <point x="143" y="211"/>
      <point x="211" y="143"/>
      <point x="336" y="143" type="curve"/>
      <point x="336" y="193" type="line"/>
      <point x="243" y="193"/>
      <point x="193" y="243"/>
      <point x="193" y="336" type="curve"/>
    </contour>
    <contour>
      <point x="336" y="143" type="line"/>
      <point x="1344" y="143" type="line"/>
      <point x="1344" y="193" type="line"/>
      <point x="336" y="193" type="line"/>
    </contour>
    <contour>
      <point x="1344" y="143" type="line"/>
      <point x="1537" y="143" type="line"/>
      <point x="1537" y="193" type="line"/>
      <point x="1344" y="193" type="line"/>
    </contour>
    <contour>
      <point x="143" y="336" type="line"/>
      <point x="193" y="336" type="line"/>
      <point x="193" y="672" type="line"/>
      <point x="143" y="672" type="line"/>
    </contour>
    <contour>
      <point x="143" y="815" type="line"/>
      <point x="336" y="815" type="line"/>
      <point x="336" y="865" type="line"/>
      <point x="143" y="865" type="line"/>
    </contour>
    <contour>
      <point x="143" y="672" type="line"/>
      <point x="193" y="672" type="line"/>
      <point x="193" y="865" type="line"/>
      <point x="143" y="865" type="line"/>
    </contour>
    <contour>
      <point x="336" y="815" type="line"/>
      <point x="1344" y="815" type="line"/>
      <point x="1344" y="865" type="line"/>
      <point x="336" y="865" type="line"/>
    </contour>
    <contour>
      <point x="1344" y="815" type="line"/>
      <point x="1537" y="815" type="line"/>
      <point x="1537" y="865" type="line"/>
      <point x="1344" y="865" type="line"/>
    </contour>
    <contour>
      <point x="1487" y="672" type="line"/>
      <point x="1537" y="672" type="line"/>
      <point x="1537" y="865" type="line"/>
      <point x="1487" y="865" type="line"/>
    </contour>
  </outline>
</glyph>
<glyph name="c.alt1.ss07" format="2">
  <advance width="2016"/>
  <outline>
    <contour>
      <point x="143" y="336" type="line"/>
      <point x="143" y="211"/>
      <point x="211" y="143"/>
      <point x="336" y="143" type="curve"/>
      <point x="336" y="193" type="line"/>
      <point x="243" y="193"/>
      <point x="193" y="243"/>
      <point x="193" y="336" type="curve"/>
    </contour>
    <contour>
      <point x="336" y="143" type="line"/>
      <point x="1680" y="143" type="line"/>
      <point x="1680" y="193" type="line"/>
      <point x="336" y="193" type="line"/>
    </contour>
    <contour>
      <point x="1680" y="143" type="line"/>
      <point x="1873" y="143" type="line"/>
      <point x="1873" y="193" type="line"/>
      <point x="1680" y="193" type="line"/>
    </contour>
    <contour>
      <point x="143" y="336" type="line"/>
      <point x="193" y="336" type="line"/>
      <point x="193" y="672" type="line"/>
      <point x="143" y="672" type="line"/>
    </contour>
    <contour>
      <point x="143" y="815" type="line"/>
      <point x="336" y="815" type="line"/>
      <point x="336" y="865" type="line"/>
      <point x="143" y="865" type="line"/>
    </contour>
    <contour>
      <point x="143" y="672" type="line"/>
      <point x="193" y="672" type="line"/>
      <point x="193" y="865" type="line"/>
      <point x="143" y="865" type="line"/>
    </contour>
    <contour>
      <point x="336" y="815" type="line"/>
      <point x="1680" y="815" type="line"/>
      <point x="1680" y="865" type="line"/>
      <point x="336" y="865" type="line"/>
    </contour>
    <contour>
      <point x="1680" y="815" type="line"/>
      <point x="1873" y="815" type="line"/>
      <point x="1873" y="865" type="line"/>
      <point x="1680" y="865" type="line"/>
    </contour>
    <contour>
      <point x="1823" y="672" type="line"/>
      <point x="1873" y="672" type="line"/>
      <point x="1873" y="865" type="line"/>
      <point x="1823" y="865" type="line"/>
    </contour>
  </outline>
</glyph>
<glyph name="c.alt2.ss02" format="2">
  <advance width="1008"/>
  <outline>
    <contour>
      <point x="118" y="336" type="line"/>
      <point x="118" y="194"/>
      <point x="194" y="118"/>
      <point x="336" y="118" type="curve"/>
      <point x="336" y="218" type="line"/>
      <point x="259" y="218"/>
      <point x="218" y="259"/>
      <point x="218" y="336" type="curve"/>
    </contour>
    <contour>
      <point x="336" y="130" type="line"/>
      <point x="672" y="130" type="line"/>
      <point x="672" y="206" type="line"/>
      <point x="336" y="206" type="line"/>
    </contour>
    <contour>
      <point x="672" y="143" type="line"/>
      <point x="865" y="143" type="line"/>
      <point x="865" y="193" type="line"/>
      <point x="672" y="193" type="line"/>
    </contour>
    <contour>
      <point x="815" y="143" type="line"/>
      <point x="865" y="143" type="line"/>
      <point x="865" y="336" type="line"/>
      <point x="815" y="336" type="line"/>
    </contour>
    <contour>
      <point x="218" y="672" type="line"/>
      <point x="118" y="672" type="line"/>
      <point x="118" y="631" type="line"/>
      <point x="295" y="454" type="line"/>
      <point x="336" y="454" type="line"/>
      <point x="336" y="554" type="line"/>
    </contour>
    <contour>
      <point x="218" y="336" type="line"/>
      <point x="336" y="454" type="line"/>
      <point x="336" y="554" type="line"/>
      <point x="295" y="554" type="line"/>
      <point x="118" y="377" type="line"/>
      <point x="118" y="336" type="line"/>
    </contour>
    <contour>
      <point x="118" y="790" type="line"/>
      <point x="336" y="790" type="line"/>
      <point x="336" y="890" type="line"/>
      <point x="118" y="890" type="line"/>
    </contour>
    <contour>
      <point x="118" y="672" type="line"/>
      <point x="218" y="672" type="line"/>
      <point x="218" y="890" type="line"/>
      <point x="118" y="890" type="line"/>
    </contour>
    <contour>
      <point x="336" y="802" type="line"/>
      <point x="672" y="802" type="line"/>
      <point x="672" y="878" type="line"/>
      <point x="336" y="878" type="line"/>
    </contour>
    <contour>
      <point x="672" y="815" type="line"/>
      <point x="865" y="815" type="line"/>
      <point x="865" y="865" type="line"/>
      <point x="672" y="865" type="line"/>
    </contour>
    <contour>
      <point x="815" y="672" type="line"/>
      <point x="865" y="672" type="line"/>
      <point x="865" y="865" type="line"/>
      <point x="815" y="865" type="line"/>
    </contour>
  </outline>
</glyph>
